M48
;DRILL file {KiCad 0.201505312246+5692~23~ubuntu14.04.1-product} date Mon 01 Jun 2015 02:51:32 AM PDT
;FORMAT={-:-/ absolute / inch / decimal}
FMAT,2
INCH,TZ
T1C0.016
T2C0.025
T3C0.028
T4C0.030
T5C0.039
T6C0.040
T7C0.043
T8C0.091
T9C0.098
T10C0.118
%
G90
G05
M72
T1
X2.07Y-6.2
X2.075Y-8.725
X2.085Y-6.62
X2.09Y-6.95
X2.105Y-5.605
X2.115Y-6.73
X2.12Y-6.995
X2.1258Y-6.8408
X2.126Y-7.79
X2.1336Y-6.8728
X2.14Y-7.66
X2.155Y-7.585
X2.16Y-6.905
X2.195Y-6.98
X2.2095Y-7.3945
X2.215Y-6.845
X2.225Y-7.815
X2.245Y-7.455
X2.2673Y-6.1668
X2.275Y-7.42
X2.29Y-7.005
X2.2922Y-6.46
X2.2922Y-6.526
X2.295Y-6.1318
X2.2999Y-5.7955
X2.3022Y-5.64
X2.3023Y-6.7677
X2.305Y-5.982
X2.3095Y-6.0976
X2.3096Y-6.3096
X2.31Y-6.2
X2.3125Y-7.6
X2.332Y-7.15
X2.3343Y-7.0185
X2.335Y-7.51
X2.335Y-5.415
X2.335Y-5.5
X2.345Y-7.65
X2.36Y-7.22
X2.36Y-7.075
X2.38Y-6.9945
X2.385Y-7.46
X2.388Y-7.15
X2.39Y-5.595
X2.39Y-6.855
X2.39Y-7.105
X2.3948Y-7.2895
X2.395Y-6.925
X2.395Y-7.57
X2.395Y-7.74
X2.3952Y-7.5194
X2.4183Y-7.0633
X2.4204Y-6.46
X2.4205Y-6.6558
X2.4205Y-6.541
X2.4205Y-6.71
X2.4319Y-7.652
X2.4328Y-5.715
X2.4338Y-6.3395
X2.4338Y-5.86
X2.4338Y-6.105
X2.4338Y-6.195
X2.4423Y-7.4973
X2.445Y-7.095
X2.4551Y-6.1301
X2.4551Y-6.1699
X2.4558Y-7.2629
X2.4625Y-5.54
X2.4628Y-6.9272
X2.47Y-7.065
X2.475Y-6.965
X2.475Y-7.605
X2.4757Y-5.6464
X2.4763Y-6.7683
X2.4845Y-6.654
X2.4861Y-7.8639
X2.49Y-6.55
X2.5Y-6.445
X2.5013Y-7.0754
X2.505Y-7.4232
X2.515Y-7.765
X2.5172Y-6.6691
X2.52Y-6.805
X2.52Y-6.998
X2.535Y-6.7337
X2.5411Y-7.8939
X2.5417Y-6.5648
X2.5508Y-6.5244
X2.5586Y-7.4786
X2.5711Y-7.9239
X2.573Y-7.1406
X2.573Y-7.213
X2.573Y-7.2853
X2.573Y-7.3577
X2.575Y-6.86
X2.575Y-7.68
X2.5895Y-6.485
X2.5923Y-6.77
X2.6Y-7.745
X2.6Y-7.9
X2.6023Y-7.6273
X2.6074Y-6.1624
X2.6173Y-6.985
X2.6184Y-7.023
X2.62Y-5.76
X2.6368Y-6.897
X2.645Y-8.055
X2.6453Y-7.1406
X2.6453Y-7.213
X2.6453Y-7.2853
X2.6453Y-7.3577
X2.65Y-5.355
X2.65Y-5.465
X2.65Y-8.5
X2.6556Y-7.5
X2.66Y-5.79
X2.69Y-7.85
X2.695Y-6.03
X2.695Y-6.245
X2.7042Y-7.5172
X2.715Y-7.61
X2.7177Y-7.1406
X2.7177Y-7.213
X2.7177Y-7.2853
X2.7177Y-7.3577
X2.725Y-5.825
X2.735Y-7.565
X2.76Y-7.83
X2.765Y-6.755
X2.7694Y-6.0992
X2.79Y-6.965
X2.79Y-7.1406
X2.79Y-7.213
X2.79Y-7.2853
X2.79Y-7.3577
X2.805Y-6.77
X2.805Y-7.77
X2.8058Y-6.1045
X2.8177Y-6.1535
X2.835Y-5.945
X2.8415Y-6.1295
X2.8419Y-6.89
X2.8485Y-6.1795
X2.8632Y-6.9998
X2.875Y-6.965
X2.885Y-6.185
X2.885Y-8.285
X2.905Y-8.37
X2.908Y-6.2134
X2.93Y-6.785
X2.935Y-6.69
X2.935Y-6.92
X2.94Y-7.58
X2.9619Y-6.7135
X2.965Y-6.05
X2.965Y-7.195
X2.97Y-6.96
X2.97Y-6.44
X2.97Y-6.875
X2.97Y-7.31
X2.97Y-7.8
X2.975Y-6.335
X2.995Y-7.7145
X3.Y-6.755
X3.Y-7.41
X3.Y-7.55
X3.005Y-7.065
X3.005Y-7.34
X3.005Y-7.175
X3.01Y-8.61
X3.025Y-7.765
X3.0268Y-6.2719
X3.0373Y-6.3277
X3.038Y-7.135
X3.04Y-6.5
X3.04Y-7.42
X3.04Y-7.545
X3.05Y-6.695
X3.05Y-6.915
X3.065Y-7.32
X3.075Y-6.54
X3.08Y-6.46
X3.095Y-6.85
X3.1Y-6.75
X3.1023Y-6.3122
X3.105Y-8.565
X3.115Y-8.75
X3.13Y-6.26
X3.13Y-7.635
X3.135Y-6.395
X3.135Y-6.89
X3.15Y-6.5695
X3.15Y-6.695
X3.1561Y-7.32
X3.1599Y-6.9116
X3.165Y-6.285
X3.18Y-6.46
X3.185Y-6.84
X3.205Y-8.725
X3.2066Y-6.8649
X3.2299Y-7.0499
X3.23Y-7.
X3.2346Y-6.8846
X3.2401Y-7.4795
X3.245Y-6.685
X3.2552Y-6.9104
X3.2692Y-7.0208
X3.2784Y-6.9338
X3.282Y-7.1233
X3.285Y-7.085
X3.3056Y-7.0592
X3.3223Y-6.9073
X3.33Y-6.945
X3.3323Y-6.9781
X3.335Y-6.365
X3.3427Y-8.0823
X3.345Y-6.685
X3.36Y-7.005
X3.37Y-7.955
X3.375Y-7.13
X3.385Y-7.03
X3.395Y-7.345
X3.4084Y-7.0582
X3.415Y-7.9148
X3.42Y-6.98
X3.43Y-7.5
X3.43Y-7.565
X3.435Y-7.085
X3.44Y-8.015
X3.45Y-8.825
X3.475Y-8.2955
X3.48Y-7.185
X3.48Y-7.305
X3.48Y-7.365
X3.48Y-7.575
X3.48Y-7.64
X3.48Y-7.875
X3.515Y-7.165
X3.525Y-7.87
X3.5405Y-7.04
X3.555Y-7.18
X3.555Y-8.09
X3.57Y-7.855
X3.58Y-6.8
X3.58Y-7.64
X3.58Y-8.18
X3.585Y-6.39
X3.585Y-7.69
X3.585Y-7.79
X3.585Y-7.74
X3.59Y-7.01
X3.605Y-8.21
X3.6097Y-7.82
X3.61Y-6.75
X3.625Y-8.28
X3.625Y-6.82
X3.64Y-8.215
X3.645Y-7.99
X3.645Y-8.335
X3.645Y-8.505
X3.66Y-7.53
X3.66Y-6.945
X3.66Y-6.985
X3.6657Y-7.695
X3.6657Y-7.785
X3.67Y-7.9
X3.675Y-6.82
X3.675Y-7.12
X3.68Y-7.365
X3.68Y-8.09
X3.685Y-7.82
X3.69Y-7.285
X3.69Y-8.575
X3.69Y-8.715
X3.705Y-7.17
X3.715Y-6.155
X3.715Y-7.5
X3.72Y-8.46
X3.725Y-7.12
X3.725Y-8.18
X3.725Y-8.215
X3.725Y-8.25
X3.725Y-8.29
X3.73Y-8.37
X3.74Y-6.945
X3.74Y-6.985
X3.74Y-7.64
X3.75Y-6.65
X3.7547Y-7.2519
X3.7815Y-6.98
X3.7841Y-7.0149
X3.82Y-7.165
X3.83Y-6.695
X3.83Y-8.015
X3.865Y-7.07
X3.865Y-7.165
X3.865Y-8.175
X3.875Y-6.325
X3.875Y-7.645
X3.88Y-7.795
X3.88Y-7.865
X3.8926Y-7.2519
X3.895Y-7.01
X3.895Y-7.045
X3.9Y-8.29
X3.9Y-8.58
X3.905Y-7.57
X3.925Y-7.985
X3.94Y-8.14
X3.95Y-8.825
X3.965Y-7.015
X3.965Y-7.16
X3.965Y-7.675
X3.9748Y-6.8027
X3.995Y-8.43
X4.0264Y-7.1564
X4.03Y-7.705
X4.05Y-6.165
X4.05Y-6.6205
X4.055Y-7.985
X4.06Y-6.89
X4.065Y-8.43
X4.095Y-7.195
X4.11Y-7.535
X4.115Y-7.905
X4.115Y-8.015
X4.115Y-8.105
X4.12Y-7.72
X4.12Y-7.675
X4.1205Y-8.285
X4.135Y-7.14
X4.135Y-8.61
X4.145Y-8.47
X4.18Y-6.4095
X4.181Y-6.3535
X4.1845Y-8.285
X4.19Y-8.705
X4.195Y-6.98
X4.215Y-7.675
X4.225Y-6.4095
X4.23Y-7.565
X4.245Y-7.395
X4.25Y-6.75
X4.265Y-8.105
X4.27Y-7.985
X4.275Y-6.4095
X4.275Y-7.215
X4.28Y-7.64
X4.28Y-7.105
X4.295Y-7.14
X4.31Y-6.385
X4.32Y-7.9
X4.3331Y-7.133
X4.34Y-6.355
X4.365Y-7.17
X4.38Y-7.26
X4.425Y-7.985
X4.43Y-7.32
X4.45Y-6.675
X4.45Y-8.825
X4.452Y-7.19
X4.454Y-7.0594
X4.454Y-7.133
X4.4673Y-6.8873
X4.47Y-7.39
X4.47Y-7.44
X4.48Y-7.28
X4.4823Y-7.2423
X4.4854Y-7.6
X4.51Y-6.385
X4.515Y-7.14
X4.52Y-7.78
X4.525Y-6.12
X4.53Y-6.22
X4.5349Y-7.6
X4.54Y-6.335
X4.545Y-5.845
X4.545Y-7.105
X4.55Y-6.675
X4.55Y-6.95
X4.585Y-7.535
X4.59Y-7.315
X4.59Y-6.38
X4.5975Y-7.4541
X4.5975Y-7.3741
X4.6Y-7.81
X4.6475Y-7.4541
X4.6475Y-7.3741
X4.65Y-7.285
X4.6573Y-7.833
X4.665Y-5.68
X4.665Y-6.43
X4.685Y-5.49
X4.69Y-6.14
X4.69Y-6.19
X4.695Y-5.9
X4.71Y-5.8
X4.71Y-5.95
X4.71Y-6.
X4.715Y-6.845
X4.72Y-7.2
X4.72Y-7.7475
X4.75Y-6.015
X4.75Y-6.32
X4.755Y-7.73
X4.76Y-6.805
X4.765Y-6.14
X4.765Y-6.19
X4.77Y-6.43
X4.77Y-7.58
X4.775Y-6.72
X4.775Y-7.34
X4.775Y-7.39
X4.795Y-6.835
X4.795Y-7.055
X4.7992Y-7.6459
X4.8Y-6.32
X4.82Y-5.81
X4.825Y-6.14
X4.825Y-6.44
X4.825Y-7.15
X4.825Y-7.325
X4.83Y-5.92
X4.85Y-6.06
X4.86Y-5.42
X4.86Y-5.955
X4.86Y-6.265
X4.865Y-6.99
X4.89Y-7.56
X4.89Y-7.635
X4.89Y-7.875
X4.895Y-6.3354
X4.895Y-6.48
X4.895Y-6.53
X4.895Y-8.01
X4.9Y-5.78
X4.9Y-6.27
X4.905Y-5.92
X4.92Y-6.125
X4.92Y-6.925
X4.92Y-6.975
X4.95Y-6.425
X4.95Y-6.78
X4.95Y-8.825
X4.955Y-6.6596
X4.965Y-5.4152
X4.965Y-7.6775
X4.965Y-7.77
X4.98Y-5.775
X4.98Y-6.05
X4.985Y-7.73
X4.99Y-5.915
X4.99Y-6.27
X4.99Y-6.43
X4.995Y-5.47
X5.025Y-7.18
X5.035Y-6.755
X5.06Y-7.405
X5.06Y-7.455
X5.0686Y-7.1788
X5.07Y-6.795
X5.075Y-6.86
X5.075Y-6.94
X5.075Y-7.28
X5.08Y-7.83
X5.0873Y-5.8223
X5.1Y-5.675
X5.1099Y-6.1912
X5.11Y-6.425
X5.11Y-7.22
X5.1145Y-5.5147
X5.12Y-6.
X5.125Y-6.86
X5.125Y-7.15
X5.125Y-7.28
X5.125Y-7.585
X5.125Y-6.94
X5.14Y-7.455
X5.14Y-5.4093
X5.14Y-7.405
X5.15Y-6.315
X5.1678Y-5.7424
X5.175Y-7.585
X5.195Y-5.3848
X5.215Y-5.695
X5.215Y-7.3
X5.225Y-5.51
X5.225Y-5.615
X5.23Y-6.78
X5.235Y-7.76
X5.2543Y-5.4228
X5.255Y-6.875
X5.255Y-6.925
X5.27Y-6.2
X5.28Y-7.475
X5.28Y-7.58
X5.28Y-7.645
X5.295Y-8.515
X5.305Y-6.855
X5.315Y-7.125
X5.315Y-7.51
X5.325Y-7.18
X5.33Y-8.235
X5.332Y-6.7873
X5.335Y-7.255
X5.3363Y-5.4515
X5.35Y-7.75
T2
X2.24Y-7.125
X2.24Y-7.175
X2.24Y-7.225
X2.24Y-7.275
X2.24Y-7.325
X2.29Y-7.125
X2.29Y-7.175
X2.29Y-7.225
X2.29Y-7.275
X2.29Y-7.325
T3
X2.2945Y-5.4593
X2.4855Y-5.4593
X5.0745Y-5.4593
X5.2655Y-5.4593
T4
X3.Y-6.6
X3.1Y-6.6
X3.2Y-6.6
X3.3Y-6.6
X3.4Y-6.6
X3.485Y-8.12
X3.5Y-6.6
X3.6Y-6.6
X3.62Y-8.4325
X3.7Y-6.6
X3.8Y-6.6
X3.9Y-6.6
X3.953Y-7.394
X3.98Y-6.745
X4.1Y-6.715
X4.2Y-6.6
X4.255Y-6.905
X4.3Y-6.6
X4.3595Y-6.925
X4.39Y-6.76
X4.4Y-6.6
X4.5Y-6.6
X4.6Y-6.6
X4.685Y-8.075
X4.7Y-6.6
X4.8Y-6.6
X4.8375Y-7.6025
X4.865Y-7.05
X4.9Y-6.6
X4.94Y-7.6025
X4.965Y-7.05
X5.Y-6.6
X5.025Y-7.86
X5.1Y-6.6
T5
X4.9472Y-5.7122
X4.9472Y-5.8106
X4.9472Y-5.8894
X4.9472Y-5.9878
T6
X2.565Y-5.58
X2.565Y-5.68
X2.79Y-6.005
X2.89Y-6.005
X3.03Y-6.005
X3.13Y-6.005
T7
X2.2516Y-6.4016
X2.2516Y-6.5984
X2.2716Y-8.3916
X2.2716Y-8.5884
X2.4484Y-6.4016
X2.4484Y-6.5984
X2.4684Y-8.3916
X2.4684Y-8.5884
T8
X5.0693Y-5.5961
X5.0693Y-6.1059
T9
X2.1Y-5.4
X2.1Y-8.9
X2.8Y-6.35
X2.8Y-6.6
X2.8Y-8.9
X3.2Y-5.7
X3.205Y-8.18
X4.775Y-5.6
X5.15Y-8.9
X5.3Y-6.35
X5.3Y-6.6
X5.3Y-8.7
T10
X2.715Y-5.6431
X2.9Y-5.525
X2.9Y-5.7612
T3
X2.2473Y-5.3471G85X2.2473Y-5.3629
G05
X2.5327Y-5.3471G85X2.5327Y-5.3629
G05
X5.0273Y-5.3471G85X5.0273Y-5.3629
G05
X5.3127Y-5.3471G85X5.3127Y-5.3629
G05
T0
M30
