G04 #@! TF.FileFunction,Drawing*
%FSLAX46Y46*%
G04 Gerber Fmt 4.6, Leading zero omitted, Abs format (unit mm)*
G04 Created by KiCad (PCBNEW 0.201505101954+5649~23~ubuntu14.04.1-product) date Mon 11 May 2015 11:57:15 AM PDT*
%MOMM*%
G01*
G04 APERTURE LIST*
%ADD10C,0.100000*%
%ADD11C,0.200000*%
%ADD12C,0.500000*%
G04 APERTURE END LIST*
D10*
D11*
X88900000Y-17780000D02*
X88900000Y-55880000D01*
X124460000Y-17780000D02*
X88900000Y-17780000D01*
X124460000Y-55880000D02*
X124460000Y-17780000D01*
X88900000Y-55880000D02*
X124460000Y-55880000D01*
X130810000Y-81280000D02*
X105410000Y-91440000D01*
X105410000Y-81280000D02*
X130810000Y-91440000D01*
X100330000Y-81280000D02*
X74930000Y-91440000D01*
X74930000Y-81280000D02*
X100330000Y-91440000D01*
X100330000Y-91440000D02*
X74930000Y-91440000D01*
X100330000Y-81280000D02*
X100330000Y-91440000D01*
X74930000Y-81280000D02*
X100330000Y-81280000D01*
X130810000Y-91440000D02*
X105410000Y-91440000D01*
X130810000Y-81280000D02*
X130810000Y-91440000D01*
X105410000Y-81280000D02*
X130810000Y-81280000D01*
X105410000Y-91440000D02*
X105410000Y-81280000D01*
X74930000Y-81280000D02*
X74930000Y-91440000D01*
X130810000Y-91440000D02*
X130810000Y-81280000D01*
D12*
X112359613Y-107950000D02*
G75*
G03X112359613Y-107950000I-5679613J0D01*
G01*
D11*
X101600000Y-55880000D02*
X111760000Y-55880000D01*
X101600000Y-107950000D02*
G75*
G03X111760000Y-107950000I5080000J0D01*
G01*
X101600000Y-55880000D02*
X101600000Y-107950000D01*
X111760000Y-107950000D02*
X111760000Y-55880000D01*
X50800000Y-152400000D02*
X50800000Y-154940000D01*
X48260000Y-152400000D02*
X50800000Y-152400000D01*
M02*
