G04 #@! TF.FileFunction,Soldermask,Top*
%FSLAX46Y46*%
G04 Gerber Fmt 4.6, Leading zero omitted, Abs format (unit mm)*
G04 Created by KiCad (PCBNEW 0.201505101954+5649~23~ubuntu14.04.1-product) date Mon 11 May 2015 12:27:12 PM PDT*
%MOMM*%
G01*
G04 APERTURE LIST*
%ADD10C,0.100000*%
%ADD11C,1.452400*%
%ADD12C,2.852400*%
%ADD13O,1.052400X1.452400*%
%ADD14C,1.052400*%
%ADD15R,0.552400X1.502400*%
%ADD16R,1.252400X1.652400*%
%ADD17R,1.152400X0.752400*%
%ADD18R,0.752400X0.752400*%
%ADD19R,1.452400X0.852400*%
%ADD20C,2.352400*%
%ADD21R,0.660400X1.295400*%
%ADD22R,0.952500X0.952500*%
%ADD23R,0.751840X0.551180*%
%ADD24R,0.551180X0.751840*%
%ADD25R,0.852400X1.452400*%
%ADD26R,0.949960X0.949960*%
%ADD27R,2.184400X2.184400*%
%ADD28O,2.184400X2.184400*%
%ADD29C,4.724400*%
%ADD30C,1.168400*%
%ADD31R,0.787400X1.295400*%
%ADD32R,1.295400X0.787400*%
%ADD33R,0.652400X0.852400*%
%ADD34R,0.792400X0.852400*%
%ADD35R,3.532400X2.452400*%
%ADD36R,0.852400X0.652400*%
%ADD37R,0.852400X0.792400*%
%ADD38R,2.452400X3.532400*%
%ADD39R,1.212400X0.802400*%
%ADD40R,1.295400X0.660400*%
%ADD41R,0.802400X1.452400*%
%ADD42C,2.052400*%
%ADD43R,0.432400X0.902400*%
%ADD44R,0.902400X0.432400*%
%ADD45R,7.152400X7.152400*%
%ADD46R,1.752600X0.685800*%
%ADD47R,2.565400X3.251200*%
%ADD48R,0.685800X1.752600*%
%ADD49R,3.251200X2.565400*%
G04 APERTURE END LIST*
D10*
D11*
X125660000Y-71390000D03*
X125660000Y-68890000D03*
X125660000Y-73390000D03*
X125660000Y-75890000D03*
D12*
X128760000Y-65940000D03*
X128760000Y-78890000D03*
D13*
X127693000Y-59817000D03*
X134943000Y-59817000D03*
D14*
X128893000Y-62467000D03*
X133743000Y-62467000D03*
D15*
X132618000Y-62392000D03*
X131968000Y-62392000D03*
X131318000Y-62392000D03*
X130668000Y-62392000D03*
X130018000Y-62392000D03*
D16*
X133268000Y-59817000D03*
X129368000Y-59817000D03*
D17*
X121805000Y-73340000D03*
D18*
X123505000Y-73340000D03*
X123505000Y-71440000D03*
X121605000Y-71440000D03*
D19*
X122999179Y-114466210D03*
X122999179Y-112566210D03*
D20*
X57190000Y-91400000D03*
X62190000Y-91400000D03*
X57190000Y-86400000D03*
X62190000Y-86400000D03*
D21*
X97282000Y-109982000D03*
X96012000Y-109982000D03*
X94742000Y-109982000D03*
X93472000Y-109982000D03*
X92202000Y-109982000D03*
X90932000Y-109982000D03*
X89662000Y-109982000D03*
X89662000Y-116332000D03*
X90932000Y-116332000D03*
X93472000Y-116332000D03*
X94742000Y-116332000D03*
X96012000Y-116332000D03*
X97282000Y-116332000D03*
X92202000Y-116332000D03*
D22*
X120919240Y-95570000D03*
X120919240Y-97470000D03*
X122918220Y-96520000D03*
D19*
X66548000Y-72771001D03*
X66548000Y-70871001D03*
D23*
X67593142Y-123229437D03*
X67593142Y-122330277D03*
X74422000Y-96763840D03*
X74422000Y-97663000D03*
X63148143Y-122975437D03*
X63148143Y-122076277D03*
D24*
X71950580Y-99822000D03*
X71051420Y-99822000D03*
X66616580Y-59816999D03*
X65717420Y-59816999D03*
D23*
X126111000Y-60647580D03*
X126111000Y-59748420D03*
X124841001Y-62796420D03*
X124841001Y-63695580D03*
D24*
X60325056Y-115411161D03*
X59425896Y-115411161D03*
X64330580Y-102235000D03*
X63431420Y-102235000D03*
X72839580Y-102235000D03*
X71940420Y-102235000D03*
X61262316Y-115411161D03*
X62161476Y-115411161D03*
X74813160Y-109601000D03*
X73914000Y-109601000D03*
D23*
X61595000Y-106230420D03*
X61595000Y-107129580D03*
X61595000Y-108780580D03*
X61595000Y-107881420D03*
D19*
X59944000Y-108138000D03*
X59944000Y-106238000D03*
D25*
X67757000Y-117094000D03*
X69657000Y-117094000D03*
D24*
X68521580Y-115570000D03*
X67622420Y-115570000D03*
X54668420Y-121666000D03*
X55567580Y-121666000D03*
D19*
X121158000Y-86106000D03*
X121158000Y-88006000D03*
D23*
X122555000Y-86809580D03*
X122555000Y-85910420D03*
D24*
X56446420Y-101092000D03*
X57345580Y-101092000D03*
X119009160Y-71120000D03*
X118110000Y-71120000D03*
D23*
X115252180Y-116251790D03*
X115252180Y-115352630D03*
D24*
X134815580Y-96012000D03*
X133916420Y-96012000D03*
D23*
X113982179Y-116251790D03*
X113982179Y-115352630D03*
D24*
X134815580Y-97155000D03*
X133916420Y-97155000D03*
D23*
X128778000Y-106738420D03*
X128778000Y-107637580D03*
X98171000Y-105224580D03*
X98171000Y-104325420D03*
X127635000Y-106738420D03*
X127635000Y-107637580D03*
X97028000Y-105224580D03*
X97028000Y-104325420D03*
D24*
X119067580Y-74930000D03*
X118168420Y-74930000D03*
X119067580Y-76200000D03*
X118168420Y-76200000D03*
D23*
X88392000Y-126375160D03*
X88392000Y-125476000D03*
D24*
X91498420Y-117856000D03*
X92397580Y-117856000D03*
X94371160Y-117856000D03*
X93472000Y-117856000D03*
D23*
X97409000Y-131513580D03*
X97409000Y-130614420D03*
D24*
X99509580Y-130556000D03*
X98610420Y-130556000D03*
D23*
X93726000Y-138752580D03*
X93726000Y-137853420D03*
X94742000Y-136964420D03*
X94742000Y-137863580D03*
D10*
G36*
X60833000Y-66196470D02*
X61365027Y-66728497D01*
X60550158Y-67543366D01*
X60018131Y-67011339D01*
X60833000Y-66196470D01*
X60833000Y-66196470D01*
G37*
G36*
X59489497Y-67539973D02*
X60021524Y-68072000D01*
X59489497Y-68604027D01*
X58957470Y-68072000D01*
X59489497Y-67539973D01*
X59489497Y-67539973D01*
G37*
G36*
X60833000Y-68883476D02*
X61365027Y-69415503D01*
X60833000Y-69947530D01*
X60300973Y-69415503D01*
X60833000Y-68883476D01*
X60833000Y-68883476D01*
G37*
G36*
X62176503Y-67539973D02*
X62708530Y-68072000D01*
X62176503Y-68604027D01*
X61644476Y-68072000D01*
X62176503Y-67539973D01*
X62176503Y-67539973D01*
G37*
D26*
X83094354Y-147955000D03*
X84592954Y-147955000D03*
X95770700Y-147955000D03*
X97269300Y-147955000D03*
X108470700Y-147955000D03*
X109969300Y-147955000D03*
X121170700Y-147955000D03*
X122669300Y-147955000D03*
D27*
X79502000Y-76327000D03*
D28*
X76962000Y-76327000D03*
D29*
X73660000Y-70134480D03*
X73660000Y-64135000D03*
X68961000Y-67134740D03*
D27*
X73406000Y-76327000D03*
D28*
X70866000Y-76327000D03*
D13*
X57081000Y-59817000D03*
X64331000Y-59817000D03*
D14*
X58281000Y-62467000D03*
X63131000Y-62467000D03*
D15*
X62006000Y-62392000D03*
X61356000Y-62392000D03*
X60706000Y-62392000D03*
X60056000Y-62392000D03*
X59406000Y-62392000D03*
D16*
X62656000Y-59817000D03*
X58756000Y-59817000D03*
D27*
X65151000Y-65532000D03*
D28*
X65151000Y-68072000D03*
D30*
X58166000Y-109855000D03*
X56896000Y-109855000D03*
X58166000Y-108585000D03*
X56896000Y-108585000D03*
X58166000Y-107315000D03*
X56896000Y-107315000D03*
X58166000Y-106045000D03*
X56896000Y-106045000D03*
X58166000Y-104775000D03*
X56896000Y-104775000D03*
D31*
X66167000Y-118872000D03*
X67691000Y-118872000D03*
D32*
X118110000Y-73660000D03*
X118110000Y-72136000D03*
D31*
X91186000Y-125476000D03*
X89662000Y-125476000D03*
D22*
X68341240Y-71948000D03*
X68341240Y-73848000D03*
X70340220Y-72898000D03*
X124457180Y-108959451D03*
X122557180Y-108959451D03*
X123507180Y-110958431D03*
X134096760Y-119060000D03*
X134096760Y-117160000D03*
X132097780Y-118110000D03*
X90947240Y-93792000D03*
X90947240Y-95692000D03*
X92946220Y-94742000D03*
D24*
X66616580Y-61087000D03*
X65717420Y-61087000D03*
X66685160Y-62611000D03*
X65786000Y-62611000D03*
D23*
X126111001Y-62796420D03*
X126111001Y-63695580D03*
D24*
X85934074Y-147955000D03*
X86833234Y-147955000D03*
X98610420Y-147955000D03*
X99509580Y-147955000D03*
X111310420Y-147955000D03*
X112209580Y-147955000D03*
X124010420Y-147955000D03*
X124909580Y-147955000D03*
X54668420Y-112649000D03*
X55567580Y-112649000D03*
X124401580Y-82042000D03*
X123502420Y-82042000D03*
D23*
X124333000Y-86174580D03*
X124333000Y-85275420D03*
X129032000Y-82100420D03*
X129032000Y-82999580D03*
X129032000Y-86164420D03*
X129032000Y-87063580D03*
D24*
X56446420Y-102362000D03*
X57345580Y-102362000D03*
D23*
X117729000Y-106738420D03*
X117729000Y-107637580D03*
X119761000Y-96969580D03*
X119761000Y-96070420D03*
X135255001Y-117660420D03*
X135255001Y-118559580D03*
X89789000Y-98239580D03*
X89789000Y-97340420D03*
D33*
X101111000Y-98868000D03*
X100311000Y-98868000D03*
D34*
X99441000Y-98868000D03*
X99441000Y-100268000D03*
D33*
X100311000Y-100268000D03*
X101111000Y-100268000D03*
D34*
X101981000Y-100268000D03*
X101981000Y-98868000D03*
D35*
X100711000Y-99568000D03*
D36*
X116651000Y-98571000D03*
X116651000Y-97771000D03*
D37*
X116651000Y-96901000D03*
X115251000Y-96901000D03*
D36*
X115251000Y-97771000D03*
X115251000Y-98571000D03*
D37*
X115251000Y-99441000D03*
X116651000Y-99441000D03*
D38*
X115951000Y-98171000D03*
D33*
X124225000Y-119188000D03*
X123425000Y-119188000D03*
D34*
X122555000Y-119188000D03*
X122555000Y-120588000D03*
D33*
X123425000Y-120588000D03*
X124225000Y-120588000D03*
D34*
X125095000Y-120588000D03*
X125095000Y-119188000D03*
D35*
X123825000Y-119888000D03*
D10*
G36*
X122568026Y-126827712D02*
X121965288Y-126224974D01*
X122426604Y-125763658D01*
X123029342Y-126366396D01*
X122568026Y-126827712D01*
X122568026Y-126827712D01*
G37*
G36*
X123133711Y-126262027D02*
X122530973Y-125659289D01*
X122992289Y-125197973D01*
X123595027Y-125800711D01*
X123133711Y-126262027D01*
X123133711Y-126262027D01*
G37*
G36*
X123699396Y-125696342D02*
X123096658Y-125093604D01*
X123656970Y-124533292D01*
X124259708Y-125136030D01*
X123699396Y-125696342D01*
X123699396Y-125696342D01*
G37*
G36*
X122709447Y-124706393D02*
X122106709Y-124103655D01*
X122667021Y-123543343D01*
X123269759Y-124146081D01*
X122709447Y-124706393D01*
X122709447Y-124706393D01*
G37*
G36*
X122143762Y-125272078D02*
X121541024Y-124669340D01*
X122002340Y-124208024D01*
X122605078Y-124810762D01*
X122143762Y-125272078D01*
X122143762Y-125272078D01*
G37*
G36*
X121578077Y-125837763D02*
X120975339Y-125235025D01*
X121436655Y-124773709D01*
X122039393Y-125376447D01*
X121578077Y-125837763D01*
X121578077Y-125837763D01*
G37*
G36*
X120913396Y-126502444D02*
X120310658Y-125899706D01*
X120870970Y-125339394D01*
X121473708Y-125942132D01*
X120913396Y-126502444D01*
X120913396Y-126502444D01*
G37*
G36*
X121903345Y-127492393D02*
X121300607Y-126889655D01*
X121860919Y-126329343D01*
X122463657Y-126932081D01*
X121903345Y-127492393D01*
X121903345Y-127492393D01*
G37*
G36*
X121903345Y-127633814D02*
X120169237Y-125899706D01*
X122667021Y-123401922D01*
X124401129Y-125136030D01*
X121903345Y-127633814D01*
X121903345Y-127633814D01*
G37*
D20*
X57698000Y-141946000D03*
X62698000Y-141946000D03*
X57698000Y-136946000D03*
X62698000Y-136946000D03*
D22*
X66257143Y-122287097D03*
X64357143Y-122287097D03*
X65307143Y-124286077D03*
X71262240Y-96713000D03*
X71262240Y-98613000D03*
X73261220Y-97663000D03*
D39*
X127846000Y-84008000D03*
X127846000Y-83058000D03*
X127846000Y-82108000D03*
X125646000Y-82108000D03*
X125646000Y-84008000D03*
X127846000Y-88072001D03*
X127846000Y-87122001D03*
X127846000Y-86172001D03*
X125646000Y-86172001D03*
X125646000Y-88072001D03*
D21*
X102362000Y-122682000D03*
X101092000Y-122682000D03*
X99822000Y-122682000D03*
X98552000Y-122682000D03*
X97282000Y-122682000D03*
X96012000Y-122682000D03*
X94742000Y-122682000D03*
X94742000Y-129032000D03*
X96012000Y-129032000D03*
X98552000Y-129032000D03*
X99822000Y-129032000D03*
X101092000Y-129032000D03*
X102362000Y-129032000D03*
X97282000Y-129032000D03*
D40*
X102362000Y-141732000D03*
X102362000Y-140462000D03*
X102362000Y-139192000D03*
X102362000Y-137922000D03*
X102362000Y-136652000D03*
X102362000Y-135382000D03*
X102362000Y-134112000D03*
X96012000Y-134112000D03*
X96012000Y-135382000D03*
X96012000Y-137922000D03*
X96012000Y-139192000D03*
X96012000Y-140462000D03*
X96012000Y-141732000D03*
X96012000Y-136652000D03*
D41*
X59589476Y-116935161D03*
X61939476Y-116935161D03*
D42*
X76200000Y-91440000D03*
X83820000Y-91440000D03*
X88900000Y-91440000D03*
X111506000Y-95504000D03*
X86360000Y-91440000D03*
X91440000Y-91440000D03*
X93980000Y-91440000D03*
X81280000Y-91440000D03*
X78740000Y-91440000D03*
X121920000Y-91440000D03*
X124460000Y-91440000D03*
X111760000Y-91440000D03*
X109220000Y-91440000D03*
X114300000Y-91440000D03*
X116840000Y-91440000D03*
X119380000Y-91440000D03*
X101092000Y-95123000D03*
X104140000Y-94361000D03*
X106680000Y-91440000D03*
X110731300Y-99695000D03*
X126111000Y-102870000D03*
X122872500Y-116903500D03*
X127000000Y-91440000D03*
X125476000Y-116903500D03*
X96520000Y-91440000D03*
X100406200Y-111607600D03*
X91948000Y-137985500D03*
X108077000Y-99187000D03*
X127635000Y-123444000D03*
X123571000Y-102870000D03*
X118999000Y-128905000D03*
X88519000Y-130048000D03*
X99060000Y-91440000D03*
X129540000Y-91440000D03*
D25*
X126680000Y-95250000D03*
X124780000Y-95250000D03*
X127320000Y-117602000D03*
X129220000Y-117602000D03*
X96200000Y-94742000D03*
X94300000Y-94742000D03*
X117795000Y-85852000D03*
X119695000Y-85852000D03*
D23*
X124841000Y-60647580D03*
X124841000Y-59748420D03*
D22*
X120985695Y-106678284D03*
X119085695Y-106678284D03*
X120035695Y-108677264D03*
X134985760Y-115503999D03*
X134985760Y-113603999D03*
X132986780Y-114553999D03*
D43*
X64359753Y-112378253D03*
X64859753Y-112378253D03*
X65359753Y-112378253D03*
X65859753Y-112378253D03*
X66359753Y-112378253D03*
X66859753Y-112378253D03*
X67359753Y-112378253D03*
X67859753Y-112378253D03*
X68359753Y-112378253D03*
X68859753Y-112378253D03*
X69359753Y-112378253D03*
X69859753Y-112378253D03*
X70359753Y-112378253D03*
X70859753Y-112378253D03*
X71359753Y-112378253D03*
X71859753Y-112378253D03*
D44*
X72559753Y-111678253D03*
X72559753Y-111178253D03*
X72559753Y-110678253D03*
X72559753Y-110178253D03*
X72559753Y-109678253D03*
X72559753Y-109178253D03*
X72559753Y-108678253D03*
X72559753Y-108178253D03*
X72559753Y-107678253D03*
X72559753Y-107178253D03*
X72559753Y-106678253D03*
X72559753Y-106178253D03*
X72559753Y-105678253D03*
X72559753Y-105178253D03*
X72559753Y-104678253D03*
X72559753Y-104178253D03*
D43*
X71859753Y-103478253D03*
X71359753Y-103478253D03*
X70859753Y-103478253D03*
X70359753Y-103478253D03*
X69859753Y-103478253D03*
X69359753Y-103478253D03*
X68859753Y-103478253D03*
X68359753Y-103478253D03*
X67859753Y-103478253D03*
X67359753Y-103478253D03*
X66859753Y-103478253D03*
X66359753Y-103478253D03*
X65859753Y-103478253D03*
X65359753Y-103478253D03*
X64859753Y-103478253D03*
X64359753Y-103478253D03*
D44*
X63659753Y-104178253D03*
X63659753Y-104678253D03*
X63659753Y-105178253D03*
X63659753Y-105678253D03*
X63659753Y-106178253D03*
X63659753Y-106678253D03*
X63659753Y-107178253D03*
X63659753Y-107678253D03*
X63659753Y-108178253D03*
X63659753Y-108678253D03*
X63659753Y-109178253D03*
X63659753Y-109678253D03*
X63659753Y-110178253D03*
X63659753Y-110678253D03*
X63659753Y-111178253D03*
X63659753Y-111678253D03*
D45*
X68109753Y-107928253D03*
D46*
X114731480Y-114024210D03*
X114731480Y-112754210D03*
X114731480Y-111484210D03*
X114731480Y-110214210D03*
X120040080Y-110214210D03*
X120040080Y-111484210D03*
X120040080Y-112754210D03*
X120040080Y-114024210D03*
D47*
X117385780Y-112119210D03*
D46*
X132194300Y-97155000D03*
X132194300Y-98425000D03*
X132194300Y-99695000D03*
X132194300Y-100965000D03*
X126885700Y-100965000D03*
X126885700Y-99695000D03*
X126885700Y-98425000D03*
X126885700Y-97155000D03*
D47*
X129540000Y-99060000D03*
D48*
X127635000Y-109867700D03*
X128905000Y-109867700D03*
X130175000Y-109867700D03*
X131445000Y-109867700D03*
X131445000Y-115176300D03*
X130175000Y-115176300D03*
X128905000Y-115176300D03*
X127635000Y-115176300D03*
D49*
X129540000Y-112522000D03*
D48*
X95885000Y-103492300D03*
X94615000Y-103492300D03*
X93345000Y-103492300D03*
X92075000Y-103492300D03*
X92075000Y-98183700D03*
X93345000Y-98183700D03*
X94615000Y-98183700D03*
X95885000Y-98183700D03*
D49*
X93980000Y-100838000D03*
D48*
X118110000Y-77711300D03*
X119380000Y-77711300D03*
X120650000Y-77711300D03*
X121920000Y-77711300D03*
X121920000Y-83019900D03*
X120650000Y-83019900D03*
X119380000Y-83019900D03*
X118110000Y-83019900D03*
D49*
X120015000Y-80365600D03*
M02*
