G04 #@! TF.FileFunction,Soldermask,Top*
%FSLAX46Y46*%
G04 Gerber Fmt 4.6, Leading zero omitted, Abs format (unit mm)*
G04 Created by KiCad (PCBNEW 0.201505312246+5692~23~ubuntu14.04.1-product) date Mon 01 Jun 2015 02:51:44 AM PDT*
%MOMM*%
G01*
G04 APERTURE LIST*
%ADD10C,0.100000*%
%ADD11C,1.452400*%
%ADD12C,2.852400*%
%ADD13O,1.052400X1.452400*%
%ADD14C,1.052400*%
%ADD15R,0.552400X1.502400*%
%ADD16R,1.252400X1.652400*%
%ADD17R,1.152400X0.752400*%
%ADD18R,0.752400X0.752400*%
%ADD19R,1.452400X0.852400*%
%ADD20C,2.352400*%
%ADD21R,0.660400X1.295400*%
%ADD22R,0.952500X0.952500*%
%ADD23R,0.751840X0.551180*%
%ADD24R,0.551180X0.751840*%
%ADD25R,0.852400X1.452400*%
%ADD26R,0.949960X0.949960*%
%ADD27R,2.184400X2.184400*%
%ADD28O,2.184400X2.184400*%
%ADD29C,4.724400*%
%ADD30C,1.168400*%
%ADD31R,0.787400X1.295400*%
%ADD32R,1.295400X0.787400*%
%ADD33R,0.652400X0.852400*%
%ADD34R,0.792400X0.852400*%
%ADD35R,3.532400X2.452400*%
%ADD36R,0.852400X0.652400*%
%ADD37R,0.852400X0.792400*%
%ADD38R,2.452400X3.532400*%
%ADD39R,1.212400X0.802400*%
%ADD40R,1.295400X0.660400*%
%ADD41R,0.802400X1.452400*%
%ADD42C,2.052400*%
%ADD43R,0.432400X0.902400*%
%ADD44R,0.902400X0.432400*%
%ADD45R,7.152400X7.152400*%
%ADD46R,1.752600X0.685800*%
%ADD47R,2.565400X3.251200*%
%ADD48R,0.685800X1.752600*%
%ADD49R,3.251200X2.565400*%
G04 APERTURE END LIST*
D10*
D11*
X125660000Y-147590000D03*
X125660000Y-145090000D03*
X125660000Y-149590000D03*
X125660000Y-152090000D03*
D12*
X128760000Y-142140000D03*
X128760000Y-155090000D03*
D13*
X127693000Y-136017000D03*
X134943000Y-136017000D03*
D14*
X128893000Y-138667000D03*
X133743000Y-138667000D03*
D15*
X132618000Y-138592000D03*
X131968000Y-138592000D03*
X131318000Y-138592000D03*
X130668000Y-138592000D03*
X130018000Y-138592000D03*
D16*
X133268000Y-136017000D03*
X129368000Y-136017000D03*
D17*
X121805000Y-149540000D03*
D18*
X123505000Y-149540000D03*
X123505000Y-147640000D03*
X121605000Y-147640000D03*
D19*
X122999179Y-190666210D03*
X122999179Y-188766210D03*
D20*
X57190000Y-167600000D03*
X62190000Y-167600000D03*
X57190000Y-162600000D03*
X62190000Y-162600000D03*
D21*
X89662000Y-192532000D03*
X90932000Y-192532000D03*
X92202000Y-192532000D03*
X93472000Y-192532000D03*
X94742000Y-192532000D03*
X96012000Y-192532000D03*
X97282000Y-192532000D03*
X97282000Y-186182000D03*
X96012000Y-186182000D03*
X93472000Y-186182000D03*
X92202000Y-186182000D03*
X90932000Y-186182000D03*
X89662000Y-186182000D03*
X94742000Y-186182000D03*
D22*
X120919240Y-171770000D03*
X120919240Y-173670000D03*
X122918220Y-172720000D03*
D19*
X66548000Y-148971001D03*
X66548000Y-147071001D03*
D23*
X67593142Y-199429437D03*
X67593142Y-198530277D03*
X74422000Y-172963840D03*
X74422000Y-173863000D03*
X63148143Y-199175437D03*
X63148143Y-198276277D03*
D24*
X71950580Y-176022000D03*
X71051420Y-176022000D03*
X66616580Y-136016999D03*
X65717420Y-136016999D03*
D23*
X126111000Y-136847580D03*
X126111000Y-135948420D03*
X124841001Y-138996420D03*
X124841001Y-139895580D03*
D24*
X60325056Y-191611161D03*
X59425896Y-191611161D03*
X64330580Y-178435000D03*
X63431420Y-178435000D03*
X72839580Y-178435000D03*
X71940420Y-178435000D03*
X61262316Y-191611161D03*
X62161476Y-191611161D03*
X74813160Y-185801000D03*
X73914000Y-185801000D03*
D23*
X61595000Y-182430420D03*
X61595000Y-183329580D03*
X61595000Y-184980580D03*
X61595000Y-184081420D03*
D19*
X59944000Y-184338000D03*
X59944000Y-182438000D03*
D25*
X67757000Y-193294000D03*
X69657000Y-193294000D03*
D24*
X68521580Y-191770000D03*
X67622420Y-191770000D03*
X54668420Y-197866000D03*
X55567580Y-197866000D03*
D19*
X121158000Y-162306000D03*
X121158000Y-164206000D03*
D23*
X122555000Y-163009580D03*
X122555000Y-162110420D03*
D24*
X56446420Y-177292000D03*
X57345580Y-177292000D03*
X119009160Y-147320000D03*
X118110000Y-147320000D03*
D23*
X115252180Y-192451790D03*
X115252180Y-191552630D03*
D24*
X134815580Y-172212000D03*
X133916420Y-172212000D03*
D23*
X113982179Y-192451790D03*
X113982179Y-191552630D03*
D24*
X134815580Y-173355000D03*
X133916420Y-173355000D03*
D23*
X128778000Y-182938420D03*
X128778000Y-183837580D03*
X98171000Y-181424580D03*
X98171000Y-180525420D03*
X127635000Y-182938420D03*
X127635000Y-183837580D03*
X97028000Y-181424580D03*
X97028000Y-180525420D03*
D24*
X119067580Y-151130000D03*
X118168420Y-151130000D03*
X119067580Y-152400000D03*
X118168420Y-152400000D03*
X87434420Y-201041000D03*
X88333580Y-201041000D03*
X91498420Y-194056000D03*
X92397580Y-194056000D03*
X94371160Y-194056000D03*
X93472000Y-194056000D03*
D23*
X97409000Y-207713580D03*
X97409000Y-206814420D03*
D24*
X99509580Y-206756000D03*
X98610420Y-206756000D03*
D23*
X93726000Y-214952580D03*
X93726000Y-214053420D03*
X94742000Y-213164420D03*
X94742000Y-214063580D03*
D10*
G36*
X60833000Y-142396470D02*
X61365027Y-142928497D01*
X60550158Y-143743366D01*
X60018131Y-143211339D01*
X60833000Y-142396470D01*
X60833000Y-142396470D01*
G37*
G36*
X59489497Y-143739973D02*
X60021524Y-144272000D01*
X59489497Y-144804027D01*
X58957470Y-144272000D01*
X59489497Y-143739973D01*
X59489497Y-143739973D01*
G37*
G36*
X60833000Y-145083476D02*
X61365027Y-145615503D01*
X60833000Y-146147530D01*
X60300973Y-145615503D01*
X60833000Y-145083476D01*
X60833000Y-145083476D01*
G37*
G36*
X62176503Y-143739973D02*
X62708530Y-144272000D01*
X62176503Y-144804027D01*
X61644476Y-144272000D01*
X62176503Y-143739973D01*
X62176503Y-143739973D01*
G37*
D26*
X83094354Y-224155000D03*
X84592954Y-224155000D03*
X95770700Y-224155000D03*
X97269300Y-224155000D03*
X108470700Y-224155000D03*
X109969300Y-224155000D03*
X121170700Y-224155000D03*
X122669300Y-224155000D03*
D27*
X79502000Y-152527000D03*
D28*
X76962000Y-152527000D03*
D29*
X73660000Y-146334480D03*
X73660000Y-140335000D03*
X68961000Y-143334740D03*
D27*
X73406000Y-152527000D03*
D28*
X70866000Y-152527000D03*
D13*
X57081000Y-136017000D03*
X64331000Y-136017000D03*
D14*
X58281000Y-138667000D03*
X63131000Y-138667000D03*
D15*
X62006000Y-138592000D03*
X61356000Y-138592000D03*
X60706000Y-138592000D03*
X60056000Y-138592000D03*
X59406000Y-138592000D03*
D16*
X62656000Y-136017000D03*
X58756000Y-136017000D03*
D27*
X65151000Y-141732000D03*
D28*
X65151000Y-144272000D03*
D30*
X58166000Y-186055000D03*
X56896000Y-186055000D03*
X58166000Y-184785000D03*
X56896000Y-184785000D03*
X58166000Y-183515000D03*
X56896000Y-183515000D03*
X58166000Y-182245000D03*
X56896000Y-182245000D03*
X58166000Y-180975000D03*
X56896000Y-180975000D03*
D31*
X66167000Y-195072000D03*
X67691000Y-195072000D03*
D32*
X118110000Y-149860000D03*
X118110000Y-148336000D03*
D31*
X91186000Y-201041000D03*
X89662000Y-201041000D03*
D22*
X68341240Y-148148000D03*
X68341240Y-150048000D03*
X70340220Y-149098000D03*
X124457180Y-185159451D03*
X122557180Y-185159451D03*
X123507180Y-187158431D03*
X134096760Y-195260000D03*
X134096760Y-193360000D03*
X132097780Y-194310000D03*
X90947240Y-169992000D03*
X90947240Y-171892000D03*
X92946220Y-170942000D03*
D24*
X66616580Y-137287000D03*
X65717420Y-137287000D03*
X66685160Y-138811000D03*
X65786000Y-138811000D03*
D23*
X126111001Y-138996420D03*
X126111001Y-139895580D03*
D24*
X85934074Y-224155000D03*
X86833234Y-224155000D03*
X98610420Y-224155000D03*
X99509580Y-224155000D03*
X111310420Y-224155000D03*
X112209580Y-224155000D03*
X124010420Y-224155000D03*
X124909580Y-224155000D03*
X54668420Y-188849000D03*
X55567580Y-188849000D03*
X124401580Y-158242000D03*
X123502420Y-158242000D03*
D23*
X124333000Y-162374580D03*
X124333000Y-161475420D03*
X129032000Y-158300420D03*
X129032000Y-159199580D03*
X129032000Y-162364420D03*
X129032000Y-163263580D03*
D24*
X56446420Y-178562000D03*
X57345580Y-178562000D03*
D23*
X117729000Y-182938420D03*
X117729000Y-183837580D03*
X119761000Y-173169580D03*
X119761000Y-172270420D03*
X135255001Y-193860420D03*
X135255001Y-194759580D03*
X89789000Y-174439580D03*
X89789000Y-173540420D03*
D33*
X101111000Y-175068000D03*
X100311000Y-175068000D03*
D34*
X99441000Y-175068000D03*
X99441000Y-176468000D03*
D33*
X100311000Y-176468000D03*
X101111000Y-176468000D03*
D34*
X101981000Y-176468000D03*
X101981000Y-175068000D03*
D35*
X100711000Y-175768000D03*
D36*
X116651000Y-174771000D03*
X116651000Y-173971000D03*
D37*
X116651000Y-173101000D03*
X115251000Y-173101000D03*
D36*
X115251000Y-173971000D03*
X115251000Y-174771000D03*
D37*
X115251000Y-175641000D03*
X116651000Y-175641000D03*
D38*
X115951000Y-174371000D03*
D33*
X124225000Y-195388000D03*
X123425000Y-195388000D03*
D34*
X122555000Y-195388000D03*
X122555000Y-196788000D03*
D33*
X123425000Y-196788000D03*
X124225000Y-196788000D03*
D34*
X125095000Y-196788000D03*
X125095000Y-195388000D03*
D35*
X123825000Y-196088000D03*
D10*
G36*
X122568026Y-203027712D02*
X121965288Y-202424974D01*
X122426604Y-201963658D01*
X123029342Y-202566396D01*
X122568026Y-203027712D01*
X122568026Y-203027712D01*
G37*
G36*
X123133711Y-202462027D02*
X122530973Y-201859289D01*
X122992289Y-201397973D01*
X123595027Y-202000711D01*
X123133711Y-202462027D01*
X123133711Y-202462027D01*
G37*
G36*
X123699396Y-201896342D02*
X123096658Y-201293604D01*
X123656970Y-200733292D01*
X124259708Y-201336030D01*
X123699396Y-201896342D01*
X123699396Y-201896342D01*
G37*
G36*
X122709447Y-200906393D02*
X122106709Y-200303655D01*
X122667021Y-199743343D01*
X123269759Y-200346081D01*
X122709447Y-200906393D01*
X122709447Y-200906393D01*
G37*
G36*
X122143762Y-201472078D02*
X121541024Y-200869340D01*
X122002340Y-200408024D01*
X122605078Y-201010762D01*
X122143762Y-201472078D01*
X122143762Y-201472078D01*
G37*
G36*
X121578077Y-202037763D02*
X120975339Y-201435025D01*
X121436655Y-200973709D01*
X122039393Y-201576447D01*
X121578077Y-202037763D01*
X121578077Y-202037763D01*
G37*
G36*
X120913396Y-202702444D02*
X120310658Y-202099706D01*
X120870970Y-201539394D01*
X121473708Y-202142132D01*
X120913396Y-202702444D01*
X120913396Y-202702444D01*
G37*
G36*
X121903345Y-203692393D02*
X121300607Y-203089655D01*
X121860919Y-202529343D01*
X122463657Y-203132081D01*
X121903345Y-203692393D01*
X121903345Y-203692393D01*
G37*
G36*
X121903345Y-203833814D02*
X120169237Y-202099706D01*
X122667021Y-199601922D01*
X124401129Y-201336030D01*
X121903345Y-203833814D01*
X121903345Y-203833814D01*
G37*
D20*
X57698000Y-218146000D03*
X62698000Y-218146000D03*
X57698000Y-213146000D03*
X62698000Y-213146000D03*
D22*
X66257143Y-198487097D03*
X64357143Y-198487097D03*
X65307143Y-200486077D03*
X71262240Y-172913000D03*
X71262240Y-174813000D03*
X73261220Y-173863000D03*
D39*
X127846000Y-160208000D03*
X127846000Y-159258000D03*
X127846000Y-158308000D03*
X125646000Y-158308000D03*
X125646000Y-160208000D03*
X127846000Y-164272001D03*
X127846000Y-163322001D03*
X127846000Y-162372001D03*
X125646000Y-162372001D03*
X125646000Y-164272001D03*
D21*
X94742000Y-205232000D03*
X96012000Y-205232000D03*
X97282000Y-205232000D03*
X98552000Y-205232000D03*
X99822000Y-205232000D03*
X101092000Y-205232000D03*
X102362000Y-205232000D03*
X102362000Y-198882000D03*
X101092000Y-198882000D03*
X98552000Y-198882000D03*
X97282000Y-198882000D03*
X96012000Y-198882000D03*
X94742000Y-198882000D03*
X99822000Y-198882000D03*
D40*
X96012000Y-210312000D03*
X96012000Y-211582000D03*
X96012000Y-212852000D03*
X96012000Y-214122000D03*
X96012000Y-215392000D03*
X96012000Y-216662000D03*
X96012000Y-217932000D03*
X102362000Y-217932000D03*
X102362000Y-216662000D03*
X102362000Y-214122000D03*
X102362000Y-212852000D03*
X102362000Y-211582000D03*
X102362000Y-210312000D03*
X102362000Y-215392000D03*
D41*
X59589476Y-193135161D03*
X61939476Y-193135161D03*
D42*
X76200000Y-167640000D03*
X83820000Y-167640000D03*
X88900000Y-167640000D03*
X111506000Y-171704000D03*
X86360000Y-167640000D03*
X91440000Y-167640000D03*
X93980000Y-167640000D03*
X81280000Y-167640000D03*
X78740000Y-167640000D03*
X121920000Y-167640000D03*
X124460000Y-167640000D03*
X111760000Y-167640000D03*
X109220000Y-167640000D03*
X114300000Y-167640000D03*
X116840000Y-167640000D03*
X119380000Y-167640000D03*
X101092000Y-171323000D03*
X104140000Y-170561000D03*
X106680000Y-167640000D03*
X110731300Y-175895000D03*
X126111000Y-179070000D03*
X122872500Y-193103500D03*
X127000000Y-167640000D03*
X125476000Y-193103500D03*
X96520000Y-167640000D03*
X100406200Y-187807600D03*
X91948000Y-214185500D03*
X108077000Y-175387000D03*
X127635000Y-199644000D03*
X123571000Y-179070000D03*
X118999000Y-205105000D03*
X88519000Y-206248000D03*
X99060000Y-167640000D03*
X129540000Y-167640000D03*
D25*
X126680000Y-171450000D03*
X124780000Y-171450000D03*
X127320000Y-193802000D03*
X129220000Y-193802000D03*
X96200000Y-170942000D03*
X94300000Y-170942000D03*
X117795000Y-162052000D03*
X119695000Y-162052000D03*
D23*
X124841000Y-136847580D03*
X124841000Y-135948420D03*
D22*
X120985695Y-182878284D03*
X119085695Y-182878284D03*
X120035695Y-184877264D03*
X134985760Y-191703999D03*
X134985760Y-189803999D03*
X132986780Y-190753999D03*
D43*
X64359753Y-188578253D03*
X64859753Y-188578253D03*
X65359753Y-188578253D03*
X65859753Y-188578253D03*
X66359753Y-188578253D03*
X66859753Y-188578253D03*
X67359753Y-188578253D03*
X67859753Y-188578253D03*
X68359753Y-188578253D03*
X68859753Y-188578253D03*
X69359753Y-188578253D03*
X69859753Y-188578253D03*
X70359753Y-188578253D03*
X70859753Y-188578253D03*
X71359753Y-188578253D03*
X71859753Y-188578253D03*
D44*
X72559753Y-187878253D03*
X72559753Y-187378253D03*
X72559753Y-186878253D03*
X72559753Y-186378253D03*
X72559753Y-185878253D03*
X72559753Y-185378253D03*
X72559753Y-184878253D03*
X72559753Y-184378253D03*
X72559753Y-183878253D03*
X72559753Y-183378253D03*
X72559753Y-182878253D03*
X72559753Y-182378253D03*
X72559753Y-181878253D03*
X72559753Y-181378253D03*
X72559753Y-180878253D03*
X72559753Y-180378253D03*
D43*
X71859753Y-179678253D03*
X71359753Y-179678253D03*
X70859753Y-179678253D03*
X70359753Y-179678253D03*
X69859753Y-179678253D03*
X69359753Y-179678253D03*
X68859753Y-179678253D03*
X68359753Y-179678253D03*
X67859753Y-179678253D03*
X67359753Y-179678253D03*
X66859753Y-179678253D03*
X66359753Y-179678253D03*
X65859753Y-179678253D03*
X65359753Y-179678253D03*
X64859753Y-179678253D03*
X64359753Y-179678253D03*
D44*
X63659753Y-180378253D03*
X63659753Y-180878253D03*
X63659753Y-181378253D03*
X63659753Y-181878253D03*
X63659753Y-182378253D03*
X63659753Y-182878253D03*
X63659753Y-183378253D03*
X63659753Y-183878253D03*
X63659753Y-184378253D03*
X63659753Y-184878253D03*
X63659753Y-185378253D03*
X63659753Y-185878253D03*
X63659753Y-186378253D03*
X63659753Y-186878253D03*
X63659753Y-187378253D03*
X63659753Y-187878253D03*
D45*
X68109753Y-184128253D03*
D46*
X114731480Y-190224210D03*
X114731480Y-188954210D03*
X114731480Y-187684210D03*
X114731480Y-186414210D03*
X120040080Y-186414210D03*
X120040080Y-187684210D03*
X120040080Y-188954210D03*
X120040080Y-190224210D03*
D47*
X117385780Y-188319210D03*
D46*
X132194300Y-173355000D03*
X132194300Y-174625000D03*
X132194300Y-175895000D03*
X132194300Y-177165000D03*
X126885700Y-177165000D03*
X126885700Y-175895000D03*
X126885700Y-174625000D03*
X126885700Y-173355000D03*
D47*
X129540000Y-175260000D03*
D48*
X127635000Y-186067700D03*
X128905000Y-186067700D03*
X130175000Y-186067700D03*
X131445000Y-186067700D03*
X131445000Y-191376300D03*
X130175000Y-191376300D03*
X128905000Y-191376300D03*
X127635000Y-191376300D03*
D49*
X129540000Y-188722000D03*
D48*
X95885000Y-179692300D03*
X94615000Y-179692300D03*
X93345000Y-179692300D03*
X92075000Y-179692300D03*
X92075000Y-174383700D03*
X93345000Y-174383700D03*
X94615000Y-174383700D03*
X95885000Y-174383700D03*
D49*
X93980000Y-177038000D03*
D48*
X118110000Y-153911300D03*
X119380000Y-153911300D03*
X120650000Y-153911300D03*
X121920000Y-153911300D03*
X121920000Y-159219900D03*
X120650000Y-159219900D03*
X119380000Y-159219900D03*
X118110000Y-159219900D03*
D49*
X120015000Y-156565600D03*
D23*
X88138000Y-203649580D03*
X88138000Y-202750420D03*
D31*
X91186000Y-203073000D03*
X89662000Y-203073000D03*
D24*
X100965000Y-191643000D03*
X100065840Y-191643000D03*
X86291420Y-214249000D03*
X87190580Y-214249000D03*
M02*
