M48
;DRILL file {KiCad 0.201505101954+5649~23~ubuntu14.04.1-product} date Mon 11 May 2015 12:27:15 PM PDT
;FORMAT={-:-/ absolute / inch / decimal}
FMAT,2
INCH,TZ
T1C0.016
T2C0.025
T3C0.028
T4C0.030
T5C0.039
T6C0.040
T7C0.043
T8C0.091
T9C0.098
T10C0.118
%
G90
G05
M72
T1
X2.07Y-3.2
X2.075Y-5.725
X2.085Y-3.62
X2.09Y-3.95
X2.105Y-2.605
X2.115Y-3.73
X2.12Y-3.995
X2.1258Y-3.8408
X2.126Y-4.79
X2.1336Y-3.8728
X2.14Y-4.66
X2.155Y-4.585
X2.16Y-3.905
X2.195Y-3.98
X2.2095Y-4.3945
X2.215Y-3.845
X2.225Y-4.815
X2.245Y-4.455
X2.2673Y-3.1668
X2.275Y-4.42
X2.29Y-4.005
X2.2922Y-3.46
X2.2922Y-3.526
X2.295Y-3.1318
X2.2999Y-2.7955
X2.3022Y-2.64
X2.3023Y-3.7677
X2.305Y-2.982
X2.3095Y-3.0976
X2.3096Y-3.3096
X2.31Y-3.2
X2.3125Y-4.6
X2.332Y-4.15
X2.3343Y-4.0185
X2.335Y-4.51
X2.335Y-2.415
X2.335Y-2.5
X2.345Y-4.65
X2.36Y-4.22
X2.36Y-4.075
X2.38Y-3.9945
X2.385Y-4.46
X2.388Y-4.15
X2.39Y-2.595
X2.39Y-3.855
X2.39Y-4.105
X2.3948Y-4.2895
X2.395Y-3.925
X2.395Y-4.57
X2.395Y-4.74
X2.3952Y-4.5194
X2.4183Y-4.0633
X2.4204Y-3.46
X2.4205Y-3.6558
X2.4205Y-3.541
X2.4205Y-3.71
X2.4319Y-4.652
X2.4328Y-2.715
X2.4338Y-3.3395
X2.4338Y-2.86
X2.4338Y-3.105
X2.4338Y-3.195
X2.4423Y-4.4973
X2.445Y-4.095
X2.4551Y-3.1301
X2.4551Y-3.1699
X2.4558Y-4.2629
X2.4625Y-2.54
X2.4628Y-3.9272
X2.47Y-4.065
X2.475Y-3.965
X2.475Y-4.605
X2.4757Y-2.6464
X2.4763Y-3.7683
X2.4845Y-3.654
X2.4861Y-4.8639
X2.49Y-3.55
X2.5Y-3.445
X2.5013Y-4.0754
X2.505Y-4.4232
X2.515Y-4.765
X2.5172Y-3.6691
X2.52Y-3.805
X2.52Y-3.998
X2.535Y-3.7337
X2.5411Y-4.8939
X2.5417Y-3.5648
X2.5508Y-3.5244
X2.5586Y-4.4786
X2.5711Y-4.9239
X2.573Y-4.1406
X2.573Y-4.213
X2.573Y-4.2853
X2.573Y-4.3577
X2.575Y-3.86
X2.575Y-4.68
X2.5895Y-3.485
X2.5923Y-3.77
X2.6Y-4.745
X2.6Y-4.9
X2.6023Y-4.6273
X2.6074Y-3.1624
X2.6173Y-3.985
X2.6184Y-4.023
X2.62Y-2.76
X2.6368Y-3.897
X2.645Y-5.055
X2.6453Y-4.1406
X2.6453Y-4.213
X2.6453Y-4.2853
X2.6453Y-4.3577
X2.65Y-2.355
X2.65Y-2.465
X2.65Y-5.5
X2.6556Y-4.5
X2.66Y-2.79
X2.69Y-4.85
X2.695Y-3.03
X2.695Y-3.245
X2.7042Y-4.5172
X2.715Y-4.61
X2.7177Y-4.1406
X2.7177Y-4.213
X2.7177Y-4.2853
X2.7177Y-4.3577
X2.725Y-2.825
X2.735Y-4.565
X2.765Y-3.755
X2.7694Y-3.0992
X2.79Y-3.965
X2.79Y-4.1406
X2.79Y-4.213
X2.79Y-4.2853
X2.79Y-4.3577
X2.805Y-3.77
X2.8058Y-3.1045
X2.8177Y-3.1535
X2.835Y-2.945
X2.8415Y-3.1295
X2.8419Y-3.89
X2.8485Y-3.1795
X2.8632Y-3.9998
X2.875Y-3.965
X2.885Y-3.185
X2.885Y-5.285
X2.905Y-5.37
X2.908Y-3.2134
X2.93Y-3.785
X2.935Y-3.69
X2.935Y-3.92
X2.94Y-4.58
X2.9619Y-3.7135
X2.965Y-3.05
X2.965Y-4.195
X2.97Y-3.96
X2.97Y-3.44
X2.97Y-3.875
X2.97Y-4.31
X2.97Y-4.8
X2.975Y-3.335
X2.995Y-4.7145
X3.Y-3.755
X3.Y-4.41
X3.Y-4.55
X3.005Y-4.065
X3.005Y-4.34
X3.005Y-4.175
X3.01Y-5.61
X3.025Y-4.765
X3.0268Y-3.2719
X3.0373Y-3.3277
X3.038Y-4.135
X3.04Y-3.5
X3.04Y-4.42
X3.04Y-4.545
X3.05Y-3.695
X3.05Y-3.915
X3.065Y-4.32
X3.075Y-3.54
X3.08Y-3.46
X3.095Y-3.85
X3.1Y-3.75
X3.1023Y-3.3122
X3.105Y-5.565
X3.115Y-5.75
X3.13Y-3.26
X3.13Y-4.635
X3.135Y-3.395
X3.135Y-3.89
X3.15Y-3.5695
X3.15Y-3.695
X3.1561Y-4.32
X3.1599Y-3.9116
X3.165Y-3.285
X3.18Y-3.46
X3.185Y-3.84
X3.205Y-5.725
X3.2066Y-3.8649
X3.2299Y-4.0499
X3.23Y-4.
X3.2346Y-3.8846
X3.2401Y-4.4795
X3.245Y-3.685
X3.2552Y-3.9104
X3.2692Y-4.0208
X3.2784Y-3.9338
X3.282Y-4.1233
X3.285Y-4.085
X3.3056Y-4.0592
X3.3223Y-3.9073
X3.33Y-3.945
X3.3323Y-3.9781
X3.335Y-3.365
X3.3427Y-5.0823
X3.345Y-3.685
X3.36Y-4.005
X3.375Y-4.13
X3.385Y-4.03
X3.395Y-4.345
X3.4084Y-4.0582
X3.42Y-3.98
X3.43Y-4.5
X3.43Y-4.565
X3.435Y-4.085
X3.45Y-5.825
X3.475Y-5.2955
X3.48Y-4.185
X3.48Y-4.305
X3.48Y-4.365
X3.48Y-4.575
X3.48Y-4.64
X3.48Y-4.875
X3.48Y-5.005
X3.515Y-4.165
X3.525Y-4.87
X3.5405Y-4.04
X3.555Y-4.18
X3.555Y-5.09
X3.57Y-4.855
X3.58Y-3.8
X3.58Y-4.64
X3.58Y-5.18
X3.585Y-3.39
X3.585Y-4.69
X3.585Y-4.79
X3.585Y-4.74
X3.59Y-4.01
X3.605Y-5.21
X3.6097Y-4.82
X3.61Y-3.75
X3.625Y-5.28
X3.625Y-3.82
X3.64Y-5.215
X3.645Y-4.99
X3.645Y-5.335
X3.645Y-5.505
X3.66Y-4.53
X3.66Y-3.945
X3.66Y-3.985
X3.6657Y-4.695
X3.6657Y-4.785
X3.67Y-4.9
X3.675Y-3.82
X3.675Y-4.12
X3.68Y-4.365
X3.68Y-5.09
X3.685Y-4.82
X3.69Y-4.285
X3.69Y-5.575
X3.69Y-5.715
X3.705Y-4.17
X3.715Y-3.155
X3.715Y-4.5
X3.72Y-5.46
X3.725Y-4.12
X3.725Y-5.18
X3.725Y-5.215
X3.725Y-5.25
X3.725Y-5.29
X3.73Y-5.37
X3.74Y-3.945
X3.74Y-3.985
X3.74Y-4.64
X3.75Y-3.65
X3.7547Y-4.2519
X3.7815Y-3.98
X3.7841Y-4.0149
X3.82Y-4.165
X3.83Y-3.695
X3.83Y-5.015
X3.865Y-4.07
X3.865Y-4.165
X3.865Y-5.175
X3.875Y-3.325
X3.875Y-4.645
X3.88Y-4.795
X3.88Y-4.865
X3.8926Y-4.2519
X3.895Y-4.01
X3.895Y-4.045
X3.9Y-5.29
X3.9Y-5.58
X3.905Y-4.57
X3.925Y-4.985
X3.94Y-5.14
X3.95Y-5.825
X3.965Y-4.015
X3.965Y-4.16
X3.965Y-4.675
X3.9748Y-3.8027
X3.995Y-5.43
X4.0264Y-4.1564
X4.03Y-4.705
X4.05Y-3.165
X4.05Y-3.6205
X4.055Y-4.985
X4.06Y-3.89
X4.065Y-5.43
X4.095Y-4.195
X4.11Y-4.535
X4.115Y-4.905
X4.115Y-5.015
X4.115Y-5.105
X4.12Y-4.72
X4.12Y-4.675
X4.1205Y-5.285
X4.135Y-4.14
X4.135Y-5.61
X4.145Y-5.47
X4.18Y-3.4095
X4.181Y-3.3535
X4.1845Y-5.285
X4.19Y-5.705
X4.195Y-3.98
X4.215Y-4.675
X4.225Y-3.4095
X4.23Y-4.565
X4.245Y-4.395
X4.25Y-3.75
X4.265Y-5.105
X4.27Y-4.985
X4.275Y-3.4095
X4.275Y-4.215
X4.28Y-4.64
X4.28Y-4.105
X4.295Y-4.14
X4.31Y-3.385
X4.32Y-4.9
X4.3331Y-4.133
X4.34Y-3.355
X4.365Y-4.17
X4.38Y-4.26
X4.425Y-4.985
X4.43Y-4.32
X4.45Y-3.675
X4.45Y-5.825
X4.452Y-4.19
X4.454Y-4.0594
X4.454Y-4.133
X4.4673Y-3.8873
X4.47Y-4.39
X4.47Y-4.44
X4.48Y-4.28
X4.4823Y-4.2423
X4.4854Y-4.6
X4.51Y-3.385
X4.515Y-4.14
X4.52Y-4.78
X4.525Y-3.12
X4.53Y-3.22
X4.5349Y-4.6
X4.54Y-3.335
X4.545Y-2.845
X4.545Y-4.105
X4.55Y-3.675
X4.55Y-3.95
X4.585Y-4.535
X4.59Y-4.315
X4.59Y-3.38
X4.5975Y-4.4541
X4.5975Y-4.3741
X4.6Y-4.81
X4.6475Y-4.4541
X4.6475Y-4.3741
X4.65Y-4.285
X4.6573Y-4.833
X4.665Y-2.68
X4.665Y-3.43
X4.685Y-2.49
X4.69Y-3.14
X4.69Y-3.19
X4.695Y-2.9
X4.71Y-2.8
X4.71Y-2.95
X4.71Y-3.
X4.715Y-3.845
X4.72Y-4.2
X4.72Y-4.7475
X4.75Y-3.015
X4.75Y-3.32
X4.755Y-4.73
X4.76Y-3.805
X4.765Y-3.14
X4.765Y-3.19
X4.77Y-3.43
X4.77Y-4.58
X4.775Y-3.72
X4.775Y-4.34
X4.775Y-4.39
X4.795Y-3.835
X4.795Y-4.055
X4.7992Y-4.6459
X4.8Y-3.32
X4.82Y-2.81
X4.825Y-3.14
X4.825Y-3.44
X4.825Y-4.15
X4.825Y-4.325
X4.83Y-2.92
X4.85Y-3.06
X4.86Y-2.42
X4.86Y-2.955
X4.86Y-3.265
X4.865Y-3.99
X4.89Y-4.56
X4.89Y-4.635
X4.89Y-4.875
X4.895Y-3.3354
X4.895Y-3.48
X4.895Y-3.53
X4.895Y-5.01
X4.9Y-2.78
X4.9Y-3.27
X4.905Y-2.92
X4.92Y-3.125
X4.92Y-3.925
X4.92Y-3.975
X4.95Y-3.425
X4.95Y-3.78
X4.95Y-5.825
X4.955Y-3.6596
X4.965Y-2.4152
X4.965Y-4.6775
X4.965Y-4.77
X4.98Y-2.775
X4.98Y-3.05
X4.985Y-4.73
X4.99Y-2.915
X4.99Y-3.27
X4.99Y-3.43
X4.995Y-2.47
X5.025Y-4.18
X5.035Y-3.755
X5.06Y-4.405
X5.06Y-4.455
X5.0686Y-4.1788
X5.07Y-3.795
X5.075Y-3.86
X5.075Y-3.94
X5.075Y-4.28
X5.08Y-4.83
X5.0873Y-2.8223
X5.1Y-2.675
X5.1099Y-3.1912
X5.11Y-3.425
X5.11Y-4.22
X5.1145Y-2.5147
X5.12Y-3.
X5.125Y-3.86
X5.125Y-4.15
X5.125Y-4.28
X5.125Y-4.585
X5.125Y-3.94
X5.14Y-4.455
X5.14Y-2.4093
X5.14Y-4.405
X5.15Y-3.315
X5.1678Y-2.7424
X5.175Y-4.585
X5.195Y-2.3848
X5.215Y-2.695
X5.215Y-4.3
X5.225Y-2.51
X5.225Y-2.615
X5.23Y-3.78
X5.235Y-4.76
X5.2543Y-2.4228
X5.255Y-3.875
X5.255Y-3.925
X5.27Y-3.2
X5.28Y-4.475
X5.28Y-4.58
X5.28Y-4.645
X5.295Y-5.515
X5.305Y-3.855
X5.315Y-4.125
X5.315Y-4.51
X5.325Y-4.18
X5.33Y-5.235
X5.332Y-3.7873
X5.335Y-4.255
X5.3363Y-2.4515
X5.35Y-4.75
T2
X2.24Y-4.125
X2.24Y-4.175
X2.24Y-4.225
X2.24Y-4.275
X2.24Y-4.325
X2.29Y-4.125
X2.29Y-4.175
X2.29Y-4.225
X2.29Y-4.275
X2.29Y-4.325
T3
X2.2945Y-2.4593
X2.4855Y-2.4593
X5.0745Y-2.4593
X5.2655Y-2.4593
T4
X3.Y-3.6
X3.1Y-3.6
X3.2Y-3.6
X3.3Y-3.6
X3.4Y-3.6
X3.485Y-5.12
X3.5Y-3.6
X3.6Y-3.6
X3.62Y-5.4325
X3.7Y-3.6
X3.8Y-3.6
X3.9Y-3.6
X3.953Y-4.394
X3.98Y-3.745
X4.1Y-3.715
X4.2Y-3.6
X4.255Y-3.905
X4.3Y-3.6
X4.3595Y-3.925
X4.39Y-3.76
X4.4Y-3.6
X4.5Y-3.6
X4.6Y-3.6
X4.685Y-5.075
X4.7Y-3.6
X4.8Y-3.6
X4.8375Y-4.6025
X4.865Y-4.05
X4.9Y-3.6
X4.94Y-4.6025
X4.965Y-4.05
X5.Y-3.6
X5.025Y-4.86
X5.1Y-3.6
T5
X4.9472Y-2.7122
X4.9472Y-2.8106
X4.9472Y-2.8894
X4.9472Y-2.9878
T6
X2.565Y-2.58
X2.565Y-2.68
X2.79Y-3.005
X2.89Y-3.005
X3.03Y-3.005
X3.13Y-3.005
T7
X2.2516Y-3.4016
X2.2516Y-3.5984
X2.2716Y-5.3916
X2.2716Y-5.5884
X2.4484Y-3.4016
X2.4484Y-3.5984
X2.4684Y-5.3916
X2.4684Y-5.5884
T8
X5.0693Y-2.5961
X5.0693Y-3.1059
T9
X2.1Y-2.4
X2.1Y-5.9
X2.8Y-3.35
X2.8Y-3.6
X2.8Y-5.9
X3.2Y-2.7
X3.205Y-5.18
X4.775Y-2.6
X5.15Y-5.9
X5.3Y-3.35
X5.3Y-3.6
X5.3Y-5.7
T10
X2.715Y-2.6431
X2.9Y-2.525
X2.9Y-2.7612
T3
X2.2473Y-2.3471G85X2.2473Y-2.3629
G05
X2.5327Y-2.3471G85X2.5327Y-2.3629
G05
X5.0273Y-2.3471G85X5.0273Y-2.3629
G05
X5.3127Y-2.3471G85X5.3127Y-2.3629
G05
T0
M30
