G04 #@! TF.FileFunction,Paste,Top*
%FSLAX46Y46*%
G04 Gerber Fmt 4.6, Leading zero omitted, Abs format (unit mm)*
G04 Created by KiCad (PCBNEW 0.201505312246+5692~23~ubuntu14.04.1-product) date Mon 01 Jun 2015 02:51:44 AM PDT*
%MOMM*%
G01*
G04 APERTURE LIST*
%ADD10C,0.100000*%
%ADD11R,0.400000X1.350000*%
%ADD12R,1.100000X1.500000*%
%ADD13R,1.000000X0.600000*%
%ADD14R,0.600000X0.600000*%
%ADD15R,1.300000X0.700000*%
%ADD16R,0.508000X1.143000*%
%ADD17R,0.800100X0.800100*%
%ADD18R,0.599440X0.398780*%
%ADD19R,0.398780X0.599440*%
%ADD20R,0.700000X1.300000*%
%ADD21R,0.797560X0.797560*%
%ADD22R,0.635000X1.143000*%
%ADD23R,1.143000X0.635000*%
%ADD24R,0.500000X0.700000*%
%ADD25R,0.640000X0.700000*%
%ADD26R,0.700000X0.500000*%
%ADD27R,0.700000X0.640000*%
%ADD28R,1.060000X0.650000*%
%ADD29R,1.143000X0.508000*%
%ADD30R,0.650000X1.300000*%
%ADD31R,0.280000X0.750000*%
%ADD32R,0.750000X0.280000*%
%ADD33R,2.100000X2.100000*%
%ADD34R,1.600200X0.533400*%
%ADD35R,2.413000X3.098800*%
%ADD36R,0.533400X1.600200*%
%ADD37R,3.098800X2.413000*%
G04 APERTURE END LIST*
D10*
D11*
X132618000Y-138592000D03*
X131968000Y-138592000D03*
X131318000Y-138592000D03*
X130668000Y-138592000D03*
X130018000Y-138592000D03*
D12*
X133268000Y-136017000D03*
X129368000Y-136017000D03*
D13*
X121805000Y-149540000D03*
D14*
X123505000Y-149540000D03*
X123505000Y-147640000D03*
X121605000Y-147640000D03*
D15*
X122999179Y-190666210D03*
X122999179Y-188766210D03*
D16*
X89662000Y-192532000D03*
X90932000Y-192532000D03*
X92202000Y-192532000D03*
X93472000Y-192532000D03*
X94742000Y-192532000D03*
X96012000Y-192532000D03*
X97282000Y-192532000D03*
X97282000Y-186182000D03*
X96012000Y-186182000D03*
X93472000Y-186182000D03*
X92202000Y-186182000D03*
X90932000Y-186182000D03*
X89662000Y-186182000D03*
X94742000Y-186182000D03*
D17*
X120919240Y-171770000D03*
X120919240Y-173670000D03*
X122918220Y-172720000D03*
D15*
X66548000Y-148971001D03*
X66548000Y-147071001D03*
D18*
X67593142Y-199429437D03*
X67593142Y-198530277D03*
X74422000Y-172963840D03*
X74422000Y-173863000D03*
X63148143Y-199175437D03*
X63148143Y-198276277D03*
D19*
X71950580Y-176022000D03*
X71051420Y-176022000D03*
X66616580Y-136016999D03*
X65717420Y-136016999D03*
D18*
X126111000Y-136847580D03*
X126111000Y-135948420D03*
X124841001Y-138996420D03*
X124841001Y-139895580D03*
D19*
X60325056Y-191611161D03*
X59425896Y-191611161D03*
X64330580Y-178435000D03*
X63431420Y-178435000D03*
X72839580Y-178435000D03*
X71940420Y-178435000D03*
X61262316Y-191611161D03*
X62161476Y-191611161D03*
X74813160Y-185801000D03*
X73914000Y-185801000D03*
D18*
X61595000Y-182430420D03*
X61595000Y-183329580D03*
X61595000Y-184980580D03*
X61595000Y-184081420D03*
D15*
X59944000Y-184338000D03*
X59944000Y-182438000D03*
D20*
X67757000Y-193294000D03*
X69657000Y-193294000D03*
D19*
X68521580Y-191770000D03*
X67622420Y-191770000D03*
X54668420Y-197866000D03*
X55567580Y-197866000D03*
D15*
X121158000Y-162306000D03*
X121158000Y-164206000D03*
D18*
X122555000Y-163009580D03*
X122555000Y-162110420D03*
D19*
X56446420Y-177292000D03*
X57345580Y-177292000D03*
X119009160Y-147320000D03*
X118110000Y-147320000D03*
D18*
X115252180Y-192451790D03*
X115252180Y-191552630D03*
D19*
X134815580Y-172212000D03*
X133916420Y-172212000D03*
D18*
X113982179Y-192451790D03*
X113982179Y-191552630D03*
D19*
X134815580Y-173355000D03*
X133916420Y-173355000D03*
D18*
X128778000Y-182938420D03*
X128778000Y-183837580D03*
X98171000Y-181424580D03*
X98171000Y-180525420D03*
X127635000Y-182938420D03*
X127635000Y-183837580D03*
X97028000Y-181424580D03*
X97028000Y-180525420D03*
D19*
X119067580Y-151130000D03*
X118168420Y-151130000D03*
X119067580Y-152400000D03*
X118168420Y-152400000D03*
X87434420Y-201041000D03*
X88333580Y-201041000D03*
X91498420Y-194056000D03*
X92397580Y-194056000D03*
X94371160Y-194056000D03*
X93472000Y-194056000D03*
D18*
X97409000Y-207713580D03*
X97409000Y-206814420D03*
D19*
X99509580Y-206756000D03*
X98610420Y-206756000D03*
D18*
X93726000Y-214952580D03*
X93726000Y-214053420D03*
X94742000Y-213164420D03*
X94742000Y-214063580D03*
D10*
G36*
X60833000Y-142504233D02*
X61257264Y-142928497D01*
X60550158Y-143635603D01*
X60125894Y-143211339D01*
X60833000Y-142504233D01*
X60833000Y-142504233D01*
G37*
G36*
X59489497Y-143847736D02*
X59913761Y-144272000D01*
X59489497Y-144696264D01*
X59065233Y-144272000D01*
X59489497Y-143847736D01*
X59489497Y-143847736D01*
G37*
G36*
X60833000Y-145191239D02*
X61257264Y-145615503D01*
X60833000Y-146039767D01*
X60408736Y-145615503D01*
X60833000Y-145191239D01*
X60833000Y-145191239D01*
G37*
G36*
X62176503Y-143847736D02*
X62600767Y-144272000D01*
X62176503Y-144696264D01*
X61752239Y-144272000D01*
X62176503Y-143847736D01*
X62176503Y-143847736D01*
G37*
D21*
X83094354Y-224155000D03*
X84592954Y-224155000D03*
X95770700Y-224155000D03*
X97269300Y-224155000D03*
X108470700Y-224155000D03*
X109969300Y-224155000D03*
X121170700Y-224155000D03*
X122669300Y-224155000D03*
D11*
X62006000Y-138592000D03*
X61356000Y-138592000D03*
X60706000Y-138592000D03*
X60056000Y-138592000D03*
X59406000Y-138592000D03*
D12*
X62656000Y-136017000D03*
X58756000Y-136017000D03*
D22*
X66167000Y-195072000D03*
X67691000Y-195072000D03*
D23*
X118110000Y-149860000D03*
X118110000Y-148336000D03*
D22*
X91186000Y-201041000D03*
X89662000Y-201041000D03*
D17*
X68341240Y-148148000D03*
X68341240Y-150048000D03*
X70340220Y-149098000D03*
X124457180Y-185159451D03*
X122557180Y-185159451D03*
X123507180Y-187158431D03*
X134096760Y-195260000D03*
X134096760Y-193360000D03*
X132097780Y-194310000D03*
X90947240Y-169992000D03*
X90947240Y-171892000D03*
X92946220Y-170942000D03*
D19*
X66616580Y-137287000D03*
X65717420Y-137287000D03*
X66685160Y-138811000D03*
X65786000Y-138811000D03*
D18*
X126111001Y-138996420D03*
X126111001Y-139895580D03*
D19*
X85934074Y-224155000D03*
X86833234Y-224155000D03*
X98610420Y-224155000D03*
X99509580Y-224155000D03*
X111310420Y-224155000D03*
X112209580Y-224155000D03*
X124010420Y-224155000D03*
X124909580Y-224155000D03*
X54668420Y-188849000D03*
X55567580Y-188849000D03*
X124401580Y-158242000D03*
X123502420Y-158242000D03*
D18*
X124333000Y-162374580D03*
X124333000Y-161475420D03*
X129032000Y-158300420D03*
X129032000Y-159199580D03*
X129032000Y-162364420D03*
X129032000Y-163263580D03*
D19*
X56446420Y-178562000D03*
X57345580Y-178562000D03*
D18*
X117729000Y-182938420D03*
X117729000Y-183837580D03*
X119761000Y-173169580D03*
X119761000Y-172270420D03*
X135255001Y-193860420D03*
X135255001Y-194759580D03*
X89789000Y-174439580D03*
X89789000Y-173540420D03*
D24*
X101111000Y-175068000D03*
X100311000Y-175068000D03*
D25*
X99441000Y-175068000D03*
X99441000Y-176468000D03*
D24*
X100311000Y-176468000D03*
X101111000Y-176468000D03*
D25*
X101981000Y-176468000D03*
X101981000Y-175068000D03*
D26*
X116651000Y-174771000D03*
X116651000Y-173971000D03*
D27*
X116651000Y-173101000D03*
X115251000Y-173101000D03*
D26*
X115251000Y-173971000D03*
X115251000Y-174771000D03*
D27*
X115251000Y-175641000D03*
X116651000Y-175641000D03*
D24*
X124225000Y-195388000D03*
X123425000Y-195388000D03*
D25*
X122555000Y-195388000D03*
X122555000Y-196788000D03*
D24*
X123425000Y-196788000D03*
X124225000Y-196788000D03*
D25*
X125095000Y-196788000D03*
X125095000Y-195388000D03*
D10*
G36*
X122568026Y-202919949D02*
X122073051Y-202424974D01*
X122426604Y-202071421D01*
X122921579Y-202566396D01*
X122568026Y-202919949D01*
X122568026Y-202919949D01*
G37*
G36*
X123133711Y-202354264D02*
X122638736Y-201859289D01*
X122992289Y-201505736D01*
X123487264Y-202000711D01*
X123133711Y-202354264D01*
X123133711Y-202354264D01*
G37*
G36*
X123699396Y-201788579D02*
X123204421Y-201293604D01*
X123656970Y-200841055D01*
X124151945Y-201336030D01*
X123699396Y-201788579D01*
X123699396Y-201788579D01*
G37*
G36*
X122709447Y-200798630D02*
X122214472Y-200303655D01*
X122667021Y-199851106D01*
X123161996Y-200346081D01*
X122709447Y-200798630D01*
X122709447Y-200798630D01*
G37*
G36*
X122143762Y-201364315D02*
X121648787Y-200869340D01*
X122002340Y-200515787D01*
X122497315Y-201010762D01*
X122143762Y-201364315D01*
X122143762Y-201364315D01*
G37*
G36*
X121578077Y-201930000D02*
X121083102Y-201435025D01*
X121436655Y-201081472D01*
X121931630Y-201576447D01*
X121578077Y-201930000D01*
X121578077Y-201930000D01*
G37*
G36*
X120913396Y-202594681D02*
X120418421Y-202099706D01*
X120870970Y-201647157D01*
X121365945Y-202142132D01*
X120913396Y-202594681D01*
X120913396Y-202594681D01*
G37*
G36*
X121903345Y-203584630D02*
X121408370Y-203089655D01*
X121860919Y-202637106D01*
X122355894Y-203132081D01*
X121903345Y-203584630D01*
X121903345Y-203584630D01*
G37*
D17*
X66257143Y-198487097D03*
X64357143Y-198487097D03*
X65307143Y-200486077D03*
X71262240Y-172913000D03*
X71262240Y-174813000D03*
X73261220Y-173863000D03*
D28*
X127846000Y-160208000D03*
X127846000Y-159258000D03*
X127846000Y-158308000D03*
X125646000Y-158308000D03*
X125646000Y-160208000D03*
X127846000Y-164272001D03*
X127846000Y-163322001D03*
X127846000Y-162372001D03*
X125646000Y-162372001D03*
X125646000Y-164272001D03*
D16*
X94742000Y-205232000D03*
X96012000Y-205232000D03*
X97282000Y-205232000D03*
X98552000Y-205232000D03*
X99822000Y-205232000D03*
X101092000Y-205232000D03*
X102362000Y-205232000D03*
X102362000Y-198882000D03*
X101092000Y-198882000D03*
X98552000Y-198882000D03*
X97282000Y-198882000D03*
X96012000Y-198882000D03*
X94742000Y-198882000D03*
X99822000Y-198882000D03*
D29*
X96012000Y-210312000D03*
X96012000Y-211582000D03*
X96012000Y-212852000D03*
X96012000Y-214122000D03*
X96012000Y-215392000D03*
X96012000Y-216662000D03*
X96012000Y-217932000D03*
X102362000Y-217932000D03*
X102362000Y-216662000D03*
X102362000Y-214122000D03*
X102362000Y-212852000D03*
X102362000Y-211582000D03*
X102362000Y-210312000D03*
X102362000Y-215392000D03*
D30*
X59589476Y-193135161D03*
X61939476Y-193135161D03*
D20*
X126680000Y-171450000D03*
X124780000Y-171450000D03*
X127320000Y-193802000D03*
X129220000Y-193802000D03*
X96200000Y-170942000D03*
X94300000Y-170942000D03*
X117795000Y-162052000D03*
X119695000Y-162052000D03*
D18*
X124841000Y-136847580D03*
X124841000Y-135948420D03*
D17*
X120985695Y-182878284D03*
X119085695Y-182878284D03*
X120035695Y-184877264D03*
X134985760Y-191703999D03*
X134985760Y-189803999D03*
X132986780Y-190753999D03*
D31*
X64359753Y-188578253D03*
X64859753Y-188578253D03*
X65359753Y-188578253D03*
X65859753Y-188578253D03*
X66359753Y-188578253D03*
X66859753Y-188578253D03*
X67359753Y-188578253D03*
X67859753Y-188578253D03*
X68359753Y-188578253D03*
X68859753Y-188578253D03*
X69359753Y-188578253D03*
X69859753Y-188578253D03*
X70359753Y-188578253D03*
X70859753Y-188578253D03*
X71359753Y-188578253D03*
X71859753Y-188578253D03*
D32*
X72559753Y-187878253D03*
X72559753Y-187378253D03*
X72559753Y-186878253D03*
X72559753Y-186378253D03*
X72559753Y-185878253D03*
X72559753Y-185378253D03*
X72559753Y-184878253D03*
X72559753Y-184378253D03*
X72559753Y-183878253D03*
X72559753Y-183378253D03*
X72559753Y-182878253D03*
X72559753Y-182378253D03*
X72559753Y-181878253D03*
X72559753Y-181378253D03*
X72559753Y-180878253D03*
X72559753Y-180378253D03*
D31*
X71859753Y-179678253D03*
X71359753Y-179678253D03*
X70859753Y-179678253D03*
X70359753Y-179678253D03*
X69859753Y-179678253D03*
X69359753Y-179678253D03*
X68859753Y-179678253D03*
X68359753Y-179678253D03*
X67859753Y-179678253D03*
X67359753Y-179678253D03*
X66859753Y-179678253D03*
X66359753Y-179678253D03*
X65859753Y-179678253D03*
X65359753Y-179678253D03*
X64859753Y-179678253D03*
X64359753Y-179678253D03*
D32*
X63659753Y-180378253D03*
X63659753Y-180878253D03*
X63659753Y-181378253D03*
X63659753Y-181878253D03*
X63659753Y-182378253D03*
X63659753Y-182878253D03*
X63659753Y-183378253D03*
X63659753Y-183878253D03*
X63659753Y-184378253D03*
X63659753Y-184878253D03*
X63659753Y-185378253D03*
X63659753Y-185878253D03*
X63659753Y-186378253D03*
X63659753Y-186878253D03*
X63659753Y-187378253D03*
X63659753Y-187878253D03*
D33*
X68109753Y-186378253D03*
X68109753Y-184128253D03*
X68109753Y-181878253D03*
X65859753Y-186378253D03*
X65859753Y-184128253D03*
X65859753Y-181878253D03*
X70359753Y-186378253D03*
X70359753Y-184128253D03*
X70359753Y-181878253D03*
D34*
X114731480Y-190224210D03*
X114731480Y-188954210D03*
X114731480Y-187684210D03*
X114731480Y-186414210D03*
X120040080Y-186414210D03*
X120040080Y-187684210D03*
X120040080Y-188954210D03*
X120040080Y-190224210D03*
D35*
X117385780Y-188319210D03*
D34*
X132194300Y-173355000D03*
X132194300Y-174625000D03*
X132194300Y-175895000D03*
X132194300Y-177165000D03*
X126885700Y-177165000D03*
X126885700Y-175895000D03*
X126885700Y-174625000D03*
X126885700Y-173355000D03*
D35*
X129540000Y-175260000D03*
D36*
X127635000Y-186067700D03*
X128905000Y-186067700D03*
X130175000Y-186067700D03*
X131445000Y-186067700D03*
X131445000Y-191376300D03*
X130175000Y-191376300D03*
X128905000Y-191376300D03*
X127635000Y-191376300D03*
D37*
X129540000Y-188722000D03*
D36*
X95885000Y-179692300D03*
X94615000Y-179692300D03*
X93345000Y-179692300D03*
X92075000Y-179692300D03*
X92075000Y-174383700D03*
X93345000Y-174383700D03*
X94615000Y-174383700D03*
X95885000Y-174383700D03*
D37*
X93980000Y-177038000D03*
D36*
X118110000Y-153911300D03*
X119380000Y-153911300D03*
X120650000Y-153911300D03*
X121920000Y-153911300D03*
X121920000Y-159219900D03*
X120650000Y-159219900D03*
X119380000Y-159219900D03*
X118110000Y-159219900D03*
D37*
X120015000Y-156565600D03*
D18*
X88138000Y-203649580D03*
X88138000Y-202750420D03*
D22*
X91186000Y-203073000D03*
X89662000Y-203073000D03*
D19*
X100965000Y-191643000D03*
X100065840Y-191643000D03*
X86291420Y-214249000D03*
X87190580Y-214249000D03*
M02*
