G04 #@! TF.FileFunction,Other,Comment*
%FSLAX46Y46*%
G04 Gerber Fmt 4.6, Leading zero omitted, Abs format (unit mm)*
G04 Created by KiCad (PCBNEW 0.201505101954+5649~23~ubuntu14.04.1-product) date Mon 11 May 2015 12:27:12 PM PDT*
%MOMM*%
G01*
G04 APERTURE LIST*
%ADD10C,0.100000*%
G04 APERTURE END LIST*
D10*
X129514000Y-139045000D02*
G75*
G03X129514000Y-139045000I-1625000J0D01*
G01*
X127889002Y-137420000D02*
X126264000Y-139045003D01*
X129514000Y-139045000D02*
X127889002Y-137420000D01*
X127889000Y-140670000D02*
X129514000Y-139045000D01*
X126264000Y-139045003D02*
X127889000Y-140670000D01*
X129514002Y-127615001D02*
G75*
G03X129514002Y-127615001I-1625001J0D01*
G01*
X127889001Y-125989997D02*
X126263999Y-127615002D01*
X129513999Y-127615001D02*
X127889001Y-125989997D01*
X127889000Y-129240002D02*
X129513999Y-127615001D01*
X126263999Y-127615002D02*
X127889000Y-129240002D01*
X135869679Y-144780002D02*
G75*
G03X135869679Y-144780002I-1249678J0D01*
G01*
X133736300Y-143896000D02*
X133736300Y-145664000D01*
X135503701Y-143896002D02*
X133736300Y-143896000D01*
X135503700Y-145664000D02*
X135503701Y-143896002D01*
X133736300Y-145664000D02*
X135503700Y-145664000D01*
X82656679Y-131572000D02*
G75*
G03X82656679Y-131572000I-1249679J0D01*
G01*
X80522998Y-130687998D02*
X80523000Y-132456000D01*
X82290997Y-130688000D02*
X80522998Y-130687998D01*
X82291000Y-132456000D02*
X82290997Y-130688000D01*
X80523000Y-132456000D02*
X82291000Y-132456000D01*
X72369679Y-91440000D02*
G75*
G03X72369679Y-91440000I-1249679J0D01*
G01*
X70236000Y-90556300D02*
X70235998Y-92323700D01*
X72004000Y-90556300D02*
X70236000Y-90556300D01*
X72004002Y-92323700D02*
X72004000Y-90556300D01*
X70235998Y-92323700D02*
X72004002Y-92323700D01*
X135869678Y-91440001D02*
G75*
G03X135869678Y-91440001I-1249680J0D01*
G01*
X133736300Y-90556300D02*
X133736300Y-92323698D01*
X135503700Y-90556300D02*
X133736300Y-90556300D01*
X135503701Y-92323698D02*
X135503700Y-90556300D01*
X133736300Y-92323698D02*
X135503701Y-92323698D01*
X123676003Y-119980997D02*
G75*
G03X123676003Y-119980997I-1150003J0D01*
G01*
X122525998Y-118830998D02*
X122526000Y-121131000D01*
X123676000Y-119980998D02*
X121376000Y-119980998D01*
X129356001Y-119981000D02*
G75*
G03X129356001Y-119981000I-1150000J0D01*
G01*
X128206000Y-118831001D02*
X128206000Y-121131000D01*
X129356000Y-119981000D02*
X127055999Y-119981001D01*
X123675998Y-106841002D02*
G75*
G03X123675998Y-106841002I-1149997J0D01*
G01*
X122526002Y-105691000D02*
X122526003Y-107990999D01*
X123675997Y-106841000D02*
X121375998Y-106840999D01*
X129356002Y-106841000D02*
G75*
G03X129356002Y-106841000I-1150002J0D01*
G01*
X128206002Y-105690999D02*
X128206000Y-107991002D01*
X129356001Y-106841000D02*
X127055999Y-106841000D01*
X124839000Y-140385003D02*
X124089002Y-141135003D01*
X125589001Y-141135000D02*
X124839000Y-140385003D01*
X124839003Y-141884999D02*
X125589001Y-141135000D01*
X124089002Y-141135003D02*
X124839003Y-141884999D01*
X125589000Y-141885002D02*
X124089000Y-140385000D01*
X125589000Y-140385000D02*
X124088997Y-141884999D01*
X124839000Y-124894997D02*
X124089001Y-125645000D01*
X125589001Y-125645000D02*
X124839000Y-124894997D01*
X124839002Y-126395000D02*
X125589001Y-125645000D01*
X124089001Y-125645000D02*
X124839002Y-126395000D01*
X125589001Y-126395000D02*
X124088998Y-124895002D01*
X125589000Y-124895000D02*
X124089000Y-126395000D01*
X127275798Y-123085000D02*
X127275800Y-123803000D01*
X127994201Y-123085001D02*
X127275798Y-123085000D01*
X127994197Y-123802998D02*
X127994201Y-123085001D01*
X127275800Y-123803000D02*
X127994197Y-123802998D01*
X128143001Y-123952001D02*
X127127000Y-122936000D01*
X128142998Y-122936001D02*
X127127001Y-123952000D01*
X129815800Y-123084998D02*
X129815799Y-123803003D01*
X130534200Y-123085000D02*
X129815800Y-123084998D01*
X130534201Y-123802998D02*
X130534200Y-123085000D01*
X129815799Y-123803003D02*
X130534201Y-123802998D01*
X130683000Y-123952002D02*
X129667000Y-122936000D01*
X130683002Y-122936002D02*
X129667001Y-123951999D01*
X132355800Y-123085002D02*
X132355800Y-123802998D01*
X133074202Y-123085000D02*
X132355800Y-123085002D01*
X133074201Y-123803002D02*
X133074202Y-123085000D01*
X132355800Y-123802998D02*
X133074201Y-123803002D01*
X133223000Y-123952000D02*
X132207003Y-122936001D01*
X133223000Y-122936000D02*
X132206998Y-123952002D01*
X134895800Y-123085000D02*
X134895796Y-123803001D01*
X135614198Y-123085000D02*
X134895800Y-123085000D01*
X135614202Y-123803001D02*
X135614198Y-123085000D01*
X134895796Y-123803001D02*
X135614202Y-123803001D01*
X135763001Y-123951999D02*
X134747000Y-122936000D01*
X135762997Y-122936000D02*
X134747002Y-123951999D01*
X123211803Y-102510800D02*
X123211802Y-103229199D01*
X123930200Y-102510800D02*
X123211803Y-102510800D01*
X123930201Y-103229200D02*
X123930200Y-102510800D01*
X123211802Y-103229199D02*
X123930201Y-103229200D01*
X124079000Y-103378000D02*
X123063000Y-102362000D01*
X124078997Y-102362000D02*
X123063000Y-103378000D01*
X125751802Y-102510799D02*
X125751799Y-103229202D01*
X126470201Y-102510799D02*
X125751802Y-102510799D01*
X126470201Y-103229202D02*
X126470201Y-102510799D01*
X125751799Y-103229202D02*
X126470201Y-103229202D01*
X126618997Y-103378000D02*
X125603000Y-102362000D01*
X126619000Y-102362000D02*
X125603003Y-103377999D01*
X128291800Y-102510802D02*
X128291799Y-103229202D01*
X129010200Y-102510797D02*
X128291800Y-102510802D01*
X129010203Y-103229198D02*
X129010200Y-102510797D01*
X128291799Y-103229202D02*
X129010203Y-103229198D01*
X129159000Y-103378000D02*
X128143000Y-102362000D01*
X129159000Y-102362000D02*
X128143000Y-103378000D01*
X132788999Y-139509999D02*
X132789001Y-140409999D01*
X133238999Y-139959998D02*
X132339000Y-139960002D01*
X133239001Y-140410000D02*
X132339000Y-139510000D01*
X133239001Y-139510002D02*
X132339000Y-140410000D01*
X121538999Y-137345002D02*
X121539002Y-138245003D01*
X121989000Y-137794999D02*
X121089000Y-137795000D01*
X121989001Y-138245001D02*
X121089002Y-137344999D01*
X121989003Y-137344999D02*
X121089000Y-138245003D01*
X132789000Y-136960000D02*
X132789002Y-137860000D01*
X133239002Y-137410002D02*
X132339000Y-137410000D01*
X133238999Y-137860000D02*
X132339000Y-136960000D01*
X133238998Y-136959999D02*
X132339000Y-137860003D01*
X118999000Y-136075000D02*
X118999000Y-136975000D01*
X119449000Y-136524999D02*
X118548998Y-136525001D01*
X119449000Y-136975002D02*
X118549002Y-136075000D01*
X119449000Y-136075000D02*
X118549000Y-136975000D01*
X121539000Y-134804998D02*
X121539000Y-135705000D01*
X121989001Y-135254997D02*
X121089001Y-135255002D01*
X121989000Y-135705000D02*
X121089000Y-134805000D01*
X121989000Y-134805000D02*
X121089002Y-135704998D01*
X118999000Y-133535000D02*
X118998999Y-134434997D01*
X119449001Y-133985000D02*
X118549002Y-133984999D01*
X119449000Y-134435000D02*
X118549003Y-133535001D01*
X119449002Y-133534998D02*
X118548997Y-134435002D01*
X121538999Y-132265003D02*
X121539000Y-133165000D01*
X121989000Y-132715000D02*
X121089001Y-132715003D01*
X121989000Y-133165000D02*
X121089000Y-132264999D01*
X121989000Y-132264997D02*
X121089001Y-133165002D01*
X118999000Y-130995002D02*
X118999000Y-131895000D01*
X119448997Y-131445000D02*
X118548997Y-131444999D01*
X119449001Y-131895001D02*
X118548997Y-130995001D01*
X119449000Y-130995001D02*
X118548999Y-131894998D01*
X121539000Y-129724997D02*
X121539000Y-130625000D01*
X121989002Y-130175000D02*
X121089001Y-130174998D01*
X121989000Y-130624999D02*
X121089000Y-129725000D01*
X121988998Y-129725001D02*
X121088999Y-130624998D01*
X132789000Y-128810000D02*
X132789001Y-129710001D01*
X133239003Y-129260000D02*
X132338998Y-129260000D01*
X133239000Y-129709999D02*
X132339000Y-128810000D01*
X133238999Y-128810000D02*
X132339001Y-129709998D01*
X118999000Y-128455000D02*
X118999000Y-129355000D01*
X119449002Y-128905000D02*
X118549000Y-128905000D01*
X119449000Y-129355001D02*
X118548997Y-128454998D01*
X119449001Y-128454999D02*
X118549000Y-129355000D01*
X132788999Y-126259999D02*
X132789000Y-127160000D01*
X133239000Y-126710000D02*
X132339000Y-126710000D01*
X133239002Y-127159999D02*
X132339000Y-126260000D01*
X133239000Y-126259997D02*
X132339001Y-127159998D01*
X122876000Y-116461000D02*
X122876001Y-117361002D01*
X123325999Y-116911000D02*
X122425999Y-116911002D01*
X123326000Y-117360999D02*
X122426000Y-116461000D01*
X123326000Y-116461000D02*
X122426000Y-117361000D01*
X125476000Y-116461002D02*
X125476001Y-117360997D01*
X125926000Y-116911001D02*
X125026000Y-116911001D01*
X125926001Y-117361003D02*
X125025999Y-116460999D01*
X125926000Y-116461000D02*
X125026001Y-117361003D01*
X122875999Y-113961001D02*
X122876002Y-114861003D01*
X123326000Y-114411000D02*
X122426000Y-114411000D01*
X123325999Y-114860997D02*
X122425999Y-113960999D01*
X123325999Y-113961000D02*
X122425999Y-114861001D01*
X125475998Y-113961000D02*
X125476000Y-114860998D01*
X125926000Y-114410999D02*
X125026001Y-114410999D01*
X125926002Y-114861001D02*
X125026001Y-113960998D01*
X125926001Y-113961000D02*
X125026000Y-114861002D01*
X122876001Y-111961002D02*
X122876000Y-112861001D01*
X123326000Y-112411000D02*
X122425998Y-112410997D01*
X123326000Y-112861002D02*
X122426000Y-111961000D01*
X123326000Y-111961000D02*
X122426003Y-112860999D01*
X125476001Y-111961003D02*
X125475999Y-112861001D01*
X125926000Y-112411000D02*
X125026000Y-112411000D01*
X125926001Y-112861001D02*
X125026000Y-111961000D01*
X125926001Y-111960998D02*
X125026000Y-112861000D01*
X122876000Y-109461000D02*
X122876000Y-110361000D01*
X123325998Y-109910998D02*
X122426002Y-109911000D01*
X123326000Y-110361000D02*
X122426002Y-109461001D01*
X123326001Y-109461000D02*
X122425997Y-110361000D01*
X125476000Y-109461001D02*
X125476000Y-110361000D01*
X125926000Y-109910997D02*
X125025998Y-109911000D01*
X125926000Y-110361000D02*
X125026000Y-109460997D01*
X125926000Y-109461000D02*
X125026000Y-110361000D01*
X76619001Y-91439999D02*
G75*
G03X76619001Y-91439999I-419001J0D01*
G01*
X76619002Y-91859000D02*
X75781002Y-91020999D01*
X76619000Y-91020999D02*
X75780997Y-91859003D01*
X79159000Y-91440000D02*
G75*
G03X79159000Y-91440000I-419000J0D01*
G01*
X79159000Y-91859000D02*
X78321001Y-91021002D01*
X79159000Y-91021000D02*
X78321000Y-91858998D01*
X81699002Y-91439998D02*
G75*
G03X81699002Y-91439998I-419004J0D01*
G01*
X81699000Y-91859000D02*
X80861000Y-91021000D01*
X81698997Y-91021000D02*
X80860998Y-91858997D01*
X84239001Y-91440000D02*
G75*
G03X84239001Y-91440000I-418999J0D01*
G01*
X84239000Y-91859000D02*
X83401001Y-91021002D01*
X84239004Y-91021000D02*
X83401002Y-91858999D01*
X86778998Y-91440001D02*
G75*
G03X86778998Y-91440001I-419000J0D01*
G01*
X86779003Y-91859002D02*
X85941000Y-91021000D01*
X86779002Y-91020999D02*
X85941000Y-91859000D01*
X89319004Y-91440000D02*
G75*
G03X89319004Y-91440000I-419004J0D01*
G01*
X89319001Y-91859000D02*
X88481000Y-91020999D01*
X89319001Y-91021002D02*
X88481000Y-91859000D01*
X91859002Y-91439999D02*
G75*
G03X91859002Y-91439999I-419001J0D01*
G01*
X91859000Y-91859000D02*
X91020998Y-91020999D01*
X91858998Y-91021001D02*
X91021000Y-91859000D01*
X94399003Y-91439997D02*
G75*
G03X94399003Y-91439997I-419005J0D01*
G01*
X94398997Y-91859003D02*
X93560998Y-91020998D01*
X94399001Y-91020999D02*
X93561000Y-91859002D01*
X96938999Y-91440002D02*
G75*
G03X96938999Y-91440002I-418998J0D01*
G01*
X96938999Y-91858999D02*
X96101000Y-91021000D01*
X96939000Y-91021002D02*
X96101001Y-91859002D01*
X99479001Y-91439999D02*
G75*
G03X99479001Y-91439999I-419001J0D01*
G01*
X99479000Y-91859000D02*
X98640998Y-91021002D01*
X99479000Y-91021000D02*
X98641000Y-91859000D01*
X107098996Y-91440003D02*
G75*
G03X107098996Y-91440003I-418997J0D01*
G01*
X107098997Y-91859002D02*
X106261000Y-91021000D01*
X107098999Y-91021000D02*
X106261000Y-91859000D01*
X109638995Y-91440003D02*
G75*
G03X109638995Y-91440003I-418997J0D01*
G01*
X109639003Y-91859000D02*
X108801001Y-91021001D01*
X109639000Y-91021000D02*
X108801000Y-91859001D01*
X112179002Y-91439998D02*
G75*
G03X112179002Y-91439998I-419002J0D01*
G01*
X112178999Y-91859001D02*
X111341000Y-91020999D01*
X112179000Y-91021000D02*
X111340997Y-91859001D01*
X114719000Y-91440000D02*
G75*
G03X114719000Y-91440000I-419000J0D01*
G01*
X114718997Y-91859001D02*
X113881000Y-91021000D01*
X114719000Y-91021001D02*
X113880997Y-91858999D01*
X117259001Y-91440000D02*
G75*
G03X117259001Y-91440000I-418999J0D01*
G01*
X117259000Y-91859000D02*
X116421001Y-91021001D01*
X117259000Y-91021000D02*
X116421000Y-91859000D01*
X119798999Y-91439999D02*
G75*
G03X119798999Y-91439999I-419002J0D01*
G01*
X119799000Y-91859000D02*
X118961000Y-91021000D01*
X119799000Y-91021001D02*
X118961000Y-91859002D01*
X122338998Y-91440000D02*
G75*
G03X122338998Y-91440000I-419000J0D01*
G01*
X122339000Y-91859000D02*
X121501000Y-91021000D01*
X122339002Y-91021001D02*
X121501000Y-91859000D01*
X124879002Y-91439998D02*
G75*
G03X124879002Y-91439998I-419001J0D01*
G01*
X124879000Y-91859000D02*
X124041000Y-91021000D01*
X124879000Y-91021000D02*
X124041003Y-91858999D01*
X127419000Y-91439998D02*
G75*
G03X127419000Y-91439998I-419002J0D01*
G01*
X127419000Y-91859000D02*
X126580998Y-91021002D01*
X127418998Y-91021001D02*
X126581000Y-91859000D01*
X129959000Y-91440000D02*
G75*
G03X129959000Y-91440000I-419000J0D01*
G01*
X129958998Y-91859001D02*
X129120999Y-91021003D01*
X129958997Y-91020998D02*
X129121000Y-91859000D01*
X136089998Y-102335000D02*
G75*
G02X136090002Y-103035000I2J-350000D01*
G01*
X135690000Y-103034996D02*
G75*
G02X135690000Y-102335000I0J349998D01*
G01*
X136090002Y-103035000D02*
X135690000Y-103035000D01*
X136090002Y-102335002D02*
X135690000Y-102335000D01*
X135889999Y-102335000D02*
X135540000Y-102685000D01*
X136240000Y-102685000D02*
X135889999Y-102335000D01*
X135890000Y-103035000D02*
X136240000Y-102685000D01*
X135540000Y-102685000D02*
X135890000Y-103035000D01*
X133240000Y-101135000D02*
X132890000Y-101485003D01*
X133590001Y-101485002D02*
X133240000Y-101135000D01*
X133239997Y-101834999D02*
X133590001Y-101485002D01*
X132890000Y-101485003D02*
X133239997Y-101834999D01*
X133240003Y-96285000D02*
X132889997Y-96635001D01*
X133589998Y-96634999D02*
X133240003Y-96285000D01*
X133240000Y-96985000D02*
X133589998Y-96634999D01*
X132889997Y-96635001D02*
X133240000Y-96985000D01*
X136090000Y-95085000D02*
G75*
G02X136090000Y-95785000I0J-350000D01*
G01*
X135690000Y-95785000D02*
G75*
G02X135690000Y-95085000I0J350000D01*
G01*
X136090000Y-95785000D02*
X135690000Y-95785000D01*
X136090000Y-95085000D02*
X135690000Y-95085000D01*
X135890000Y-95085000D02*
X135540000Y-95435000D01*
X136240000Y-95435000D02*
X135890000Y-95085000D01*
X135889998Y-95784999D02*
X136240000Y-95435000D01*
X135540000Y-95435000D02*
X135889998Y-95784999D01*
X88294000Y-132363001D02*
X88293999Y-132813000D01*
X88743998Y-132363002D02*
X88294000Y-132363001D01*
X88743998Y-132812999D02*
X88743998Y-132363002D01*
X88293999Y-132813000D02*
X88743998Y-132812999D01*
X89564000Y-132363000D02*
X89564000Y-132813000D01*
X90014002Y-132362998D02*
X89564000Y-132363000D01*
X90014001Y-132813001D02*
X90014002Y-132362998D01*
X89564000Y-132813000D02*
X90014001Y-132813001D01*
X88294000Y-131093000D02*
X88294002Y-131542997D01*
X88743998Y-131093000D02*
X88294000Y-131093000D01*
X88744000Y-131543000D02*
X88743998Y-131093000D01*
X88294002Y-131542997D02*
X88744000Y-131543000D01*
X89564002Y-131093000D02*
X89564000Y-131543000D01*
X90014000Y-131093000D02*
X89564002Y-131093000D01*
X90013998Y-131543002D02*
X90014000Y-131093000D01*
X89564000Y-131543000D02*
X90013998Y-131543002D01*
X88294000Y-129823002D02*
X88294004Y-130272999D01*
X88744002Y-129822998D02*
X88294000Y-129823002D01*
X88744001Y-130273000D02*
X88744002Y-129822998D01*
X88294004Y-130272999D02*
X88744001Y-130273000D01*
X89563999Y-129823001D02*
X89564002Y-130272999D01*
X90014001Y-129823002D02*
X89563999Y-129823001D01*
X90014001Y-130272998D02*
X90014001Y-129823002D01*
X89564002Y-130272999D02*
X90014001Y-130272998D01*
X88293997Y-128552998D02*
X88294000Y-129003000D01*
X88743999Y-128552998D02*
X88293997Y-128552998D01*
X88744001Y-129003000D02*
X88743999Y-128552998D01*
X88294000Y-129003000D02*
X88744001Y-129003000D01*
X89564003Y-128552999D02*
X89564000Y-129003000D01*
X90014000Y-128553000D02*
X89564003Y-128552999D01*
X90014000Y-129003000D02*
X90014000Y-128553000D01*
X89564000Y-129003000D02*
X90014000Y-129003000D01*
X88294000Y-127283000D02*
X88293998Y-127733000D01*
X88744001Y-127283000D02*
X88294000Y-127283000D01*
X88744000Y-127732997D02*
X88744001Y-127283000D01*
X88293998Y-127733000D02*
X88744000Y-127732997D01*
X89564000Y-127283000D02*
X89564001Y-127733000D01*
X90014000Y-127283001D02*
X89564000Y-127283000D01*
X90014000Y-127733000D02*
X90014000Y-127283001D01*
X89564001Y-127733000D02*
X90014000Y-127733000D01*
X90231000Y-107947603D02*
X90230998Y-108396600D01*
X90680000Y-107947600D02*
X90231000Y-107947603D01*
X90680003Y-108396599D02*
X90680000Y-107947600D01*
X90230998Y-108396600D02*
X90680003Y-108396599D01*
X91129001Y-107049602D02*
X91128998Y-107498600D01*
X91578000Y-107049600D02*
X91129001Y-107049602D01*
X91578003Y-107498600D02*
X91578000Y-107049600D01*
X91128998Y-107498600D02*
X91578003Y-107498600D01*
X92027002Y-106151502D02*
X92027000Y-106600500D01*
X92476000Y-106151500D02*
X92027002Y-106151502D01*
X92476001Y-106600501D02*
X92476000Y-106151500D01*
X92027000Y-106600500D02*
X92476001Y-106600501D01*
X92925000Y-105253499D02*
X92924999Y-105702503D01*
X93373999Y-105253501D02*
X92925000Y-105253499D01*
X93374000Y-105702500D02*
X93373999Y-105253501D01*
X92924999Y-105702503D02*
X93374000Y-105702500D01*
X93823996Y-104355501D02*
X93824000Y-104804500D01*
X94272998Y-104355502D02*
X93823996Y-104355501D01*
X94273000Y-104804501D02*
X94272998Y-104355502D01*
X93824000Y-104804500D02*
X94273000Y-104804501D01*
X94722000Y-103457500D02*
X94722000Y-103906500D01*
X95170998Y-103457500D02*
X94722000Y-103457500D01*
X95171003Y-103906501D02*
X95170998Y-103457500D01*
X94722000Y-103906500D02*
X95171003Y-103906501D01*
X95620001Y-102559403D02*
X95620000Y-103008400D01*
X96069000Y-102559401D02*
X95620001Y-102559403D01*
X96069000Y-103008400D02*
X96069000Y-102559401D01*
X95620000Y-103008400D02*
X96069000Y-103008400D01*
X96518001Y-101661399D02*
X96518000Y-102110400D01*
X96967000Y-101661401D02*
X96518001Y-101661399D01*
X96966999Y-102110402D02*
X96967000Y-101661401D01*
X96518000Y-102110400D02*
X96966999Y-102110402D01*
X106201003Y-96549499D02*
X106201002Y-96998499D01*
X106650998Y-96549502D02*
X106201003Y-96549499D01*
X106651002Y-96998500D02*
X106650998Y-96549502D01*
X106201002Y-96998499D02*
X106651002Y-96998500D01*
X107471000Y-96549500D02*
X107470997Y-96998502D01*
X107921000Y-96549498D02*
X107471000Y-96549500D01*
X107921000Y-96998499D02*
X107921000Y-96549498D01*
X107470997Y-96998502D02*
X107921000Y-96998499D01*
X108741000Y-96549500D02*
X108741000Y-96998500D01*
X109191001Y-96549499D02*
X108741000Y-96549500D01*
X109191000Y-96998500D02*
X109191001Y-96549499D01*
X108741000Y-96998500D02*
X109191000Y-96998500D01*
X110010997Y-96549499D02*
X110010999Y-96998499D01*
X110461000Y-96549500D02*
X110010997Y-96549499D01*
X110461002Y-96998500D02*
X110461000Y-96549500D01*
X110010999Y-96998499D02*
X110461002Y-96998500D01*
X111281000Y-96549500D02*
X111281000Y-96998501D01*
X111730999Y-96549502D02*
X111281000Y-96549500D01*
X111731000Y-96998500D02*
X111730999Y-96549502D01*
X111281000Y-96998501D02*
X111731000Y-96998500D01*
X106201003Y-95279500D02*
X106201002Y-95728499D01*
X106651002Y-95279500D02*
X106201003Y-95279500D01*
X106650999Y-95728502D02*
X106651002Y-95279500D01*
X106201002Y-95728499D02*
X106650999Y-95728502D01*
X107471000Y-95279500D02*
X107471000Y-95728499D01*
X107920998Y-95279500D02*
X107471000Y-95279500D01*
X107921001Y-95728500D02*
X107920998Y-95279500D01*
X107471000Y-95728499D02*
X107921001Y-95728500D01*
X108741000Y-95279500D02*
X108740998Y-95728500D01*
X109191001Y-95279501D02*
X108741000Y-95279500D01*
X109191001Y-95728498D02*
X109191001Y-95279501D01*
X108740998Y-95728500D02*
X109191001Y-95728498D01*
X110011000Y-95279499D02*
X110010998Y-95728502D01*
X110461000Y-95279500D02*
X110011000Y-95279499D01*
X110461002Y-95728502D02*
X110461000Y-95279500D01*
X110010998Y-95728502D02*
X110461002Y-95728502D01*
X111281000Y-95279502D02*
X111281001Y-95728499D01*
X111731000Y-95279500D02*
X111281000Y-95279502D01*
X111730999Y-95728498D02*
X111731000Y-95279500D01*
X111281001Y-95728499D02*
X111730999Y-95728498D01*
X81025998Y-139192000D02*
X81025998Y-139573001D01*
X81216998Y-139382001D02*
X80836000Y-139381999D01*
X83121999Y-139191998D02*
X83122003Y-139572999D01*
X83312000Y-139381997D02*
X82931000Y-139381998D01*
X108711998Y-137223003D02*
X108712000Y-137604001D01*
X108902000Y-137414000D02*
X108521002Y-137414001D01*
X108712000Y-135572000D02*
X108712000Y-135953000D01*
X108902002Y-135763000D02*
X108521000Y-135763001D01*
X113029999Y-134302001D02*
X113029997Y-134682998D01*
X113221000Y-134493002D02*
X112839999Y-134493002D01*
X110236000Y-133540000D02*
X110236000Y-133920999D01*
X110426999Y-133730998D02*
X110045999Y-133730999D01*
X108394997Y-133032001D02*
X108394999Y-133413001D01*
X108585000Y-133222999D02*
X108204000Y-133223001D01*
X110046000Y-132651000D02*
X110046000Y-133032000D01*
X110236003Y-132842002D02*
X109854997Y-132842001D01*
X111824000Y-132588000D02*
X111824001Y-132969000D01*
X112014000Y-132778000D02*
X111633001Y-132778002D01*
X113411000Y-132588000D02*
X113411000Y-132969000D01*
X113602001Y-132777997D02*
X113221000Y-132778000D01*
X112014000Y-131761998D02*
X112014000Y-132143998D01*
X112205000Y-131953000D02*
X111823998Y-131953001D01*
X113410997Y-130746001D02*
X113411003Y-131127000D01*
X113601999Y-130937002D02*
X113221000Y-130937000D01*
X109092998Y-130619002D02*
X109093000Y-131000000D01*
X109283000Y-130810000D02*
X108902000Y-130810000D01*
X112864000Y-129651000D02*
X112864000Y-130032000D01*
X113055000Y-129841000D02*
X112674000Y-129841000D01*
X108076997Y-129540002D02*
X108076998Y-129920997D01*
X108268000Y-129730000D02*
X107886997Y-129730001D01*
X109092998Y-128651002D02*
X109093000Y-129032000D01*
X109282998Y-128840998D02*
X108902000Y-128841000D01*
X113009002Y-126639998D02*
X113009002Y-127020998D01*
X113199000Y-126831002D02*
X112817999Y-126831003D01*
X112179999Y-125754996D02*
X112180000Y-126136000D01*
X112370000Y-125945000D02*
X111989000Y-125945000D01*
X114491001Y-124713999D02*
X114491001Y-125095001D01*
X114680999Y-124903999D02*
X114299998Y-124904000D01*
X115125002Y-124714001D02*
X115125000Y-125095000D01*
X115316002Y-124904000D02*
X114934998Y-124904000D01*
X76454000Y-121221000D02*
X76454002Y-121602000D01*
X76644999Y-121411998D02*
X76264000Y-121412000D01*
X76454000Y-119126000D02*
X76453999Y-119507003D01*
X76645003Y-119316999D02*
X76264003Y-119317000D01*
X135255002Y-116269000D02*
X135254997Y-116650001D01*
X135445501Y-116459000D02*
X135064499Y-116459003D01*
X118618002Y-115252000D02*
X118618003Y-115633000D01*
X118808000Y-115443003D02*
X118427003Y-115443001D01*
X119125999Y-114744001D02*
X119126001Y-115125001D01*
X119316999Y-114935000D02*
X118935999Y-114934999D01*
X106299000Y-109791500D02*
X106299000Y-110172500D01*
X106490000Y-109982000D02*
X106109001Y-109982000D01*
X99124000Y-108077002D02*
X99124000Y-108458000D01*
X99314001Y-108267503D02*
X98933001Y-108267502D01*
X107823000Y-105600500D02*
X107823000Y-105981500D01*
X108014001Y-105791001D02*
X107633000Y-105790999D01*
X108331000Y-104838500D02*
X108330999Y-105219499D01*
X108521000Y-105029000D02*
X108140000Y-105029000D01*
X108966000Y-104457500D02*
X108966000Y-104838500D01*
X109157000Y-104648001D02*
X108776003Y-104647999D01*
X131572000Y-104203500D02*
X131572000Y-104584500D01*
X131762500Y-104394000D02*
X131381502Y-104393998D01*
X106172000Y-103441500D02*
X106172000Y-103822500D01*
X106363000Y-103632000D02*
X105981997Y-103632000D01*
X107695998Y-103441502D02*
X107696003Y-103822500D01*
X107887001Y-103632002D02*
X107506000Y-103631999D01*
X109601000Y-103441500D02*
X109601002Y-103822502D01*
X109791998Y-103632002D02*
X109411003Y-103632002D01*
X130556001Y-103441498D02*
X130556001Y-103822498D01*
X130746500Y-103631998D02*
X130365499Y-103631998D01*
X132587999Y-103441499D02*
X132587997Y-103822502D01*
X132778499Y-103632001D02*
X132397503Y-103632002D01*
X108839000Y-102425500D02*
X108838997Y-102806501D01*
X109030002Y-102615997D02*
X108649000Y-102616000D01*
X107061000Y-102298501D02*
X107060998Y-102679501D01*
X107252000Y-102489002D02*
X106871000Y-102489000D01*
X113538000Y-102255300D02*
X113538000Y-102636300D01*
X113729000Y-102445800D02*
X113348000Y-102445800D01*
X131572004Y-102171502D02*
X131571999Y-102552501D01*
X131762501Y-102362003D02*
X131381502Y-102362002D01*
X124967999Y-101536498D02*
X124968000Y-101917498D01*
X125158500Y-101726998D02*
X124777503Y-101726997D01*
X130302000Y-101409500D02*
X130301997Y-101790502D01*
X130492498Y-101600000D02*
X130111498Y-101600000D01*
X134746999Y-101282502D02*
X134747000Y-101663501D01*
X134937498Y-101473000D02*
X134556499Y-101473001D01*
X124460000Y-101028496D02*
X124460000Y-101409498D01*
X124650498Y-101219001D02*
X124269500Y-101218997D01*
X113537997Y-100647499D02*
X113538000Y-101028500D01*
X113729001Y-100837999D02*
X113347997Y-100838000D01*
X111767000Y-100312500D02*
X111767000Y-100693500D01*
X111957000Y-100503000D02*
X111576000Y-100503000D01*
X135890000Y-99885500D02*
X135890000Y-100266500D01*
X136080500Y-100076000D02*
X135699500Y-100076000D01*
X121158002Y-99123500D02*
X121157998Y-99504502D01*
X121348501Y-99314000D02*
X120968002Y-99314000D01*
X120650002Y-98615500D02*
X120650001Y-98996497D01*
X120841001Y-98806004D02*
X120460002Y-98806002D01*
X122428000Y-98107500D02*
X122427998Y-98488498D01*
X122618500Y-98298002D02*
X122237500Y-98298000D01*
X135889998Y-97853498D02*
X135890000Y-98234499D01*
X136080500Y-98044000D02*
X135699502Y-98044000D01*
X112400000Y-97731700D02*
X112400000Y-98112699D01*
X112591000Y-97922200D02*
X112209997Y-97922201D01*
X117729001Y-97599502D02*
X117729001Y-97980502D01*
X117919999Y-97790003D02*
X117539001Y-97790002D01*
X113919001Y-97345503D02*
X113919001Y-97726498D01*
X114110002Y-97536000D02*
X113729002Y-97535999D01*
X113029997Y-97218500D02*
X113030000Y-97599500D01*
X113221000Y-97409000D02*
X112840002Y-97408999D01*
X121792998Y-97091501D02*
X121792999Y-97472499D01*
X121983498Y-97281999D02*
X121602500Y-97282000D01*
X123189997Y-97091502D02*
X123189998Y-97472501D01*
X123380500Y-97282000D02*
X122999503Y-97282001D01*
X134747000Y-96456500D02*
X134747000Y-96837498D01*
X134937500Y-96647000D02*
X134556500Y-96647000D01*
X118490998Y-95694500D02*
X118491000Y-96075500D01*
X118682002Y-95885000D02*
X118301001Y-95885001D01*
X113774000Y-95440500D02*
X113773998Y-95821500D01*
X113965000Y-95631000D02*
X113584000Y-95631000D01*
X121348501Y-95440500D02*
X121348500Y-95821500D01*
X121539000Y-95631003D02*
X121158000Y-95631000D01*
X122682000Y-95440500D02*
X122681997Y-95821498D01*
X122872499Y-95630999D02*
X122491498Y-95631000D01*
X129286000Y-95440500D02*
X129286000Y-95821500D01*
X129476500Y-95631000D02*
X129095500Y-95630997D01*
X115061998Y-95186503D02*
X115061999Y-95567501D01*
X115253001Y-95377002D02*
X114872002Y-95377002D01*
X130048000Y-94424500D02*
X130048000Y-94805500D01*
X130238497Y-94615001D02*
X129857500Y-94615000D01*
X115315996Y-94297500D02*
X115316000Y-94678499D01*
X115506001Y-94487998D02*
X115125000Y-94487998D01*
X124841002Y-93154501D02*
X124840998Y-93535500D01*
X125031500Y-93345000D02*
X124650498Y-93345002D01*
X130302000Y-144780000D02*
G75*
G03X130302000Y-144780000I-127000J0D01*
G01*
X134746996Y-140335001D02*
G75*
G03X134746996Y-140335001I-126999J0D01*
G01*
X86487000Y-139446001D02*
G75*
G03X86487000Y-139446001I-127001J0D01*
G01*
X89027000Y-139446000D02*
G75*
G03X89027000Y-139446000I-127000J0D01*
G01*
X91566997Y-139446001D02*
G75*
G03X91566997Y-139446001I-126999J0D01*
G01*
X94107003Y-139445997D02*
G75*
G03X94107003Y-139445997I-127003J0D01*
G01*
X99187002Y-139446001D02*
G75*
G03X99187002Y-139446001I-126999J0D01*
G01*
X101727001Y-139446000D02*
G75*
G03X101727001Y-139446000I-127001J0D01*
G01*
X83941003Y-139344999D02*
G75*
G03X83941003Y-139344999I-127002J0D01*
G01*
X84969003Y-139301999D02*
G75*
G03X84969003Y-139301999I-127003J0D01*
G01*
X116332000Y-138291000D02*
G75*
G03X116332000Y-138291000I-127000J0D01*
G01*
X118110002Y-138291000D02*
G75*
G03X118110002Y-138291000I-127000J0D01*
G01*
X120015001Y-138291000D02*
G75*
G03X120015001Y-138291000I-127001J0D01*
G01*
X106299001Y-138175999D02*
G75*
G03X106299001Y-138175999I-127001J0D01*
G01*
X74295003Y-137921997D02*
G75*
G03X74295003Y-137921997I-127004J0D01*
G01*
X83941000Y-137477000D02*
G75*
G03X83941000Y-137477000I-127000J0D01*
G01*
X85025997Y-137477000D02*
G75*
G03X85025997Y-137477000I-127000J0D01*
G01*
X89016003Y-137187000D02*
G75*
G03X89016003Y-137187000I-127000J0D01*
G01*
X76327006Y-137159997D02*
G75*
G03X76327006Y-137159997I-127005J0D01*
G01*
X78866999Y-137160003D02*
G75*
G03X78866999Y-137160003I-126998J0D01*
G01*
X81406997Y-137160001D02*
G75*
G03X81406997Y-137160001I-126997J0D01*
G01*
X86487000Y-137159997D02*
G75*
G03X86487000Y-137159997I-127001J0D01*
G01*
X122174003Y-136525000D02*
G75*
G03X122174003Y-136525000I-127000J0D01*
G01*
X106744000Y-136461000D02*
G75*
G03X106744000Y-136461000I-127000J0D01*
G01*
X120522999Y-135890003D02*
G75*
G03X120522999Y-135890003I-127000J0D01*
G01*
X129413001Y-135762999D02*
G75*
G03X129413001Y-135762999I-127001J0D01*
G01*
X117729007Y-135508998D02*
G75*
G03X117729007Y-135508998I-127004J0D01*
G01*
X83940999Y-135128000D02*
G75*
G03X83940999Y-135128000I-126999J0D01*
G01*
X85025998Y-135127999D02*
G75*
G03X85025998Y-135127999I-127000J0D01*
G01*
X78866996Y-134619999D02*
G75*
G03X78866996Y-134619999I-126999J0D01*
G01*
X81407001Y-134619998D02*
G75*
G03X81407001Y-134619998I-127003J0D01*
G01*
X86486999Y-134620001D02*
G75*
G03X86486999Y-134620001I-126998J0D01*
G01*
X107188001Y-134619997D02*
G75*
G03X107188001Y-134619997I-127003J0D01*
G01*
X120396006Y-134619997D02*
G75*
G03X120396006Y-134619997I-127004J0D01*
G01*
X89016000Y-134593000D02*
G75*
G03X89016000Y-134593000I-127000J0D01*
G01*
X123574800Y-133985000D02*
G75*
G03X123574800Y-133985000I-127002J0D01*
G01*
X129413000Y-133985000D02*
G75*
G03X129413000Y-133985000I-127000J0D01*
G01*
X108198997Y-133858001D02*
G75*
G03X108198997Y-133858001I-126999J0D01*
G01*
X118109999Y-133359000D02*
G75*
G03X118109999Y-133359000I-126999J0D01*
G01*
X83941002Y-133223000D02*
G75*
G03X83941002Y-133223000I-127000J0D01*
G01*
X85025999Y-133222999D02*
G75*
G03X85025999Y-133222999I-126999J0D01*
G01*
X134747003Y-132714999D02*
G75*
G03X134747003Y-132714999I-127001J0D01*
G01*
X108102004Y-132664000D02*
G75*
G03X108102004Y-132664000I-127002J0D01*
G01*
X123574802Y-132206998D02*
G75*
G03X123574802Y-132206998I-127002J0D01*
G01*
X129412997Y-132207000D02*
G75*
G03X129412997Y-132207000I-126997J0D01*
G01*
X78867000Y-132080000D02*
G75*
G03X78867000Y-132080000I-127000J0D01*
G01*
X108190998Y-132018000D02*
G75*
G03X108190998Y-132018000I-127000J0D01*
G01*
X117982999Y-131952999D02*
G75*
G03X117982999Y-131952999I-126999J0D01*
G01*
X116727000Y-131939000D02*
G75*
G03X116727000Y-131939000I-127000J0D01*
G01*
X83941003Y-131699000D02*
G75*
G03X83941003Y-131699000I-127003J0D01*
G01*
X121666001Y-131444999D02*
G75*
G03X121666001Y-131444999I-127001J0D01*
G01*
X85026000Y-131380998D02*
G75*
G03X85026000Y-131380998I-127002J0D01*
G01*
X108204004Y-130872998D02*
G75*
G03X108204004Y-130872998I-127002J0D01*
G01*
X129413000Y-130429000D02*
G75*
G03X129413000Y-130429000I-127000J0D01*
G01*
X118236997Y-130302003D02*
G75*
G03X118236997Y-130302003I-126997J0D01*
G01*
X83941001Y-130047999D02*
G75*
G03X83941001Y-130047999I-127002J0D01*
G01*
X90932000Y-130048003D02*
G75*
G03X90932000Y-130048003I-126999J0D01*
G01*
X85216998Y-129793999D02*
G75*
G03X85216998Y-129793999I-127001J0D01*
G01*
X120396000Y-129667000D02*
G75*
G03X120396000Y-129667000I-127000J0D01*
G01*
X78867002Y-129539998D02*
G75*
G03X78867002Y-129539998I-127004J0D01*
G01*
X116712998Y-129286002D02*
G75*
G03X116712998Y-129286002I-126998J0D01*
G01*
X83439000Y-129032000D02*
G75*
G03X83439000Y-129032000I-127000J0D01*
G01*
X86375998Y-128635000D02*
G75*
G03X86375998Y-128635000I-126998J0D01*
G01*
X115261996Y-128197002D02*
G75*
G03X115261996Y-128197002I-126998J0D01*
G01*
X84299004Y-128171999D02*
G75*
G03X84299004Y-128171999I-127001J0D01*
G01*
X85285998Y-127498000D02*
G75*
G03X85285998Y-127498000I-126998J0D01*
G01*
X78867000Y-127000000D02*
G75*
G03X78867000Y-127000000I-127000J0D01*
G01*
X82296002Y-127000002D02*
G75*
G03X82296002Y-127000002I-127001J0D01*
G01*
X115824000Y-126492000D02*
G75*
G03X115824000Y-126492000I-127000J0D01*
G01*
X118871999Y-126111001D02*
G75*
G03X118871999Y-126111001I-126999J0D01*
G01*
X108077000Y-125857001D02*
G75*
G03X108077000Y-125857001I-127001J0D01*
G01*
X85089998Y-125793000D02*
G75*
G03X85089998Y-125793000I-126998J0D01*
G01*
X116991000Y-125754001D02*
G75*
G03X116991000Y-125754001I-127000J0D01*
G01*
X86868000Y-125730000D02*
G75*
G03X86868000Y-125730000I-127000J0D01*
G01*
X134747001Y-125730002D02*
G75*
G03X134747001Y-125730002I-127000J0D01*
G01*
X91034000Y-125602997D02*
G75*
G03X91034000Y-125602997I-127003J0D01*
G01*
X88583002Y-125540000D02*
G75*
G03X88583002Y-125540000I-127002J0D01*
G01*
X89090000Y-125031000D02*
G75*
G03X89090000Y-125031000I-127000J0D01*
G01*
X116966995Y-124968001D02*
G75*
G03X116966995Y-124968001I-126998J0D01*
G01*
X121811500Y-124787000D02*
G75*
G03X121811500Y-124787000I-127000J0D01*
G01*
X108914003Y-124472001D02*
G75*
G03X108914003Y-124472001I-127000J0D01*
G01*
X78866997Y-124460000D02*
G75*
G03X78866997Y-124460000I-126997J0D01*
G01*
X89789002Y-124397000D02*
G75*
G03X89789002Y-124397000I-127002J0D01*
G01*
X85534999Y-124333000D02*
G75*
G03X85534999Y-124333000I-126999J0D01*
G01*
X82296000Y-123951999D02*
G75*
G03X82296000Y-123951999I-126999J0D01*
G01*
X90424000Y-123824998D02*
G75*
G03X90424000Y-123824998I-126999J0D01*
G01*
X110871000Y-123825000D02*
G75*
G03X110871000Y-123825000I-127000J0D01*
G01*
X86487002Y-123570998D02*
G75*
G03X86487002Y-123570998I-127002J0D01*
G01*
X87439995Y-123444003D02*
G75*
G03X87439995Y-123444003I-126995J0D01*
G01*
X113029999Y-123443998D02*
G75*
G03X113029999Y-123443998I-127002J0D01*
G01*
X113791999Y-123317001D02*
G75*
G03X113791999Y-123317001I-126999J0D01*
G01*
X110362994Y-122999001D02*
G75*
G03X110362994Y-122999001I-126996J0D01*
G01*
X88074999Y-122745001D02*
G75*
G03X88074999Y-122745001I-126998J0D01*
G01*
X119507002Y-122681998D02*
G75*
G03X119507002Y-122681998I-127002J0D01*
G01*
X124333003Y-122555000D02*
G75*
G03X124333003Y-122555000I-127001J0D01*
G01*
X79883003Y-122427999D02*
G75*
G03X79883003Y-122427999I-127001J0D01*
G01*
X84708996Y-122428002D02*
G75*
G03X84708996Y-122428002I-126998J0D01*
G01*
X117475000Y-122174001D02*
G75*
G03X117475000Y-122174001I-126997J0D01*
G01*
X88773000Y-122110000D02*
G75*
G03X88773000Y-122110000I-127000J0D01*
G01*
X92544997Y-121958000D02*
G75*
G03X92544997Y-121958000I-127000J0D01*
G01*
X78891003Y-121895999D02*
G75*
G03X78891003Y-121895999I-127002J0D01*
G01*
X120586997Y-121666003D02*
G75*
G03X120586997Y-121666003I-126997J0D01*
G01*
X89408001Y-121539000D02*
G75*
G03X89408001Y-121539000I-127001J0D01*
G01*
X92135996Y-121472001D02*
G75*
G03X92135996Y-121472001I-126998J0D01*
G01*
X109474001Y-121412000D02*
G75*
G03X109474001Y-121412000I-127001J0D01*
G01*
X114299995Y-121158002D02*
G75*
G03X114299995Y-121158002I-126998J0D01*
G01*
X94487999Y-120903998D02*
G75*
G03X94487999Y-120903998I-127000J0D01*
G01*
X119243996Y-120827001D02*
G75*
G03X119243996Y-120827001I-126998J0D01*
G01*
X112776002Y-120777000D02*
G75*
G03X112776002Y-120777000I-127002J0D01*
G01*
X91059005Y-120396000D02*
G75*
G03X91059005Y-120396000I-127002J0D01*
G01*
X93602002Y-120279998D02*
G75*
G03X93602002Y-120279998I-127000J0D01*
G01*
X119347000Y-120200001D02*
G75*
G03X119347000Y-120200001I-126999J0D01*
G01*
X94601005Y-120141998D02*
G75*
G03X94601005Y-120141998I-127002J0D01*
G01*
X105283001Y-120142001D02*
G75*
G03X105283001Y-120142001I-127002J0D01*
G01*
X108181005Y-120142000D02*
G75*
G03X108181005Y-120142000I-127002J0D01*
G01*
X83248999Y-120078001D02*
G75*
G03X83248999Y-120078001I-127000J0D01*
G01*
X84519004Y-120014997D02*
G75*
G03X84519004Y-120014997I-127004J0D01*
G01*
X115633002Y-119951000D02*
G75*
G03X115633002Y-119951000I-127002J0D01*
G01*
X79883002Y-119761001D02*
G75*
G03X79883002Y-119761001I-126999J0D01*
G01*
X93726001Y-119634000D02*
G75*
G03X93726001Y-119634000I-127001J0D01*
G01*
X105791004Y-119443000D02*
G75*
G03X105791004Y-119443000I-127004J0D01*
G01*
X78867000Y-119380000D02*
G75*
G03X78867000Y-119380000I-127000J0D01*
G01*
X90170001Y-119380001D02*
G75*
G03X90170001Y-119380001I-127000J0D01*
G01*
X85154001Y-119253000D02*
G75*
G03X85154001Y-119253000I-127000J0D01*
G01*
X86043000Y-119253000D02*
G75*
G03X86043000Y-119253000I-127000J0D01*
G01*
X86931998Y-119253000D02*
G75*
G03X86931998Y-119253000I-126998J0D01*
G01*
X87693999Y-119253000D02*
G75*
G03X87693999Y-119253000I-126999J0D01*
G01*
X88391999Y-119253000D02*
G75*
G03X88391999Y-119253000I-127000J0D01*
G01*
X81471004Y-119189001D02*
G75*
G03X81471004Y-119189001I-127002J0D01*
G01*
X93445001Y-119017999D02*
G75*
G03X93445001Y-119017999I-127001J0D01*
G01*
X78295998Y-118808000D02*
G75*
G03X78295998Y-118808000I-127000J0D01*
G01*
X115586000Y-118779000D02*
G75*
G03X115586000Y-118779000I-127000J0D01*
G01*
X95758003Y-118681000D02*
G75*
G03X95758003Y-118681000I-127003J0D01*
G01*
X76772004Y-118623999D02*
G75*
G03X76772004Y-118623999I-127002J0D01*
G01*
X92582997Y-118491001D02*
G75*
G03X92582997Y-118491001I-126997J0D01*
G01*
X103744998Y-118415001D02*
G75*
G03X103744998Y-118415001I-126999J0D01*
G01*
X110235999Y-118364002D02*
G75*
G03X110235999Y-118364002I-126998J0D01*
G01*
X83820003Y-118110000D02*
G75*
G03X83820003Y-118110000I-127003J0D01*
G01*
X108838998Y-118110000D02*
G75*
G03X108838998Y-118110000I-126998J0D01*
G01*
X110871000Y-118110000D02*
G75*
G03X110871000Y-118110000I-127000J0D01*
G01*
X112141000Y-118110002D02*
G75*
G03X112141000Y-118110002I-127000J0D01*
G01*
X135381999Y-118110000D02*
G75*
G03X135381999Y-118110000I-126999J0D01*
G01*
X96265999Y-118046002D02*
G75*
G03X96265999Y-118046002I-126998J0D01*
G01*
X103133001Y-117972001D02*
G75*
G03X103133001Y-117972001I-126999J0D01*
G01*
X78270000Y-117664998D02*
G75*
G03X78270000Y-117664998I-127001J0D01*
G01*
X79883002Y-117602000D02*
G75*
G03X79883002Y-117602000I-127002J0D01*
G01*
X92075003Y-117601999D02*
G75*
G03X92075003Y-117601999I-127003J0D01*
G01*
X76771995Y-117596003D02*
G75*
G03X76771995Y-117596003I-126996J0D01*
G01*
X81153004Y-117538000D02*
G75*
G03X81153004Y-117538000I-127003J0D01*
G01*
X103251002Y-117348000D02*
G75*
G03X103251002Y-117348000I-127002J0D01*
G01*
X97104001Y-117093997D02*
G75*
G03X97104001Y-117093997I-127003J0D01*
G01*
X92710002Y-117094000D02*
G75*
G03X92710002Y-117094000I-127002J0D01*
G01*
X110870997Y-117094001D02*
G75*
G03X110870997Y-117094001I-126997J0D01*
G01*
X82359000Y-117031000D02*
G75*
G03X82359000Y-117031000I-127000J0D01*
G01*
X113030000Y-116967001D02*
G75*
G03X113030000Y-116967001I-126999J0D01*
G01*
X119634002Y-116967000D02*
G75*
G03X119634002Y-116967000I-126999J0D01*
G01*
X93442001Y-116900001D02*
G75*
G03X93442001Y-116900001I-127000J0D01*
G01*
X116391000Y-116899000D02*
G75*
G03X116391000Y-116899000I-127000J0D01*
G01*
X124333002Y-116840000D02*
G75*
G03X124333002Y-116840000I-127000J0D01*
G01*
X85154004Y-116776000D02*
G75*
G03X85154004Y-116776000I-127001J0D01*
G01*
X85979002Y-116776000D02*
G75*
G03X85979002Y-116776000I-127002J0D01*
G01*
X86868004Y-116776000D02*
G75*
G03X86868004Y-116776000I-127002J0D01*
G01*
X87694003Y-116775997D02*
G75*
G03X87694003Y-116775997I-127003J0D01*
G01*
X79883003Y-116712999D02*
G75*
G03X79883003Y-116712999I-127001J0D01*
G01*
X133223000Y-116586000D02*
G75*
G03X133223000Y-116586000I-127000J0D01*
G01*
X114088999Y-116559001D02*
G75*
G03X114088999Y-116559001I-126999J0D01*
G01*
X90288994Y-116467003D02*
G75*
G03X90288994Y-116467003I-126994J0D01*
G01*
X82867998Y-116269002D02*
G75*
G03X82867998Y-116269002I-126998J0D01*
G01*
X83883002Y-116268997D02*
G75*
G03X83883002Y-116268997I-127002J0D01*
G01*
X84645003Y-116269000D02*
G75*
G03X84645003Y-116269000I-127003J0D01*
G01*
X115442993Y-115951003D02*
G75*
G03X115442993Y-115951003I-126994J0D01*
G01*
X106172000Y-115824000D02*
G75*
G03X106172000Y-115824000I-127000J0D01*
G01*
X94107001Y-115696999D02*
G75*
G03X94107001Y-115696999I-127001J0D01*
G01*
X104775002Y-115697001D02*
G75*
G03X104775002Y-115697001I-126999J0D01*
G01*
X134112004Y-115696998D02*
G75*
G03X134112004Y-115696998I-127004J0D01*
G01*
X97384000Y-115671997D02*
G75*
G03X97384000Y-115671997I-127002J0D01*
G01*
X125095004Y-115569997D02*
G75*
G03X125095004Y-115569997I-127002J0D01*
G01*
X120293999Y-115443000D02*
G75*
G03X120293999Y-115443000I-126999J0D01*
G01*
X91185997Y-115316000D02*
G75*
G03X91185997Y-115316000I-126997J0D01*
G01*
X109093006Y-115315998D02*
G75*
G03X109093006Y-115315998I-127005J0D01*
G01*
X113157001Y-115316000D02*
G75*
G03X113157001Y-115316000I-127001J0D01*
G01*
X126365001Y-115316002D02*
G75*
G03X126365001Y-115316002I-127001J0D01*
G01*
X95122999Y-115189003D02*
G75*
G03X95122999Y-115189003I-126997J0D01*
G01*
X95884999Y-115189000D02*
G75*
G03X95884999Y-115189000I-126999J0D01*
G01*
X112521998Y-115189001D02*
G75*
G03X112521998Y-115189001I-126999J0D01*
G01*
X105058995Y-115129000D02*
G75*
G03X105058995Y-115129000I-126998J0D01*
G01*
X85090003Y-115062000D02*
G75*
G03X85090003Y-115062000I-127003J0D01*
G01*
X101084001Y-115052000D02*
G75*
G03X101084001Y-115052000I-127001J0D01*
G01*
X80518003Y-114934999D02*
G75*
G03X80518003Y-114934999I-127002J0D01*
G01*
X107162998Y-114913000D02*
G75*
G03X107162998Y-114913000I-127000J0D01*
G01*
X78821000Y-114597000D02*
G75*
G03X78821000Y-114597000I-127000J0D01*
G01*
X95884996Y-114427002D02*
G75*
G03X95884996Y-114427002I-126998J0D01*
G01*
X88518999Y-114045999D02*
G75*
G03X88518999Y-114045999I-127000J0D01*
G01*
X105029000Y-114046000D02*
G75*
G03X105029000Y-114046000I-127000J0D01*
G01*
X96139000Y-113792000D02*
G75*
G03X96139000Y-113792000I-127000J0D01*
G01*
X106235999Y-113792000D02*
G75*
G03X106235999Y-113792000I-127001J0D01*
G01*
X118236999Y-113665000D02*
G75*
G03X118236999Y-113665000I-127000J0D01*
G01*
X93091003Y-113537997D02*
G75*
G03X93091003Y-113537997I-127004J0D01*
G01*
X96774002Y-113537999D02*
G75*
G03X96774002Y-113537999I-127001J0D01*
G01*
X86613999Y-113410999D02*
G75*
G03X86613999Y-113410999I-127001J0D01*
G01*
X99390000Y-113411002D02*
G75*
G03X99390000Y-113411002I-126998J0D01*
G01*
X126365000Y-113411000D02*
G75*
G03X126365000Y-113411000I-127000J0D01*
G01*
X105663998Y-113284002D02*
G75*
G03X105663998Y-113284002I-126998J0D01*
G01*
X84836001Y-113157000D02*
G75*
G03X84836001Y-113157000I-127001J0D01*
G01*
X111176000Y-113132000D02*
G75*
G03X111176000Y-113132000I-127000J0D01*
G01*
X89199002Y-113030000D02*
G75*
G03X89199002Y-113030000I-127002J0D01*
G01*
X97155002Y-113029997D02*
G75*
G03X97155002Y-113029997I-127003J0D01*
G01*
X92586005Y-113026997D02*
G75*
G03X92586005Y-113026997I-127003J0D01*
G01*
X113157002Y-112903000D02*
G75*
G03X113157002Y-112903000I-127002J0D01*
G01*
X114172999Y-112903000D02*
G75*
G03X114172999Y-112903000I-127001J0D01*
G01*
X102488996Y-112776001D02*
G75*
G03X102488996Y-112776001I-126999J0D01*
G01*
X104393999Y-112776000D02*
G75*
G03X104393999Y-112776000I-127000J0D01*
G01*
X131317999Y-112776000D02*
G75*
G03X131317999Y-112776000I-126999J0D01*
G01*
X106565997Y-112763000D02*
G75*
G03X106565997Y-112763000I-126997J0D01*
G01*
X86486997Y-112649002D02*
G75*
G03X86486997Y-112649002I-126997J0D01*
G01*
X98709000Y-112527999D02*
G75*
G03X98709000Y-112527999I-127001J0D01*
G01*
X126746002Y-112395000D02*
G75*
G03X126746002Y-112395000I-127003J0D01*
G01*
X90170003Y-112013997D02*
G75*
G03X90170003Y-112013997I-127002J0D01*
G01*
X91567000Y-112014000D02*
G75*
G03X91567000Y-112014000I-127000J0D01*
G01*
X101345995Y-112014000D02*
G75*
G03X101345995Y-112014000I-126997J0D01*
G01*
X84581999Y-111760000D02*
G75*
G03X84581999Y-111760000I-126999J0D01*
G01*
X124206003Y-111759999D02*
G75*
G03X124206003Y-111759999I-127001J0D01*
G01*
X100532997Y-111607602D02*
G75*
G03X100532997Y-111607602I-126997J0D01*
G01*
X112140999Y-111506002D02*
G75*
G03X112140999Y-111506002I-127000J0D01*
G01*
X117856000Y-111506000D02*
G75*
G03X117856000Y-111506000I-127000J0D01*
G01*
X131318003Y-111505998D02*
G75*
G03X131318003Y-111505998I-127001J0D01*
G01*
X134492996Y-111506002D02*
G75*
G03X134492996Y-111506002I-126998J0D01*
G01*
X136398001Y-111505998D02*
G75*
G03X136398001Y-111505998I-127001J0D01*
G01*
X104013000Y-111252000D02*
G75*
G03X104013000Y-111252000I-127000J0D01*
G01*
X121411999Y-111125003D02*
G75*
G03X121411999Y-111125003I-126999J0D01*
G01*
X122936000Y-111125001D02*
G75*
G03X122936000Y-111125001I-126999J0D01*
G01*
X125476003Y-111125000D02*
G75*
G03X125476003Y-111125000I-127002J0D01*
G01*
X128651001Y-110998002D02*
G75*
G03X128651001Y-110998002I-127000J0D01*
G01*
X118049999Y-110804298D02*
G75*
G03X118049999Y-110804298I-127002J0D01*
G01*
X88391998Y-110744001D02*
G75*
G03X88391998Y-110744001I-126999J0D01*
G01*
X114427000Y-110744001D02*
G75*
G03X114427000Y-110744001I-127000J0D01*
G01*
X111760003Y-110490001D02*
G75*
G03X111760003Y-110490001I-127001J0D01*
G01*
X81660996Y-110490002D02*
G75*
G03X81660996Y-110490002I-126998J0D01*
G01*
X104926994Y-110490003D02*
G75*
G03X104926994Y-110490003I-126994J0D01*
G01*
X85597994Y-110363001D02*
G75*
G03X85597994Y-110363001I-126997J0D01*
G01*
X93852997Y-110236002D02*
G75*
G03X93852997Y-110236002I-126997J0D01*
G01*
X131318002Y-110235998D02*
G75*
G03X131318002Y-110235998I-127002J0D01*
G01*
X134493001Y-110236002D02*
G75*
G03X134493001Y-110236002I-126998J0D01*
G01*
X136397998Y-110236000D02*
G75*
G03X136397998Y-110236000I-126998J0D01*
G01*
X102108000Y-110109001D02*
G75*
G03X102108000Y-110109001I-126999J0D01*
G01*
X88518998Y-109982002D02*
G75*
G03X88518998Y-109982002I-126998J0D01*
G01*
X102996997Y-109982000D02*
G75*
G03X102996997Y-109982000I-126997J0D01*
G01*
X104520998Y-109982000D02*
G75*
G03X104520998Y-109982000I-127000J0D01*
G01*
X108204001Y-109981998D02*
G75*
G03X108204001Y-109981998I-127001J0D01*
G01*
X109854999Y-109982000D02*
G75*
G03X109854999Y-109982000I-126999J0D01*
G01*
X97853998Y-109918500D02*
G75*
G03X97853998Y-109918500I-126998J0D01*
G01*
X94869004Y-109474000D02*
G75*
G03X94869004Y-109474000I-127003J0D01*
G01*
X97155001Y-109474000D02*
G75*
G03X97155001Y-109474000I-127001J0D01*
G01*
X120142004Y-109473997D02*
G75*
G03X120142004Y-109473997I-127003J0D01*
G01*
X88392000Y-109347000D02*
G75*
G03X88392000Y-109347000I-127000J0D01*
G01*
X104902002Y-109346999D02*
G75*
G03X104902002Y-109346999I-127001J0D01*
G01*
X115951000Y-109220000D02*
G75*
G03X115951000Y-109220000I-127000J0D01*
G01*
X102870000Y-109093000D02*
G75*
G03X102870000Y-109093000I-127000J0D01*
G01*
X131318000Y-108966002D02*
G75*
G03X131318000Y-108966002I-126998J0D01*
G01*
X93993999Y-108945402D02*
G75*
G03X93993999Y-108945402I-126998J0D01*
G01*
X92836998Y-108839002D02*
G75*
G03X92836998Y-108839002I-126996J0D01*
G01*
X95593004Y-108838298D02*
G75*
G03X95593004Y-108838298I-127003J0D01*
G01*
X91693998Y-108585001D02*
G75*
G03X91693998Y-108585001I-126999J0D01*
G01*
X104012999Y-108458002D02*
G75*
G03X104012999Y-108458002I-126998J0D01*
G01*
X97136002Y-108223200D02*
G75*
G03X97136002Y-108223200I-127002J0D01*
G01*
X95376997Y-108204003D02*
G75*
G03X95376997Y-108204003I-126997J0D01*
G01*
X119887998Y-108077003D02*
G75*
G03X119887998Y-108077003I-126998J0D01*
G01*
X117220999Y-107949999D02*
G75*
G03X117220999Y-107949999I-126998J0D01*
G01*
X118110001Y-107949997D02*
G75*
G03X118110001Y-107949997I-127003J0D01*
G01*
X84708997Y-107823002D02*
G75*
G03X84708997Y-107823002I-126995J0D01*
G01*
X101346002Y-107696001D02*
G75*
G03X101346002Y-107696001I-127001J0D01*
G01*
X102235003Y-107696000D02*
G75*
G03X102235003Y-107696000I-127000J0D01*
G01*
X88391997Y-107569000D02*
G75*
G03X88391997Y-107569000I-126997J0D01*
G01*
X89535000Y-107442000D02*
G75*
G03X89535000Y-107442000I-127000J0D01*
G01*
X86868000Y-107315002D02*
G75*
G03X86868000Y-107315002I-126999J0D01*
G01*
X78867000Y-107188000D02*
G75*
G03X78867000Y-107188000I-127000J0D01*
G01*
X97433000Y-106656200D02*
G75*
G03X97433000Y-106656200I-127000J0D01*
G01*
X105918003Y-106426000D02*
G75*
G03X105918003Y-106426000I-127000J0D01*
G01*
X82676995Y-105308402D02*
G75*
G03X82676995Y-105308402I-126995J0D01*
G01*
X88646002Y-105282998D02*
G75*
G03X88646002Y-105282998I-127000J0D01*
G01*
X85446000Y-105156000D02*
G75*
G03X85446000Y-105156000I-127000J0D01*
G01*
X90677998Y-104267002D02*
G75*
G03X90677998Y-104267002I-126998J0D01*
G01*
X83058003Y-104139997D02*
G75*
G03X83058003Y-104139997I-127004J0D01*
G01*
X83820001Y-104140000D02*
G75*
G03X83820001Y-104140000I-127001J0D01*
G01*
X84582001Y-104140000D02*
G75*
G03X84582001Y-104140000I-127001J0D01*
G01*
X86106001Y-104140000D02*
G75*
G03X86106001Y-104140000I-127001J0D01*
G01*
X86867996Y-104140000D02*
G75*
G03X86867996Y-104140000I-126999J0D01*
G01*
X110997998Y-103886000D02*
G75*
G03X110997998Y-103886000I-126998J0D01*
G01*
X113664995Y-103886001D02*
G75*
G03X113664995Y-103886001I-126997J0D01*
G01*
X115569997Y-103886003D02*
G75*
G03X115569997Y-103886003I-126996J0D01*
G01*
X117728998Y-103886000D02*
G75*
G03X117728998Y-103886000I-126999J0D01*
G01*
X119888001Y-103885997D02*
G75*
G03X119888001Y-103885997I-127001J0D01*
G01*
X83047000Y-103369600D02*
G75*
G03X83047000Y-103369600I-127000J0D01*
G01*
X90796000Y-103133300D02*
G75*
G03X90796000Y-103133300I-127000J0D01*
G01*
X91566999Y-103124000D02*
G75*
G03X91566999Y-103124000I-127000J0D01*
G01*
X83312000Y-102743001D02*
G75*
G03X83312000Y-102743001I-126999J0D01*
G01*
X121793003Y-102742999D02*
G75*
G03X121793003Y-102742999I-127002J0D01*
G01*
X111251996Y-102489000D02*
G75*
G03X111251996Y-102489000I-126996J0D01*
G01*
X116712999Y-102489000D02*
G75*
G03X116712999Y-102489000I-126999J0D01*
G01*
X118110001Y-102489000D02*
G75*
G03X118110001Y-102489000I-127001J0D01*
G01*
X120079001Y-102489000D02*
G75*
G03X120079001Y-102489000I-127001J0D01*
G01*
X78105000Y-102108000D02*
G75*
G03X78105000Y-102108000I-127000J0D01*
G01*
X109982000Y-101218999D02*
G75*
G03X109982000Y-101218999I-127001J0D01*
G01*
X101727000Y-101112300D02*
G75*
G03X101727000Y-101112300I-127000J0D01*
G01*
X103758998Y-101112301D02*
G75*
G03X103758998Y-101112301I-126999J0D01*
G01*
X105537006Y-101112299D02*
G75*
G03X105537006Y-101112299I-127004J0D01*
G01*
X106934000Y-101112300D02*
G75*
G03X106934000Y-101112300I-127000J0D01*
G01*
X123443998Y-101092002D02*
G75*
G03X123443998Y-101092002I-126997J0D01*
G01*
X121793003Y-100710998D02*
G75*
G03X121793003Y-100710998I-127002J0D01*
G01*
X85979000Y-100457000D02*
G75*
G03X85979000Y-100457000I-127000J0D01*
G01*
X127634996Y-100349101D02*
G75*
G03X127634996Y-100349101I-126997J0D01*
G01*
X125348994Y-100330002D02*
G75*
G03X125348994Y-100330002I-126996J0D01*
G01*
X108712000Y-99949000D02*
G75*
G03X108712000Y-99949000I-127000J0D01*
G01*
X81407003Y-99822002D02*
G75*
G03X81407003Y-99822002I-127001J0D01*
G01*
X101218998Y-99796600D02*
G75*
G03X101218998Y-99796600I-127000J0D01*
G01*
X104013004Y-99796600D02*
G75*
G03X104013004Y-99796600I-127002J0D01*
G01*
X106933996Y-99796601D02*
G75*
G03X106933996Y-99796601I-126998J0D01*
G01*
X110856001Y-99695000D02*
G75*
G03X110856001Y-99695000I-127001J0D01*
G01*
X90678005Y-99314000D02*
G75*
G03X90678005Y-99314000I-127003J0D01*
G01*
X108204005Y-99186997D02*
G75*
G03X108204005Y-99186997I-127006J0D01*
G01*
X100711006Y-99186997D02*
G75*
G03X100711006Y-99186997I-127006J0D01*
G01*
X101727002Y-99186998D02*
G75*
G03X101727002Y-99186998I-127002J0D01*
G01*
X97154998Y-99060000D02*
G75*
G03X97154998Y-99060000I-127000J0D01*
G01*
X89662000Y-98933000D02*
G75*
G03X89662000Y-98933000I-127000J0D01*
G01*
X123698001Y-98805998D02*
G75*
G03X123698001Y-98805998I-127001J0D01*
G01*
X126492000Y-98806000D02*
G75*
G03X126492000Y-98806000I-127000J0D01*
G01*
X128524005Y-98805997D02*
G75*
G03X128524005Y-98805997I-127003J0D01*
G01*
X102743000Y-98679000D02*
G75*
G03X102743000Y-98679000I-127000J0D01*
G01*
X96558000Y-98552000D02*
G75*
G03X96558000Y-98552000I-127000J0D01*
G01*
X99187003Y-98516300D02*
G75*
G03X99187003Y-98516300I-127003J0D01*
G01*
X98170999Y-98425002D02*
G75*
G03X98170999Y-98425002I-126998J0D01*
G01*
X81407002Y-98297999D02*
G75*
G03X81407002Y-98297999I-127001J0D01*
G01*
X88646003Y-98297999D02*
G75*
G03X88646003Y-98297999I-127002J0D01*
G01*
X104013005Y-98170998D02*
G75*
G03X104013005Y-98170998I-127002J0D01*
G01*
X109728005Y-98170998D02*
G75*
G03X109728005Y-98170998I-127002J0D01*
G01*
X82550003Y-97815398D02*
G75*
G03X82550003Y-97815398I-127003J0D01*
G01*
X131571997Y-97790002D02*
G75*
G03X131571997Y-97790002I-126998J0D01*
G01*
X81915003Y-97662996D02*
G75*
G03X81915003Y-97662996I-127004J0D01*
G01*
X100964999Y-97536002D02*
G75*
G03X100964999Y-97536002I-127000J0D01*
G01*
X126110997Y-97536003D02*
G75*
G03X126110997Y-97536003I-126997J0D01*
G01*
X104267006Y-97408998D02*
G75*
G03X104267006Y-97408998I-127004J0D01*
G01*
X96329002Y-97359998D02*
G75*
G03X96329002Y-97359998I-127002J0D01*
G01*
X92701999Y-97273000D02*
G75*
G03X92701999Y-97273000I-126998J0D01*
G01*
X80899001Y-97155001D02*
G75*
G03X80899001Y-97155001I-127000J0D01*
G01*
X87629999Y-96774003D02*
G75*
G03X87629999Y-96774003I-126997J0D01*
G01*
X125475996Y-96774001D02*
G75*
G03X125475996Y-96774001I-126999J0D01*
G01*
X76834998Y-96647000D02*
G75*
G03X76834998Y-96647000I-126998J0D01*
G01*
X93266001Y-96240600D02*
G75*
G03X93266001Y-96240600I-127003J0D01*
G01*
X80924003Y-96011998D02*
G75*
G03X80924003Y-96011998I-127002J0D01*
G01*
X82549999Y-95885000D02*
G75*
G03X82549999Y-95885000I-127000J0D01*
G01*
X99949006Y-95884997D02*
G75*
G03X99949006Y-95884997I-127006J0D01*
G01*
X99059999Y-95758002D02*
G75*
G03X99059999Y-95758002I-126998J0D01*
G01*
X124206000Y-95757997D02*
G75*
G03X124206000Y-95757997I-127001J0D01*
G01*
X90198995Y-95533102D02*
G75*
G03X90198995Y-95533102I-126996J0D01*
G01*
X85823001Y-95348198D02*
G75*
G03X85823001Y-95348198I-127002J0D01*
G01*
X101218996Y-95123000D02*
G75*
G03X101218996Y-95123000I-126997J0D01*
G01*
X132207000Y-94742000D02*
G75*
G03X132207000Y-94742000I-127000J0D01*
G01*
X82549998Y-94615002D02*
G75*
G03X82549998Y-94615002I-126998J0D01*
G01*
X122173999Y-94535500D02*
G75*
G03X122173999Y-94535500I-126999J0D01*
G01*
X114324004Y-94511799D02*
G75*
G03X114324004Y-94511799I-127002J0D01*
G01*
X86360001Y-94487999D02*
G75*
G03X86360001Y-94487999I-127000J0D01*
G01*
X84264000Y-94424500D02*
G75*
G03X84264000Y-94424500I-127000J0D01*
G01*
X104266996Y-94361000D02*
G75*
G03X104266996Y-94361000I-126999J0D01*
G01*
X87756997Y-94234000D02*
G75*
G03X87756997Y-94234000I-126999J0D01*
G01*
X123444003Y-94234001D02*
G75*
G03X123444003Y-94234001I-127001J0D01*
G01*
X89534999Y-94107000D02*
G75*
G03X89534999Y-94107000I-127000J0D01*
G01*
X76835005Y-93980000D02*
G75*
G03X76835005Y-93980000I-127004J0D01*
G01*
X79629003Y-93217998D02*
G75*
G03X79629003Y-93217998I-127003J0D01*
G01*
X80414999Y-93114800D02*
G75*
G03X80414999Y-93114800I-127000J0D01*
G01*
X114172998Y-92964000D02*
G75*
G03X114172998Y-92964000I-126998J0D01*
G01*
X118998999Y-92710000D02*
G75*
G03X118998999Y-92710000I-126999J0D01*
G01*
X112649000Y-92456000D02*
G75*
G03X112649000Y-92456000I-127000J0D01*
G01*
X115189000Y-92456000D02*
G75*
G03X115189000Y-92456000I-127000J0D01*
G01*
X117729002Y-92456000D02*
G75*
G03X117729002Y-92456000I-127002J0D01*
G01*
X120649997Y-92456002D02*
G75*
G03X120649997Y-92456002I-126998J0D01*
G01*
X107568998Y-92455999D02*
G75*
G03X107568998Y-92455999I-127000J0D01*
G01*
X102107998Y-92202000D02*
G75*
G03X102107998Y-92202000I-126998J0D01*
G01*
X104013000Y-92202000D02*
G75*
G03X104013000Y-92202000I-127000J0D01*
G01*
X76961998Y-90170002D02*
G75*
G03X76961998Y-90170002I-127000J0D01*
G01*
X87757003Y-90169999D02*
G75*
G03X87757003Y-90169999I-127002J0D01*
G01*
X106172003Y-90169999D02*
G75*
G03X106172003Y-90169999I-127003J0D01*
G01*
X118237000Y-90170000D02*
G75*
G03X118237000Y-90170000I-127000J0D01*
G01*
X102997002Y-89916000D02*
G75*
G03X102997002Y-89916000I-127002J0D01*
G01*
X120497998Y-146660001D02*
X120294000Y-146456000D01*
X120498000Y-146456000D02*
X120293999Y-146660001D01*
X118974000Y-145136000D02*
X118770002Y-144931998D01*
X118973999Y-144931999D02*
X118769999Y-145135999D01*
X117449998Y-143612002D02*
X117246002Y-143407997D01*
X117450002Y-143408002D02*
X117245999Y-143612001D01*
X116180001Y-142341997D02*
X115976000Y-142138000D01*
X116180000Y-142138000D02*
X115975998Y-142342002D01*
X114910001Y-141071999D02*
X114706002Y-140868001D01*
X114910000Y-140868000D02*
X114706002Y-141072000D01*
X113640000Y-139801999D02*
X113436000Y-139598000D01*
X113640001Y-139597999D02*
X113436001Y-139802000D01*
X104242000Y-139637002D02*
X104038001Y-139433001D01*
X104242000Y-139433000D02*
X104037998Y-139637000D01*
X106782000Y-139637000D02*
X106578000Y-139432998D01*
X106782000Y-139432998D02*
X106578000Y-139637000D01*
X69444000Y-139548000D02*
X69240000Y-139344000D01*
X69443999Y-139343999D02*
X69240000Y-139548000D01*
X71222000Y-139548000D02*
X71017998Y-139343999D01*
X71222000Y-139344000D02*
X71018002Y-139547997D01*
X73762000Y-139548000D02*
X73557999Y-139343999D01*
X73762000Y-139344000D02*
X73557997Y-139548000D01*
X76302000Y-139548000D02*
X76098000Y-139344000D01*
X76302000Y-139344000D02*
X76098000Y-139548000D01*
X78842000Y-139548000D02*
X78638001Y-139344000D01*
X78842000Y-139344000D02*
X78637998Y-139547998D01*
X96621999Y-139547998D02*
X96418000Y-139344000D01*
X96622001Y-139343999D02*
X96418000Y-139548000D01*
X109322000Y-139548000D02*
X109118001Y-139343999D01*
X109321998Y-139344000D02*
X109117998Y-139548002D01*
X111608000Y-139548000D02*
X111404001Y-139343999D01*
X111607997Y-139343999D02*
X111404000Y-139547998D01*
X93129002Y-138659000D02*
X92925999Y-138455002D01*
X93129002Y-138455001D02*
X92926001Y-138658998D01*
X69443999Y-138531999D02*
X69240001Y-138328000D01*
X69444000Y-138327998D02*
X69240001Y-138532001D01*
X70968000Y-138532000D02*
X70764000Y-138328001D01*
X70968001Y-138328000D02*
X70763998Y-138532001D01*
X102591000Y-138278000D02*
X102387000Y-138074000D01*
X102591000Y-138074002D02*
X102387002Y-138278002D01*
X98908002Y-138214000D02*
X98704000Y-138011000D01*
X98908000Y-138011002D02*
X98704000Y-138213999D01*
X92050000Y-138087000D02*
X91845997Y-137884002D01*
X92050000Y-137884000D02*
X91846000Y-138087000D01*
X95288000Y-138087000D02*
X95085000Y-137884000D01*
X95288000Y-137884000D02*
X95085000Y-138086998D01*
X98336002Y-138086997D02*
X98133001Y-137883999D01*
X98336000Y-137884000D02*
X98132999Y-138086998D01*
X100875998Y-138087002D02*
X100673001Y-137884002D01*
X100876003Y-137884000D02*
X100672999Y-138087002D01*
X99961998Y-138050998D02*
X99758002Y-137848000D01*
X99962002Y-137847997D02*
X99758002Y-138051002D01*
X103162001Y-137769999D02*
X102959000Y-137566002D01*
X103162001Y-137566002D02*
X102959002Y-137770001D01*
X104750003Y-137770000D02*
X104546000Y-137566000D01*
X104750000Y-137566000D02*
X104546003Y-137769998D01*
X72238000Y-137516000D02*
X72034000Y-137312000D01*
X72238000Y-137312000D02*
X72034000Y-137516000D01*
X94004999Y-136896002D02*
X93802000Y-136693000D01*
X94005000Y-136693000D02*
X93802000Y-136896000D01*
X97955002Y-136881000D02*
X97751999Y-136677003D01*
X97954999Y-136677000D02*
X97752000Y-136881004D01*
X98781000Y-136881000D02*
X98577000Y-136677000D01*
X98781000Y-136677000D02*
X98577000Y-136881000D01*
X101130000Y-136881000D02*
X100927000Y-136677000D01*
X101130003Y-136676999D02*
X100926999Y-136881002D01*
X94719000Y-136878000D02*
X94516002Y-136674999D01*
X94719000Y-136675000D02*
X94516000Y-136878000D01*
X95606002Y-136817001D02*
X95401998Y-136613999D01*
X95605998Y-136613998D02*
X95402000Y-136817002D01*
X100304999Y-136817001D02*
X100101000Y-136614000D01*
X100305000Y-136614000D02*
X100101000Y-136817001D01*
X73507998Y-136627000D02*
X73304000Y-136423000D01*
X73508003Y-136422999D02*
X73303998Y-136627000D01*
X91669000Y-136119000D02*
X91465003Y-135915000D01*
X91669000Y-135915000D02*
X91464998Y-136119002D01*
X98717001Y-136119003D02*
X98514000Y-135915000D01*
X98717001Y-135915000D02*
X98514002Y-136119001D01*
X103584998Y-136078000D02*
X103382001Y-135874000D01*
X103584997Y-135874000D02*
X103382001Y-136078000D01*
X97179000Y-136071999D02*
X96975999Y-135869001D01*
X97178998Y-135869000D02*
X96975997Y-136072001D01*
X74905000Y-135738000D02*
X74700997Y-135533999D01*
X74905001Y-135534000D02*
X74700997Y-135737999D01*
X94843998Y-135279999D02*
X94639997Y-135077001D01*
X94844000Y-135077000D02*
X94639998Y-135279998D01*
X98450000Y-135230000D02*
X98246997Y-135026002D01*
X98450000Y-135026000D02*
X98247000Y-135230000D01*
X103750001Y-135187000D02*
X103547002Y-134982999D01*
X103750000Y-134983000D02*
X103546998Y-135187002D01*
X104818000Y-135095001D02*
X104615000Y-134891000D01*
X104817999Y-134891001D02*
X104615000Y-135094999D01*
X116322000Y-135042000D02*
X116118002Y-134837998D01*
X116322000Y-134837997D02*
X116117997Y-135041999D01*
X103227000Y-134977000D02*
X103024000Y-134774000D01*
X103227002Y-134774000D02*
X103023999Y-134977001D01*
X101154000Y-134925000D02*
X100951000Y-134721001D01*
X101154000Y-134721000D02*
X100951000Y-134925000D01*
X91669000Y-134657999D02*
X91465000Y-134455000D01*
X91669000Y-134455000D02*
X91465001Y-134657998D01*
X94336003Y-134645002D02*
X94131999Y-134441998D01*
X94336002Y-134442000D02*
X94131998Y-134644998D01*
X76555999Y-134595002D02*
X76352001Y-134391001D01*
X76556000Y-134391000D02*
X76352003Y-134594999D01*
X99416000Y-134595000D02*
X99212000Y-134390998D01*
X99415999Y-134390997D02*
X99212000Y-134595000D01*
X102018999Y-134595002D02*
X101815999Y-134390999D01*
X102019001Y-134391000D02*
X101816000Y-134595004D01*
X115501999Y-134486999D02*
X115297999Y-134282998D01*
X115502000Y-134283000D02*
X115298003Y-134486998D01*
X102671998Y-134382999D02*
X102468998Y-134179000D01*
X102672000Y-134179000D02*
X102468999Y-134383001D01*
X101168000Y-134366000D02*
X100964998Y-134162999D01*
X101168000Y-134163000D02*
X100965000Y-134366000D01*
X106273998Y-134213999D02*
X106070000Y-134010000D01*
X106274000Y-134009998D02*
X106069999Y-134213998D01*
X105269003Y-134034999D02*
X105066003Y-133832000D01*
X105269000Y-133832000D02*
X105066000Y-134034999D01*
X96875999Y-133960000D02*
X96672000Y-133756000D01*
X96876001Y-133755998D02*
X96671999Y-133960000D01*
X103988001Y-133833000D02*
X103784002Y-133628999D01*
X103988000Y-133629002D02*
X103783999Y-133832998D01*
X92977001Y-133514999D02*
X92772998Y-133312002D01*
X92976999Y-133311999D02*
X92772999Y-133515000D01*
X116302001Y-133512000D02*
X116097998Y-133308002D01*
X116302000Y-133308000D02*
X116098000Y-133512003D01*
X94399001Y-133388000D02*
X94196001Y-133185002D01*
X94399000Y-133185000D02*
X94196000Y-133388001D01*
X115577000Y-133227000D02*
X115373002Y-133023001D01*
X115577000Y-133023000D02*
X115373000Y-133227000D01*
X103161997Y-133071000D02*
X102959000Y-132867000D01*
X103162000Y-132867000D02*
X102959000Y-133071000D01*
X95250001Y-133044998D02*
X95047000Y-132842000D01*
X95250000Y-132842000D02*
X95047001Y-133045000D01*
X98336000Y-132944000D02*
X98132998Y-132740000D01*
X98336000Y-132740000D02*
X98133000Y-132944000D01*
X93992999Y-132942999D02*
X93788998Y-132740002D01*
X93993000Y-132740000D02*
X93788998Y-132942999D01*
X76555998Y-132181998D02*
X76351997Y-131978000D01*
X76556002Y-131977998D02*
X76351998Y-132181998D01*
X91796000Y-132182000D02*
X91592001Y-131977999D01*
X91796003Y-131978001D02*
X91591999Y-132182003D01*
X97130000Y-132131000D02*
X96925999Y-131928000D01*
X97129999Y-131927998D02*
X96926002Y-132131001D01*
X97957998Y-132114998D02*
X97754998Y-131912002D01*
X97957998Y-131912001D02*
X97755000Y-132115000D01*
X99593003Y-132108000D02*
X99390002Y-131904998D01*
X99593001Y-131905003D02*
X99390000Y-132108002D01*
X93929000Y-132087000D02*
X93725000Y-131883000D01*
X93929000Y-131883000D02*
X93725000Y-132086997D01*
X92941999Y-132073997D02*
X92739003Y-131870999D01*
X92941998Y-131871000D02*
X92738997Y-132073999D01*
X98770998Y-132064000D02*
X98568000Y-131861002D01*
X98771000Y-131861000D02*
X98568003Y-132064000D01*
X96291000Y-131978000D02*
X96088000Y-131775001D01*
X96291000Y-131775000D02*
X96088002Y-131977997D01*
X99592998Y-131356001D02*
X99390002Y-131153001D01*
X99593000Y-131153000D02*
X99390002Y-131356002D01*
X100431999Y-131356002D02*
X100228000Y-131153000D01*
X100432000Y-131153002D02*
X100227998Y-131356000D01*
X98762002Y-131320001D02*
X98558001Y-131116001D01*
X98762000Y-131116003D02*
X98558000Y-131319998D01*
X96367999Y-131293000D02*
X96163999Y-131089002D01*
X96368001Y-131089004D02*
X96164000Y-131293000D01*
X104685999Y-130847998D02*
X104483001Y-130645001D01*
X104686000Y-130645000D02*
X104483001Y-130847997D01*
X109957003Y-130785003D02*
X109753001Y-130581003D01*
X109957003Y-130581001D02*
X109753000Y-130785000D01*
X111925000Y-130785001D02*
X111722000Y-130581000D01*
X111925000Y-130581003D02*
X111722000Y-130785000D01*
X86571999Y-130531999D02*
X86368000Y-130328000D01*
X86572000Y-130328001D02*
X86367998Y-130532000D01*
X104239997Y-130453002D02*
X104037002Y-130249002D01*
X104240000Y-130249000D02*
X104037003Y-130453001D01*
X93413000Y-130412002D02*
X93209998Y-130207999D01*
X93412999Y-130207999D02*
X93209998Y-130412000D01*
X102375001Y-130340000D02*
X102171000Y-130137000D01*
X102375000Y-130137000D02*
X102171000Y-130340002D01*
X94844001Y-130277000D02*
X94640003Y-130073000D01*
X94843998Y-130073001D02*
X94640003Y-130277001D01*
X96970000Y-130258000D02*
X96766997Y-130055000D01*
X96969999Y-130055002D02*
X96766999Y-130258001D01*
X98081998Y-130086002D02*
X97879000Y-129883000D01*
X98082003Y-129883001D02*
X97878998Y-130085998D01*
X95479003Y-130082998D02*
X95275000Y-129880000D01*
X95479000Y-129880000D02*
X95274998Y-130083002D01*
X110084003Y-129832001D02*
X109880001Y-129629000D01*
X110083997Y-129629001D02*
X109880000Y-129831998D01*
X76556000Y-129642001D02*
X76352000Y-129438000D01*
X76556002Y-129438002D02*
X76352000Y-129642000D01*
X101122000Y-129250000D02*
X100919001Y-129047000D01*
X101122000Y-129047000D02*
X100919000Y-129250000D01*
X115261999Y-129032003D02*
X115057997Y-128827999D01*
X115262002Y-128827998D02*
X115057999Y-129032000D01*
X94272000Y-128689000D02*
X94068998Y-128485998D01*
X94271999Y-128486000D02*
X94069000Y-128689000D01*
X109801999Y-128257003D02*
X109598003Y-128053002D01*
X109802000Y-128053000D02*
X109598000Y-128257003D01*
X96723000Y-128245000D02*
X96519998Y-128041003D01*
X96723001Y-128041003D02*
X96520003Y-128245000D01*
X102273001Y-128118003D02*
X102070000Y-127914000D01*
X102273000Y-127914000D02*
X102069999Y-128118000D01*
X95314000Y-128116000D02*
X95110000Y-127912997D01*
X95314000Y-127913002D02*
X95109999Y-128116000D01*
X108152002Y-128017000D02*
X107948000Y-127813000D01*
X108152002Y-127812997D02*
X107948000Y-128017000D01*
X111481000Y-127991000D02*
X111277000Y-127787000D01*
X111481000Y-127787000D02*
X111277000Y-127991000D01*
X116747000Y-127947000D02*
X116543002Y-127743001D01*
X116746998Y-127742998D02*
X116543000Y-127947002D01*
X92431000Y-127673000D02*
X92227000Y-127470000D01*
X92431000Y-127470000D02*
X92226999Y-127673001D01*
X109011998Y-127571999D02*
X108808000Y-127368000D01*
X109012000Y-127368000D02*
X108808003Y-127571998D01*
X116642001Y-127181999D02*
X116438002Y-126978000D01*
X116641997Y-126977999D02*
X116437999Y-127182003D01*
X95296002Y-127109000D02*
X95092000Y-126906000D01*
X95296002Y-126905998D02*
X95091997Y-127108999D01*
X76556000Y-127102003D02*
X76351999Y-126898001D01*
X76555999Y-126898000D02*
X76351998Y-127102002D01*
X96913000Y-127017000D02*
X96710001Y-126814002D01*
X96913000Y-126814000D02*
X96710000Y-127017000D01*
X98603000Y-126873002D02*
X98399998Y-126669999D01*
X98603003Y-126669999D02*
X98400000Y-126873000D01*
X108131999Y-126836997D02*
X107928001Y-126632998D01*
X108131997Y-126633001D02*
X107928001Y-126837000D01*
X97155002Y-126507999D02*
X96951998Y-126305002D01*
X97155000Y-126305000D02*
X96951998Y-126508001D01*
X94361000Y-126149000D02*
X94158001Y-125945998D01*
X94361000Y-125946000D02*
X94158000Y-126149002D01*
X93256000Y-126086000D02*
X93053000Y-125882000D01*
X93256000Y-125882000D02*
X93052998Y-126086001D01*
X98577003Y-126022000D02*
X98374000Y-125819000D01*
X98577000Y-125819002D02*
X98374000Y-126022000D01*
X96936001Y-125951999D02*
X96733000Y-125749000D01*
X96936000Y-125749002D02*
X96733000Y-125951998D01*
X100184001Y-125730001D02*
X99981000Y-125527000D01*
X100184000Y-125527002D02*
X99981001Y-125729997D01*
X101016000Y-125654000D02*
X100813001Y-125451002D01*
X101016000Y-125451000D02*
X100813000Y-125654000D01*
X109787000Y-125592000D02*
X109583002Y-125388001D01*
X109787001Y-125388001D02*
X109583002Y-125592001D01*
X98144000Y-125579000D02*
X97941003Y-125375999D01*
X98144001Y-125376000D02*
X97941003Y-125579001D01*
X110651998Y-125562003D02*
X110448002Y-125358000D01*
X110652000Y-125357997D02*
X110447998Y-125561999D01*
X111697000Y-125562000D02*
X111493000Y-125358000D01*
X111697002Y-125358002D02*
X111493002Y-125561998D01*
X97447001Y-125513999D02*
X97243997Y-125311000D01*
X97447001Y-125311002D02*
X97244000Y-125514000D01*
X104242000Y-125387000D02*
X104037999Y-125184001D01*
X104242003Y-125184000D02*
X104038000Y-125387000D01*
X96076000Y-125385001D02*
X95872999Y-125181998D01*
X96076000Y-125181999D02*
X95872998Y-125385000D01*
X92047001Y-125271998D02*
X91843000Y-125068000D01*
X92047003Y-125068003D02*
X91843000Y-125272000D01*
X95543002Y-125208000D02*
X95339998Y-125005000D01*
X95543000Y-125005000D02*
X95340001Y-125208002D01*
X92437000Y-124862000D02*
X92232999Y-124658001D01*
X92437000Y-124658000D02*
X92232999Y-124861999D01*
X102399998Y-124854000D02*
X102197000Y-124650000D01*
X102400000Y-124649998D02*
X102196999Y-124853999D01*
X101003000Y-124823999D02*
X100799998Y-124620998D01*
X101002998Y-124620999D02*
X100799999Y-124824000D01*
X76555997Y-124561998D02*
X76352000Y-124358000D01*
X76555997Y-124358001D02*
X76352000Y-124562000D01*
X97841000Y-124562000D02*
X97638000Y-124358000D01*
X97841000Y-124358000D02*
X97638000Y-124562000D01*
X101460002Y-124503000D02*
X101257000Y-124300000D01*
X101460000Y-124300000D02*
X101257000Y-124502999D01*
X106052000Y-124434000D02*
X105848999Y-124231000D01*
X106052001Y-124230998D02*
X105849000Y-124434001D01*
X103479998Y-124282000D02*
X103275998Y-124079002D01*
X103480001Y-124079000D02*
X103276000Y-124282000D01*
X100838001Y-124273998D02*
X100634999Y-124070999D01*
X100838000Y-124071000D02*
X100635000Y-124274000D01*
X101956000Y-124054000D02*
X101752000Y-123850000D01*
X101956000Y-123850000D02*
X101752001Y-124053999D01*
X101582002Y-123638001D02*
X101378999Y-123434001D01*
X101582003Y-123434000D02*
X101379000Y-123638000D01*
X97752000Y-123593002D02*
X97548998Y-123390000D01*
X97751998Y-123390001D02*
X97548997Y-123593002D01*
X96808001Y-123549000D02*
X96604002Y-123345001D01*
X96808000Y-123345000D02*
X96604000Y-123548998D01*
X98823001Y-123473002D02*
X98620000Y-123270001D01*
X98823000Y-123270000D02*
X98620000Y-123472998D01*
X103962000Y-123403000D02*
X103758998Y-123199002D01*
X103962000Y-123199001D02*
X103759002Y-123403000D01*
X91415000Y-123101000D02*
X91211001Y-122898002D01*
X91415002Y-122897997D02*
X91210999Y-123100998D01*
X97952003Y-123012003D02*
X97747999Y-122807998D01*
X97952001Y-122808001D02*
X97748001Y-123011999D01*
X102580003Y-122982000D02*
X102376998Y-122778001D01*
X102580003Y-122778000D02*
X102376998Y-122982001D01*
X96748998Y-122974001D02*
X96545000Y-122771000D01*
X96748998Y-122770998D02*
X96545000Y-122974002D01*
X98955002Y-122929998D02*
X98751000Y-122727001D01*
X98955002Y-122727002D02*
X98750997Y-122929998D01*
X99516999Y-122875999D02*
X99314000Y-122672999D01*
X99517000Y-122673000D02*
X99313998Y-122876000D01*
X103785000Y-122871999D02*
X103581998Y-122669000D01*
X103785000Y-122669000D02*
X103582000Y-122872000D01*
X105067000Y-122783999D02*
X104864003Y-122579999D01*
X105067000Y-122580000D02*
X104864000Y-122783998D01*
X120371000Y-122784000D02*
X120167000Y-122580000D01*
X120371000Y-122580000D02*
X120166999Y-122784000D01*
X97193000Y-122593000D02*
X96990000Y-122389998D01*
X97193000Y-122390000D02*
X96990000Y-122593000D01*
X99565000Y-122320000D02*
X99362002Y-122116001D01*
X99565000Y-122116000D02*
X99362000Y-122320000D01*
X108812000Y-122252000D02*
X108608000Y-122048000D01*
X108812002Y-122047998D02*
X108607999Y-122252001D01*
X103775000Y-122235000D02*
X103570999Y-122030999D01*
X103775002Y-122031001D02*
X103570997Y-122234998D01*
X96811999Y-122149000D02*
X96609000Y-121945000D01*
X96812000Y-121945001D02*
X96608998Y-122148999D01*
X100441001Y-121848001D02*
X100237003Y-121645003D01*
X100441000Y-121644999D02*
X100237000Y-121848000D01*
X95034000Y-121753001D02*
X94831000Y-121550000D01*
X95034003Y-121549999D02*
X94831002Y-121752999D01*
X95606003Y-121647001D02*
X95402999Y-121444000D01*
X95605999Y-121444000D02*
X95403000Y-121647001D01*
X96177000Y-121577000D02*
X95974003Y-121374002D01*
X96176999Y-121374003D02*
X95973998Y-121577001D01*
X101158002Y-121389999D02*
X100954997Y-121185999D01*
X101157998Y-121185999D02*
X100954997Y-121390000D01*
X100608999Y-121289001D02*
X100405000Y-121085998D01*
X100609000Y-121085998D02*
X100404997Y-121288998D01*
X88367000Y-121133000D02*
X88163003Y-120929000D01*
X88367001Y-120929000D02*
X88162999Y-121133002D01*
X96050002Y-121006002D02*
X95847003Y-120802001D01*
X96050000Y-120802002D02*
X95846999Y-121006003D01*
X99797001Y-121006000D02*
X99593000Y-120801999D01*
X99796999Y-120802001D02*
X99593002Y-121006001D01*
X101003000Y-120815000D02*
X100800003Y-120612001D01*
X101003002Y-120612002D02*
X100799998Y-120815001D01*
X95403001Y-120755997D02*
X95200001Y-120553002D01*
X95403002Y-120553002D02*
X95200000Y-120756000D01*
X88899001Y-120751998D02*
X88694997Y-120548000D01*
X88899000Y-120548000D02*
X88695001Y-120751998D01*
X98195999Y-120752000D02*
X97993000Y-120548000D01*
X98196000Y-120548001D02*
X97992999Y-120752002D01*
X102107998Y-120371002D02*
X101905000Y-120167000D01*
X102108000Y-120166998D02*
X101905001Y-120370999D01*
X100748999Y-120243999D02*
X100546000Y-120040000D01*
X100749000Y-120040000D02*
X100546002Y-120244000D01*
X102265000Y-119833000D02*
X102062000Y-119630002D01*
X102265000Y-119629997D02*
X102061999Y-119833000D01*
X101117001Y-119812000D02*
X100914000Y-119609000D01*
X101117003Y-119609001D02*
X100914000Y-119812000D01*
X101702000Y-119786003D02*
X101497999Y-119582998D01*
X101701999Y-119583003D02*
X101497999Y-119786002D01*
X102819000Y-119761000D02*
X102616001Y-119558001D01*
X102818999Y-119558001D02*
X102616000Y-119761000D01*
X92557997Y-119354998D02*
X92354002Y-119150998D01*
X92558000Y-119151000D02*
X92354002Y-119355002D01*
X105766000Y-118529000D02*
X105562000Y-118326000D01*
X105766001Y-118326000D02*
X105562000Y-118528997D01*
X97137003Y-118262001D02*
X96933000Y-118058001D01*
X97137001Y-118058001D02*
X96932998Y-118262002D01*
X100162000Y-117937001D02*
X99958000Y-117733000D01*
X100162000Y-117733000D02*
X99958003Y-117937000D01*
X90091997Y-117567001D02*
X89887999Y-117362999D01*
X90092000Y-117363000D02*
X89888000Y-117567000D01*
X105766000Y-117513000D02*
X105561999Y-117309999D01*
X105766000Y-117310000D02*
X105562002Y-117513002D01*
X98802000Y-117096997D02*
X98598000Y-116893001D01*
X98802000Y-116893000D02*
X98598002Y-117096998D01*
X94082002Y-117069000D02*
X93878000Y-116865000D01*
X94082000Y-116865000D02*
X93878002Y-117069000D01*
X76556002Y-116941999D02*
X76351998Y-116738000D01*
X76556000Y-116738001D02*
X76352002Y-116941998D01*
X88621000Y-116878000D02*
X88417001Y-116674998D01*
X88621000Y-116675000D02*
X88417003Y-116878002D01*
X102526998Y-116434002D02*
X102324000Y-116230000D01*
X102527000Y-116230000D02*
X102324000Y-116434001D01*
X101575000Y-116243000D02*
X101371000Y-116040003D01*
X101575000Y-116040001D02*
X101371000Y-116243002D01*
X119482000Y-116180000D02*
X119278000Y-115976000D01*
X119482000Y-115976000D02*
X119278000Y-116180000D01*
X94653000Y-116053000D02*
X94450003Y-115849003D01*
X94653000Y-115849000D02*
X94449998Y-116053000D01*
X101638000Y-115608000D02*
X101435002Y-115405001D01*
X101638000Y-115405000D02*
X101435002Y-115607999D01*
X118267000Y-114551998D02*
X118062998Y-114347998D01*
X118267001Y-114348001D02*
X118063000Y-114552000D01*
X76556003Y-114402001D02*
X76351998Y-114198000D01*
X76556000Y-114198003D02*
X76351999Y-114402002D01*
X107582000Y-113332000D02*
X107377998Y-113128002D01*
X107582000Y-113128001D02*
X107377997Y-113331999D01*
X79476999Y-112814000D02*
X79272998Y-112610899D01*
X79477000Y-112610900D02*
X79273002Y-112813999D01*
X109467000Y-112506600D02*
X109262997Y-112303401D01*
X109467000Y-112303400D02*
X109263000Y-112506602D01*
X97384000Y-112496600D02*
X97180000Y-112293400D01*
X97384002Y-112293401D02*
X97180001Y-112496600D01*
X98273000Y-112179100D02*
X98069000Y-111975900D01*
X98273000Y-111975900D02*
X98069000Y-112179100D01*
X116282000Y-112071600D02*
X116078000Y-111868400D01*
X116282001Y-111868400D02*
X116078000Y-112071600D01*
X76490998Y-111965300D02*
X76287000Y-111762100D01*
X76491001Y-111762101D02*
X76287000Y-111965300D01*
X108702003Y-111821602D02*
X108498000Y-111618400D01*
X108702001Y-111618402D02*
X108497998Y-111821599D01*
X116441998Y-111341598D02*
X116237999Y-111138400D01*
X116442000Y-111138400D02*
X116237998Y-111341603D01*
X104917000Y-111246597D02*
X104713001Y-111043397D01*
X104917000Y-111043399D02*
X104713000Y-111246601D01*
X106551997Y-111236601D02*
X106348001Y-111033403D01*
X106551999Y-111033401D02*
X106348000Y-111236601D01*
X107766999Y-111236600D02*
X107563000Y-111033400D01*
X107767000Y-111033400D02*
X107563000Y-111236600D01*
X102633001Y-111014902D02*
X102429000Y-110811700D01*
X102633000Y-110811700D02*
X102429000Y-111014900D01*
X76556002Y-109321600D02*
X76352000Y-109118398D01*
X76556000Y-109118397D02*
X76352000Y-109321597D01*
X85531999Y-109156603D02*
X85327999Y-108953401D01*
X85532000Y-108953400D02*
X85328000Y-109156600D01*
X76556002Y-106781602D02*
X76351999Y-106578399D01*
X76555999Y-106578397D02*
X76352000Y-106781598D01*
X76556000Y-104241600D02*
X76351999Y-104038402D01*
X76556000Y-104038400D02*
X76351999Y-104241601D01*
X82582000Y-102891601D02*
X82378000Y-102688399D01*
X82582002Y-102688400D02*
X82378000Y-102891600D01*
X84557000Y-102463600D02*
X84353000Y-102260400D01*
X84556997Y-102260400D02*
X84353000Y-102463600D01*
X80486998Y-102266600D02*
X80282998Y-102063400D01*
X80487000Y-102063400D02*
X80283000Y-102266601D01*
X76555997Y-101701598D02*
X76351997Y-101498400D01*
X76556001Y-101498398D02*
X76351998Y-101701601D01*
X99887000Y-101461598D02*
X99682999Y-101258400D01*
X99887000Y-101258399D02*
X99683000Y-101461600D01*
X81337000Y-101051600D02*
X81133001Y-100848398D01*
X81337000Y-100848400D02*
X81132999Y-101051603D01*
X80387000Y-100901600D02*
X80183000Y-100698399D01*
X80387000Y-100698400D02*
X80183002Y-100901601D01*
X94018002Y-100495098D02*
X93814999Y-100291897D01*
X94018001Y-100291902D02*
X93815000Y-100495098D01*
X81957001Y-100456601D02*
X81752998Y-100253400D01*
X81957000Y-100253400D02*
X81753001Y-100456598D01*
X96524001Y-100401801D02*
X96321001Y-100198598D01*
X96524002Y-100198601D02*
X96321001Y-100401800D01*
X94589997Y-99744198D02*
X94386000Y-99541000D01*
X94589999Y-99541000D02*
X94386000Y-99744200D01*
X76555998Y-99161600D02*
X76352000Y-98958400D01*
X76556000Y-98958400D02*
X76351999Y-99161597D01*
X92786998Y-98821598D02*
X92583001Y-98618403D01*
X92787000Y-98618400D02*
X92583000Y-98821600D01*
X91967001Y-97431600D02*
X91763000Y-97228400D01*
X91967000Y-97228400D02*
X91763003Y-97431599D01*
X102590997Y-97129602D02*
X102387000Y-96926401D01*
X102590997Y-96926400D02*
X102387000Y-97129600D01*
X101855999Y-97023298D02*
X101651998Y-96820101D01*
X101856003Y-96820099D02*
X101651998Y-97023302D01*
X95478999Y-94843598D02*
X95275000Y-94640400D01*
X95479000Y-94640402D02*
X95275000Y-94843600D01*
X91414998Y-94589600D02*
X91211000Y-94386400D01*
X91414997Y-94386399D02*
X91211000Y-94589600D01*
X93701001Y-94589600D02*
X93497003Y-94386399D01*
X93701000Y-94386400D02*
X93497000Y-94589600D01*
X94336000Y-94589600D02*
X94132001Y-94386400D01*
X94336000Y-94386400D02*
X94132000Y-94589600D01*
X78143000Y-94066600D02*
X77939999Y-93863402D01*
X78143000Y-93863400D02*
X77940000Y-94066601D01*
X121132599Y-93510098D02*
X120929003Y-93306900D01*
X121132599Y-93306900D02*
X120929001Y-93510102D01*
X68529998Y-91440008D02*
G75*
G02X68630000Y-91440000I50001J4D01*
G01*
X68630006Y-144779994D02*
G75*
G02X68530000Y-144780002I-50003J-4D01*
G01*
X68630000Y-91440000D02*
X68630001Y-144780000D01*
X68530000Y-91440000D02*
X68530000Y-144780002D01*
X71119996Y-147370000D02*
G75*
G02X71120000Y-147269998I2J50001D01*
G01*
X134620004Y-147269998D02*
G75*
G02X134620000Y-147369998I-2J-50000D01*
G01*
X71120000Y-147269998D02*
X134620000Y-147270000D01*
X71119998Y-147370000D02*
X134620000Y-147369998D01*
X137110004Y-91440000D02*
G75*
G02X137210000Y-91440000I49998J0D01*
G01*
X137210004Y-144780006D02*
G75*
G02X137109998Y-144780000I-50003J3D01*
G01*
X137210000Y-91440000D02*
X137209999Y-144780002D01*
X137109999Y-91439998D02*
X137109998Y-144780000D01*
X71120008Y-88950002D02*
G75*
G02X71120000Y-88850000I-4J50001D01*
G01*
X134620000Y-88849998D02*
G75*
G02X134620000Y-88950002I0J-50002D01*
G01*
X71120000Y-88850000D02*
X134620003Y-88850000D01*
X71120000Y-88950000D02*
X134620000Y-88950002D01*
X71119994Y-147319997D02*
G75*
G02X68580003Y-144779998I4J2539995D01*
G01*
X68580001Y-91439996D02*
G75*
G02X71120004Y-88900001I2539999J-4D01*
G01*
X134619997Y-88899997D02*
G75*
G02X137160002Y-91440000I1J-2540004D01*
G01*
X137159997Y-144780001D02*
G75*
G02X134620002Y-147319998I-2539996J-1D01*
G01*
M02*
