G04 #@! TF.FileFunction,Drawing*
%FSLAX46Y46*%
G04 Gerber Fmt 4.6, Leading zero omitted, Abs format (unit mm)*
G04 Created by KiCad (PCBNEW 0.201505312246+5692~23~ubuntu14.04.1-product) date Mon 01 Jun 2015 02:51:44 AM PDT*
%MOMM*%
G01*
G04 APERTURE LIST*
%ADD10C,0.100000*%
%ADD11C,0.200000*%
%ADD12C,0.500000*%
G04 APERTURE END LIST*
D10*
D11*
X88900000Y-93980000D02*
X88900000Y-132080000D01*
X124460000Y-93980000D02*
X88900000Y-93980000D01*
X124460000Y-132080000D02*
X124460000Y-93980000D01*
X88900000Y-132080000D02*
X124460000Y-132080000D01*
X130810000Y-157480000D02*
X105410000Y-167640000D01*
X105410000Y-157480000D02*
X130810000Y-167640000D01*
X100330000Y-157480000D02*
X74930000Y-167640000D01*
X74930000Y-157480000D02*
X100330000Y-167640000D01*
X100330000Y-167640000D02*
X74930000Y-167640000D01*
X100330000Y-157480000D02*
X100330000Y-167640000D01*
X74930000Y-157480000D02*
X100330000Y-157480000D01*
X130810000Y-167640000D02*
X105410000Y-167640000D01*
X130810000Y-157480000D02*
X130810000Y-167640000D01*
X105410000Y-157480000D02*
X130810000Y-157480000D01*
X105410000Y-167640000D02*
X105410000Y-157480000D01*
X74930000Y-157480000D02*
X74930000Y-167640000D01*
X130810000Y-167640000D02*
X130810000Y-157480000D01*
D12*
X112359613Y-184150000D02*
G75*
G03X112359613Y-184150000I-5679613J0D01*
G01*
D11*
X101600000Y-132080000D02*
X111760000Y-132080000D01*
X101600000Y-184150000D02*
G75*
G03X111760000Y-184150000I5080000J0D01*
G01*
X101600000Y-132080000D02*
X101600000Y-184150000D01*
X111760000Y-184150000D02*
X111760000Y-132080000D01*
X50800000Y-228600000D02*
X50800000Y-231140000D01*
X48260000Y-228600000D02*
X50800000Y-228600000D01*
M02*
