G04 #@! TF.FileFunction,Soldermask,Bot*
%FSLAX46Y46*%
G04 Gerber Fmt 4.6, Leading zero omitted, Abs format (unit mm)*
G04 Created by KiCad (PCBNEW 0.201505312246+5692~23~ubuntu14.04.1-product) date Mon 01 Jun 2015 02:51:44 AM PDT*
%MOMM*%
G01*
G04 APERTURE LIST*
%ADD10C,0.100000*%
%ADD11C,1.452400*%
%ADD12C,2.852400*%
%ADD13O,1.052400X1.452400*%
%ADD14C,1.052400*%
%ADD15C,2.352400*%
%ADD16R,2.184400X2.184400*%
%ADD17O,2.184400X2.184400*%
%ADD18C,4.724400*%
%ADD19C,1.168400*%
%ADD20C,2.052400*%
G04 APERTURE END LIST*
D10*
D11*
X125660000Y-147590000D03*
X125660000Y-145090000D03*
X125660000Y-149590000D03*
X125660000Y-152090000D03*
D12*
X128760000Y-142140000D03*
X128760000Y-155090000D03*
D13*
X127693000Y-136017000D03*
X134943000Y-136017000D03*
D14*
X128893000Y-138667000D03*
X133743000Y-138667000D03*
D15*
X57190000Y-167600000D03*
X62190000Y-167600000D03*
X57190000Y-162600000D03*
X62190000Y-162600000D03*
D16*
X79502000Y-152527000D03*
D17*
X76962000Y-152527000D03*
D18*
X73660000Y-146334480D03*
X73660000Y-140335000D03*
X68961000Y-143334740D03*
D16*
X73406000Y-152527000D03*
D17*
X70866000Y-152527000D03*
D13*
X57081000Y-136017000D03*
X64331000Y-136017000D03*
D14*
X58281000Y-138667000D03*
X63131000Y-138667000D03*
D16*
X65151000Y-141732000D03*
D17*
X65151000Y-144272000D03*
D19*
X58166000Y-186055000D03*
X56896000Y-186055000D03*
X58166000Y-184785000D03*
X56896000Y-184785000D03*
X58166000Y-183515000D03*
X56896000Y-183515000D03*
X58166000Y-182245000D03*
X56896000Y-182245000D03*
X58166000Y-180975000D03*
X56896000Y-180975000D03*
D15*
X57698000Y-218146000D03*
X62698000Y-218146000D03*
X57698000Y-213146000D03*
X62698000Y-213146000D03*
D20*
X76200000Y-167640000D03*
X83820000Y-167640000D03*
X88900000Y-167640000D03*
X111506000Y-171704000D03*
X86360000Y-167640000D03*
X91440000Y-167640000D03*
X93980000Y-167640000D03*
X81280000Y-167640000D03*
X78740000Y-167640000D03*
X121920000Y-167640000D03*
X124460000Y-167640000D03*
X111760000Y-167640000D03*
X109220000Y-167640000D03*
X114300000Y-167640000D03*
X116840000Y-167640000D03*
X119380000Y-167640000D03*
X101092000Y-171323000D03*
X104140000Y-170561000D03*
X106680000Y-167640000D03*
X110731300Y-175895000D03*
X126111000Y-179070000D03*
X122872500Y-193103500D03*
X127000000Y-167640000D03*
X125476000Y-193103500D03*
X96520000Y-167640000D03*
X100406200Y-187807600D03*
X91948000Y-214185500D03*
X108077000Y-175387000D03*
X127635000Y-199644000D03*
X123571000Y-179070000D03*
X118999000Y-205105000D03*
X88519000Y-206248000D03*
X99060000Y-167640000D03*
X129540000Y-167640000D03*
M02*
